STARTFONT 2.1
FONT -FontForge-Lobster-Book-R-Normal--18-180-72-72-P-105-ISO10646-1
SIZE 18 72 72
FONTBOUNDINGBOX 36 27 -8 -8
COMMENT "Generated by fontforge, http://fontforge.sourceforge.net"
COMMENT "Copyright 2010 The Lobster Project Authors (https://github.com/impallari/The-Lobster-Font), with Reserved Font Name "Lobster"."
STARTPROPERTIES 40
FOUNDRY "FontForge"
FAMILY_NAME "Lobster"
WEIGHT_NAME "Book"
SLANT "R"
SETWIDTH_NAME "Normal"
ADD_STYLE_NAME ""
PIXEL_SIZE 18
POINT_SIZE 180
RESOLUTION_X 72
RESOLUTION_Y 72
SPACING "P"
AVERAGE_WIDTH 105
CHARSET_REGISTRY "ISO10646"
CHARSET_ENCODING "1"
FONTNAME_REGISTRY ""
CHARSET_COLLECTIONS "ISO8859-2 ISO8859-5 ISO8859-9 ISO8859-4 ISO10646-1"
FONT_NAME "Lobster-Regular"
FACE_NAME "Lobster Regular"
COPYRIGHT "Copyright 2010 The Lobster Project Authors (https://github.com/impallari/The-Lobster-Font), with Reserved Font Name "Lobster"."
FONT_VERSION "2.100"
FONT_ASCENT 14
FONT_DESCENT 4
UNDERLINE_POSITION -2
UNDERLINE_THICKNESS 1
X_HEIGHT 9
CAP_HEIGHT 12
DEFAULT_CHAR 1
RAW_ASCENT 800
RAW_DESCENT 200
NORM_SPACE 4
RELATIVE_WEIGHT 40
RELATIVE_SETWIDTH 50
SUPERSCRIPT_X 0
SUPERSCRIPT_Y 6
SUPERSCRIPT_SIZE 10
SUBSCRIPT_X 0
SUBSCRIPT_Y 1
SUBSCRIPT_SIZE 10
AVG_LOWERCASE_WIDTH 84
AVG_UPPERCASE_WIDTH 111
ENDPROPERTIES
CHARS 1148
STARTCHAR NULL.dup1
ENCODING 0
SWIDTH 600 0
DWIDTH 11 0
BBX 1 1 0 0
BITMAP
00
ENDCHAR
STARTCHAR nonmarkingreturn
ENCODING 13
SWIDTH 600 0
DWIDTH 11 0
BBX 1 1 0 0
BITMAP
00
ENDCHAR
STARTCHAR space
ENCODING 32
SWIDTH 217 0
DWIDTH 4 0
BBX 1 1 0 0
BITMAP
00
ENDCHAR
STARTCHAR exclam
ENCODING 33
SWIDTH 257 0
DWIDTH 5 0
BBX 5 13 1 0
BITMAP
38
30
30
30
70
60
60
60
40
00
C0
C0
C0
ENDCHAR
STARTCHAR quotedbl
ENCODING 34
SWIDTH 353 0
DWIDTH 6 0
BBX 7 4 1 9
BITMAP
3E
6C
48
D8
ENDCHAR
STARTCHAR numbersign
ENCODING 35
SWIDTH 659 0
DWIDTH 12 0
BBX 10 11 1 1
BITMAP
1980
1900
1100
7FC0
1300
3200
FF80
2200
2600
2600
6400
ENDCHAR
STARTCHAR dollar
ENCODING 36
SWIDTH 548 0
DWIDTH 10 0
BBX 10 18 0 -2
BITMAP
0100
0100
0200
0F80
1AC0
3B80
1C00
1E00
0E00
0700
7B80
EB80
CB80
CB00
7700
3C00
1000
1000
ENDCHAR
STARTCHAR percent
ENCODING 37
SWIDTH 796 0
DWIDTH 14 0
BBX 13 13 1 0
BITMAP
3860
6840
CC80
CC80
C900
CB00
DA78
F6D8
04D8
0998
1998
10B0
30E0
ENDCHAR
STARTCHAR ampersand
ENCODING 38
SWIDTH 682 0
DWIDTH 12 0
BBX 12 13 0 0
BITMAP
0F00
1D80
1880
1980
1800
1E10
39F0
73E0
7280
E080
F180
7F00
3C00
ENDCHAR
STARTCHAR quotesingle
ENCODING 39
SWIDTH 196 0
DWIDTH 4 0
BBX 4 4 1 9
BITMAP
30
60
40
C0
ENDCHAR
STARTCHAR parenleft
ENCODING 40
SWIDTH 437 0
DWIDTH 8 0
BBX 7 18 3 -4
BITMAP
02
0C
18
30
20
60
60
C0
C0
C0
C0
C0
C0
C0
C0
40
60
20
ENDCHAR
STARTCHAR parenright
ENCODING 41
SWIDTH 413 0
DWIDTH 7 0
BBX 7 18 -1 -4
BITMAP
10
08
08
0C
0C
04
06
06
0E
0C
0C
0C
0C
18
10
30
60
80
ENDCHAR
STARTCHAR asterisk
ENCODING 42
SWIDTH 515 0
DWIDTH 9 0
BBX 6 7 2 6
BITMAP
30
AC
F8
78
EC
28
20
ENDCHAR
STARTCHAR plus
ENCODING 43
SWIDTH 442 0
DWIDTH 8 0
BBX 7 6 0 3
BITMAP
08
18
18
FE
10
30
ENDCHAR
STARTCHAR comma
ENCODING 44
SWIDTH 216 0
DWIDTH 4 0
BBX 3 5 0 -2
BITMAP
60
E0
60
40
40
ENDCHAR
STARTCHAR hyphen
ENCODING 45
SWIDTH 290 0
DWIDTH 5 0
BBX 4 1 0 4
BITMAP
F0
ENDCHAR
STARTCHAR period
ENCODING 46
SWIDTH 263 0
DWIDTH 5 0
BBX 2 3 1 0
BITMAP
C0
C0
C0
ENDCHAR
STARTCHAR slash
ENCODING 47
SWIDTH 311 0
DWIDTH 6 0
BBX 5 17 0 -4
BITMAP
08
08
18
18
10
10
10
30
20
20
20
60
60
40
40
40
C0
ENDCHAR
STARTCHAR zero
ENCODING 48
SWIDTH 546 0
DWIDTH 10 0
BBX 10 13 0 0
BITMAP
0F00
1D80
39C0
30C0
70C0
71C0
61C0
E1C0
E180
E380
6300
6600
3C00
ENDCHAR
STARTCHAR one
ENCODING 49
SWIDTH 317 0
DWIDTH 6 0
BBX 6 13 0 0
BITMAP
0C
78
18
38
38
38
30
30
70
70
70
60
E0
ENDCHAR
STARTCHAR two
ENCODING 50
SWIDTH 492 0
DWIDTH 9 0
BBX 9 13 0 0
BITMAP
1E00
2700
6300
6380
3300
0700
0E00
1800
3000
6000
F100
FF00
9E00
ENDCHAR
STARTCHAR three
ENCODING 51
SWIDTH 514 0
DWIDTH 9 0
BBX 9 13 0 0
BITMAP
1F00
3380
3180
3B80
0700
0E00
0700
7380
E380
C380
C300
E600
3C00
ENDCHAR
STARTCHAR four
ENCODING 52
SWIDTH 476 0
DWIDTH 9 0
BBX 9 13 0 0
BITMAP
0C00
0C00
0C00
1D00
1B00
3200
6280
7F80
FF00
0600
0C00
0C00
1C00
ENDCHAR
STARTCHAR five
ENCODING 53
SWIDTH 517 0
DWIDTH 9 0
BBX 9 13 0 0
BITMAP
0080
1F80
3F80
3000
2000
3E00
4700
0380
7380
E380
C300
E600
7C00
ENDCHAR
STARTCHAR six
ENCODING 54
SWIDTH 500 0
DWIDTH 9 0
BBX 9 13 0 0
BITMAP
0F00
1980
3980
7100
7000
6F00
F300
E380
E380
E300
E300
6600
3C00
ENDCHAR
STARTCHAR seven
ENCODING 55
SWIDTH 464 0
DWIDTH 8 0
BBX 8 13 1 0
BITMAP
71
FF
8A
06
0C
18
38
30
70
60
E0
E0
60
ENDCHAR
STARTCHAR eight
ENCODING 56
SWIDTH 499 0
DWIDTH 9 0
BBX 9 13 0 0
BITMAP
0F00
3980
3180
3180
3B00
1E00
1E00
6700
E380
C380
C300
E700
3C00
ENDCHAR
STARTCHAR nine
ENCODING 57
SWIDTH 489 0
DWIDTH 9 0
BBX 9 13 0 0
BITMAP
1E00
3300
6380
6380
E380
6780
7B80
0300
0700
4700
C600
CC00
7800
ENDCHAR
STARTCHAR colon
ENCODING 58
SWIDTH 267 0
DWIDTH 5 0
BBX 4 7 1 1
BITMAP
60
70
60
00
C0
E0
C0
ENDCHAR
STARTCHAR semicolon
ENCODING 59
SWIDTH 276 0
DWIDTH 5 0
BBX 4 10 1 -3
BITMAP
60
70
60
00
40
C0
C0
40
80
80
ENDCHAR
STARTCHAR less
ENCODING 60
SWIDTH 358 0
DWIDTH 6 0
BBX 6 7 0 1
BITMAP
04
1C
70
C0
30
1C
04
ENDCHAR
STARTCHAR equal
ENCODING 61
SWIDTH 515 0
DWIDTH 9 0
BBX 7 6 1 2
BITMAP
7E
FE
00
00
FE
FC
ENDCHAR
STARTCHAR greater
ENCODING 62
SWIDTH 362 0
DWIDTH 7 0
BBX 6 7 0 1
BITMAP
40
70
1C
1C
70
C0
80
ENDCHAR
STARTCHAR question
ENCODING 63
SWIDTH 441 0
DWIDTH 8 0
BBX 7 13 1 0
BITMAP
7C
CE
CE
EC
0C
10
20
40
40
00
C0
E0
C0
ENDCHAR
STARTCHAR at
ENCODING 64
SWIDTH 688 0
DWIDTH 12 0
BBX 12 12 0 -1
BITMAP
07C0
1C60
37A0
6DB0
4930
D930
DB20
9B60
9DC0
C000
C100
3E00
ENDCHAR
STARTCHAR A
ENCODING 65
SWIDTH 668 0
DWIDTH 12 0
BBX 12 15 0 -2
BITMAP
0070
00B0
0170
0270
0670
3F60
CCE0
D8E0
18E0
38C0
30C0
31C0
31C0
3000
3000
ENDCHAR
STARTCHAR B
ENCODING 66
SWIDTH 641 0
DWIDTH 12 0
BBX 11 13 0 0
BITMAP
0F80
30C0
6E60
CC40
CCC0
DFC0
1CE0
1CE0
18E0
18E0
38C0
3FC0
3780
ENDCHAR
STARTCHAR C
ENCODING 67
SWIDTH 497 0
DWIDTH 9 0
BBX 10 13 0 0
BITMAP
0F80
1C80
38C0
3980
7000
7000
7000
E000
E000
E000
6040
7180
3E00
ENDCHAR
STARTCHAR D
ENCODING 68
SWIDTH 663 0
DWIDTH 12 0
BBX 12 13 0 0
BITMAP
0F80
30E0
6E60
CC60
CC70
DC70
1C60
1C60
1860
38E0
38C0
3980
3700
ENDCHAR
STARTCHAR E
ENCODING 69
SWIDTH 459 0
DWIDTH 8 0
BBX 9 13 0 0
BITMAP
0F00
1980
1980
3900
1800
1C00
3800
7000
E000
E080
F100
FE00
7C00
ENDCHAR
STARTCHAR F
ENCODING 70
SWIDTH 459 0
DWIDTH 8 0
BBX 11 13 0 0
BITMAP
1FE0
6FC0
4C00
CC00
DC00
5F80
1C00
1800
1800
3800
3800
3000
3000
ENDCHAR
STARTCHAR G
ENCODING 71
SWIDTH 578 0
DWIDTH 10 0
BBX 10 16 0 -3
BITMAP
0F80
1CC0
38C0
70C0
6000
E000
E1C0
E180
7380
3D80
0380
0300
3B00
6300
6600
3C00
ENDCHAR
STARTCHAR H
ENCODING 72
SWIDTH 665 0
DWIDTH 12 0
BBX 12 13 0 0
BITMAP
1E30
2E30
4E70
CC70
CC60
5FE0
1CE0
1CE0
18E0
18C0
38C0
39C0
31C0
ENDCHAR
STARTCHAR I
ENCODING 73
SWIDTH 375 0
DWIDTH 7 0
BBX 7 13 0 0
BITMAP
0E
3E
4E
CC
CC
DC
1C
18
18
38
38
38
30
ENDCHAR
STARTCHAR J
ENCODING 74
SWIDTH 536 0
DWIDTH 10 0
BBX 10 16 0 -3
BITMAP
01C0
06C0
0DC0
09C0
1980
0980
0380
0380
0300
0300
0700
0700
7700
C600
CE00
7C00
ENDCHAR
STARTCHAR K
ENCODING 75
SWIDTH 601 0
DWIDTH 11 0
BBX 12 13 0 0
BITMAP
0E30
3E40
4EC0
CD80
CF00
5F80
1DC0
19C0
19C0
3980
3980
3B80
31C0
ENDCHAR
STARTCHAR L
ENCODING 76
SWIDTH 379 0
DWIDTH 7 0
BBX 12 17 0 -4
BITMAP
0E00
3E00
6E00
CC00
CC00
DC00
1C00
1800
1800
3800
3800
3800
3800
0F00
03F0
01F0
00E0
ENDCHAR
STARTCHAR M
ENCODING 77
SWIDTH 787 0
DWIDTH 14 0
BBX 13 13 1 0
BITMAP
0E18
3638
6E38
CE78
DE78
5678
16F8
36B0
2FB0
2F70
6F70
4E70
CE70
ENDCHAR
STARTCHAR N
ENCODING 78
SWIDTH 668 0
DWIDTH 12 0
BBX 13 13 0 0
BITMAP
1E18
2E18
4F10
CF30
CF30
DB30
1B20
1BA0
13E0
31E0
31E0
31C0
21C0
ENDCHAR
STARTCHAR O
ENCODING 79
SWIDTH 665 0
DWIDTH 12 0
BBX 12 13 0 0
BITMAP
0FC0
3960
6670
4C70
DC70
D870
3870
3860
38E0
38E0
39C0
3B80
1F00
ENDCHAR
STARTCHAR P
ENCODING 80
SWIDTH 573 0
DWIDTH 10 0
BBX 11 13 0 0
BITMAP
0F80
30C0
6E60
CC60
CC60
DCC0
1D80
1F00
1800
3800
3800
3800
3000
ENDCHAR
STARTCHAR Q
ENCODING 81
SWIDTH 665 0
DWIDTH 12 0
BBX 12 15 0 -2
BITMAP
0FC0
3960
6670
4C70
DC70
D870
3870
3860
38E0
38E0
3FC0
3B80
1F80
01E0
00C0
ENDCHAR
STARTCHAR R
ENCODING 82
SWIDTH 601 0
DWIDTH 11 0
BBX 11 13 0 0
BITMAP
0F80
30C0
6E60
CCC0
CCC0
5F80
1DC0
19C0
19C0
3980
3980
3B80
31C0
ENDCHAR
STARTCHAR S
ENCODING 83
SWIDTH 570 0
DWIDTH 10 0
BBX 9 13 1 0
BITMAP
1F00
3980
3180
3380
3800
1C00
0E00
2700
F700
C300
C700
CE00
7C00
ENDCHAR
STARTCHAR T
ENCODING 84
SWIDTH 481 0
DWIDTH 9 0
BBX 13 13 0 0
BITMAP
1F88
67F8
47F0
C700
C600
CE00
4E00
0E00
0C00
0C00
1C00
1C00
1C00
ENDCHAR
STARTCHAR U
ENCODING 85
SWIDTH 716 0
DWIDTH 13 0
BBX 14 13 0 0
BITMAP
0F1C
3618
4E18
CE38
CC38
CC38
1C30
1C70
1870
1860
18E0
1FC0
0F80
ENDCHAR
STARTCHAR V
ENCODING 86
SWIDTH 615 0
DWIDTH 11 0
BBX 12 13 0 0
BITMAP
0E10
3E10
6E20
C620
C620
C640
0640
0680
0680
0680
0700
0700
0700
ENDCHAR
STARTCHAR W
ENCODING 87
SWIDTH 962 0
DWIDTH 17 0
BBX 19 13 0 0
BITMAP
0E1860
3E1840
6E38C0
C63880
C63880
C65900
065900
069900
069A00
069E00
071E00
071C00
071C00
ENDCHAR
STARTCHAR X
ENCODING 88
SWIDTH 620 0
DWIDTH 11 0
BBX 11 13 0 0
BITMAP
0E20
3640
6740
C780
C780
C700
0380
0380
0780
0F80
0980
11C0
31C0
ENDCHAR
STARTCHAR Y
ENCODING 89
SWIDTH 620 0
DWIDTH 11 0
BBX 13 13 0 0
BITMAP
0E18
3710
6720
C720
C760
C3C0
03C0
0380
0380
0380
0300
0700
0700
ENDCHAR
STARTCHAR Z
ENCODING 90
SWIDTH 542 0
DWIDTH 10 0
BBX 10 13 0 0
BITMAP
3FC0
2380
3380
0700
0700
0E00
0E00
1C00
1C00
3800
3180
7180
FF00
ENDCHAR
STARTCHAR bracketleft
ENCODING 91
SWIDTH 400 0
DWIDTH 7 0
BBX 7 17 0 -4
BITMAP
0E
18
18
18
18
30
30
30
30
20
60
60
60
40
C0
C0
F0
ENDCHAR
STARTCHAR backslash
ENCODING 92
SWIDTH 362 0
DWIDTH 7 0
BBX 5 17 1 -4
BITMAP
80
80
C0
40
40
40
60
60
20
20
20
30
10
10
10
18
18
ENDCHAR
STARTCHAR bracketright
ENCODING 93
SWIDTH 400 0
DWIDTH 7 0
BBX 8 17 -1 -4
BITMAP
0F
16
06
06
06
0C
0C
0C
0C
08
18
18
18
18
30
30
F0
ENDCHAR
STARTCHAR asciicircum
ENCODING 94
SWIDTH 421 0
DWIDTH 8 0
BBX 5 4 1 10
BITMAP
10
10
38
C8
ENDCHAR
STARTCHAR underscore
ENCODING 95
SWIDTH 444 0
DWIDTH 8 0
BBX 6 1 1 0
BITMAP
FC
ENDCHAR
STARTCHAR grave
ENCODING 96
SWIDTH 201 0
DWIDTH 4 0
BBX 3 3 0 10
BITMAP
C0
60
20
ENDCHAR
STARTCHAR a
ENCODING 97
SWIDTH 526 0
DWIDTH 9 0
BBX 10 9 0 0
BITMAP
1F80
7300
6300
E700
E700
C600
C640
FF80
7700
ENDCHAR
STARTCHAR b
ENCODING 98
SWIDTH 444 0
DWIDTH 8 0
BBX 7 12 0 0
BITMAP
38
30
70
7E
66
62
E6
E6
E6
CC
FC
78
ENDCHAR
STARTCHAR c
ENCODING 99
SWIDTH 384 0
DWIDTH 7 0
BBX 8 9 0 0
BITMAP
1C
76
64
E0
E0
C0
C3
E4
78
ENDCHAR
STARTCHAR d
ENCODING 100
SWIDTH 525 0
DWIDTH 9 0
BBX 10 12 0 0
BITMAP
0180
0380
0380
1F80
7300
6300
E700
E700
C700
C640
EE40
7780
ENDCHAR
STARTCHAR e
ENCODING 101
SWIDTH 384 0
DWIDTH 7 0
BBX 8 9 0 0
BITMAP
1C
76
64
EC
F8
C1
C2
E4
78
ENDCHAR
STARTCHAR f
ENCODING 102
SWIDTH 267 0
DWIDTH 5 0
BBX 11 17 -4 -4
BITMAP
01C0
03A0
0300
0700
0780
0700
0600
0600
0E00
0E00
0C00
0C00
1C00
7C00
DC00
9800
7000
ENDCHAR
STARTCHAR g
ENCODING 103
SWIDTH 507 0
DWIDTH 9 0
BBX 10 13 0 -4
BITMAP
1F80
7300
6300
E700
E700
C600
CE40
FE80
7F00
1E00
6C00
5C00
3800
ENDCHAR
STARTCHAR h
ENCODING 104
SWIDTH 505 0
DWIDTH 9 0
BBX 11 12 -1 0
BITMAP
1C00
1800
3800
3F00
3B80
3380
7380
7300
7300
6720
6740
E380
ENDCHAR
STARTCHAR i
ENCODING 105
SWIDTH 267 0
DWIDTH 5 0
BBX 6 12 0 0
BITMAP
30
30
30
70
60
60
E0
E0
E4
C8
F8
F0
ENDCHAR
STARTCHAR j
ENCODING 106
SWIDTH 240 0
DWIDTH 4 0
BBX 9 16 -4 -4
BITMAP
0300
0700
0300
0700
0700
0600
0E00
0E00
0E00
0C80
0D00
1E00
3C00
5C00
9800
7000
ENDCHAR
STARTCHAR k
ENCODING 107
SWIDTH 518 0
DWIDTH 9 0
BBX 11 13 -1 0
BITMAP
0400
1800
1800
3800
39C0
3A00
3600
7F00
7300
7300
6320
67C0
E380
ENDCHAR
STARTCHAR l
ENCODING 108
SWIDTH 267 0
DWIDTH 5 0
BBX 6 13 0 0
BITMAP
18
30
30
70
70
70
60
E0
E0
E4
C8
F8
E0
ENDCHAR
STARTCHAR m
ENCODING 109
SWIDTH 752 0
DWIDTH 14 0
BBX 15 9 -1 0
BITMAP
3F78
3B98
3398
7338
7338
7738
6732
6732
E63C
ENDCHAR
STARTCHAR n
ENCODING 110
SWIDTH 505 0
DWIDTH 9 0
BBX 11 9 -1 0
BITMAP
3F00
3B80
3380
7380
7300
7300
6720
6740
E380
ENDCHAR
STARTCHAR o
ENCODING 111
SWIDTH 439 0
DWIDTH 8 0
BBX 10 9 0 0
BITMAP
1C00
7600
6640
E780
E600
E600
C400
EC00
7000
ENDCHAR
STARTCHAR p
ENCODING 112
SWIDTH 468 0
DWIDTH 8 0
BBX 10 14 -2 -4
BITMAP
1C00
1F80
1DC0
18C0
19C0
39C0
39C0
3180
3F80
7F00
7000
7000
6000
E000
ENDCHAR
STARTCHAR q
ENCODING 113
SWIDTH 486 0
DWIDTH 9 0
BBX 9 13 0 -4
BITMAP
1F80
7300
6300
E700
E700
C600
CE00
FE00
7E00
0E00
0C00
0C00
1C00
ENDCHAR
STARTCHAR r
ENCODING 114
SWIDTH 376 0
DWIDTH 7 0
BBX 8 9 -1 0
BITMAP
3F
3F
33
70
70
70
60
60
E0
ENDCHAR
STARTCHAR s
ENCODING 115
SWIDTH 382 0
DWIDTH 7 0
BBX 9 10 -1 0
BITMAP
0400
1C00
1C00
2C00
2E00
2E00
6E80
CF00
4C00
7800
ENDCHAR
STARTCHAR t
ENCODING 116
SWIDTH 267 0
DWIDTH 5 0
BBX 6 12 0 0
BITMAP
30
30
70
78
F0
60
60
E0
E4
C8
F8
F0
ENDCHAR
STARTCHAR u
ENCODING 117
SWIDTH 505 0
DWIDTH 9 0
BBX 10 9 0 0
BITMAP
7300
6700
6700
E700
E600
EE00
CE40
FF80
E700
ENDCHAR
STARTCHAR v
ENCODING 118
SWIDTH 414 0
DWIDTH 7 0
BBX 7 9 0 0
BITMAP
76
66
62
E2
E2
E4
CC
F8
F0
ENDCHAR
STARTCHAR w
ENCODING 119
SWIDTH 661 0
DWIDTH 12 0
BBX 12 9 0 0
BITMAP
7360
6730
6710
E720
E620
EE20
CE40
FFC0
E700
ENDCHAR
STARTCHAR x
ENCODING 120
SWIDTH 522 0
DWIDTH 9 0
BBX 10 10 0 0
BITMAP
0180
1D80
2C80
4D00
4F00
8E00
8E00
1E40
2640
C780
ENDCHAR
STARTCHAR y
ENCODING 121
SWIDTH 486 0
DWIDTH 9 0
BBX 10 13 0 -4
BITMAP
7300
6700
6700
E700
E600
EE40
CE80
FE80
EF00
3C00
5C00
5C00
7800
ENDCHAR
STARTCHAR z
ENCODING 122
SWIDTH 428 0
DWIDTH 8 0
BBX 8 9 0 0
BITMAP
3F
6E
6C
1C
18
38
72
66
FC
ENDCHAR
STARTCHAR braceleft
ENCODING 123
SWIDTH 352 0
DWIDTH 6 0
BBX 6 17 1 -4
BITMAP
1C
38
30
30
30
30
30
C0
60
60
60
40
C0
C0
C0
C0
60
ENDCHAR
STARTCHAR bar
ENCODING 124
SWIDTH 532 0
DWIDTH 10 0
BBX 2 17 4 -4
BITMAP
C0
C0
C0
C0
C0
C0
C0
C0
C0
C0
C0
C0
C0
C0
C0
C0
C0
ENDCHAR
STARTCHAR braceright
ENCODING 125
SWIDTH 352 0
DWIDTH 6 0
BBX 6 17 -1 -4
BITMAP
18
0C
0C
0C
0C
18
18
18
0C
18
30
30
30
30
30
60
E0
ENDCHAR
STARTCHAR asciitilde
ENCODING 126
SWIDTH 431 0
DWIDTH 8 0
BBX 7 2 1 10
BITMAP
7E
FC
ENDCHAR
STARTCHAR uni00A0
ENCODING 160
SWIDTH 217 0
DWIDTH 4 0
BBX 1 1 0 0
BITMAP
00
ENDCHAR
STARTCHAR exclamdown
ENCODING 161
SWIDTH 219 0
DWIDTH 4 0
BBX 5 14 -1 -5
BITMAP
18
38
18
00
30
30
30
30
60
60
60
E0
E0
80
ENDCHAR
STARTCHAR cent
ENCODING 162
SWIDTH 384 0
DWIDTH 7 0
BBX 8 13 0 -1
BITMAP
04
04
1E
3B
6A
68
D0
D0
D0
74
7C
20
20
ENDCHAR
STARTCHAR sterling
ENCODING 163
SWIDTH 455 0
DWIDTH 8 0
BBX 9 13 0 0
BITMAP
0780
0D80
1D80
1800
1800
7F00
3800
3000
3000
3000
7080
7F80
FF00
ENDCHAR
STARTCHAR currency
ENCODING 164
SWIDTH 500 0
DWIDTH 9 0
BBX 7 7 1 2
BITMAP
FE
44
44
44
44
7C
82
ENDCHAR
STARTCHAR yen
ENCODING 165
SWIDTH 558 0
DWIDTH 10 0
BBX 8 13 2 0
BITMAP
E1
E1
62
72
74
74
34
38
FE
FE
70
70
70
ENDCHAR
STARTCHAR brokenbar
ENCODING 166
SWIDTH 532 0
DWIDTH 10 0
BBX 2 17 4 -4
BITMAP
C0
C0
C0
C0
C0
C0
C0
C0
00
C0
C0
C0
C0
C0
C0
C0
C0
ENDCHAR
STARTCHAR section
ENCODING 167
SWIDTH 542 0
DWIDTH 10 0
BBX 9 15 0 -2
BITMAP
0780
0C80
1C80
1C80
1C00
3E00
3700
3380
3D80
1D80
6F80
C600
C600
CC00
7800
ENDCHAR
STARTCHAR dieresis
ENCODING 168
SWIDTH 392 0
DWIDTH 7 0
BBX 5 2 1 10
BITMAP
D8
D8
ENDCHAR
STARTCHAR copyright
ENCODING 169
SWIDTH 587 0
DWIDTH 11 0
BBX 9 9 1 1
BITMAP
3C00
6200
9D00
A680
A080
A680
9D00
4300
3C00
ENDCHAR
STARTCHAR ordfeminine
ENCODING 170
SWIDTH 345 0
DWIDTH 6 0
BBX 5 5 1 8
BITMAP
78
D0
90
B0
D8
ENDCHAR
STARTCHAR guillemotleft
ENCODING 171
SWIDTH 589 0
DWIDTH 11 0
BBX 10 6 0 2
BITMAP
0440
1980
2600
C800
3600
0980
ENDCHAR
STARTCHAR logicalnot
ENCODING 172
SWIDTH 444 0
DWIDTH 8 0
BBX 7 4 0 1
BITMAP
FE
06
06
0C
ENDCHAR
STARTCHAR uni00AD
ENCODING 173
SWIDTH 290 0
DWIDTH 5 0
BBX 4 1 0 4
BITMAP
F0
ENDCHAR
STARTCHAR registered
ENCODING 174
SWIDTH 553 0
DWIDTH 10 0
BBX 8 9 1 1
BITMAP
3C
42
BD
A5
BD
A9
A5
42
3C
ENDCHAR
STARTCHAR macron
ENCODING 175
SWIDTH 446 0
DWIDTH 8 0
BBX 6 1 1 11
BITMAP
FC
ENDCHAR
STARTCHAR degree
ENCODING 176
SWIDTH 314 0
DWIDTH 6 0
BBX 4 6 1 7
BITMAP
70
D0
90
90
A0
E0
ENDCHAR
STARTCHAR plusminus
ENCODING 177
SWIDTH 479 0
DWIDTH 9 0
BBX 8 8 0 2
BITMAP
0C
08
7F
08
18
18
00
FE
ENDCHAR
STARTCHAR uni00B2
ENCODING 178
SWIDTH 328 0
DWIDTH 6 0
BBX 5 8 1 5
BITMAP
70
58
58
10
20
40
80
F0
ENDCHAR
STARTCHAR uni00B3
ENCODING 179
SWIDTH 336 0
DWIDTH 6 0
BBX 5 7 1 6
BITMAP
70
58
58
30
D8
98
60
ENDCHAR
STARTCHAR acute
ENCODING 180
SWIDTH 316 0
DWIDTH 6 0
BBX 4 4 2 10
BITMAP
30
60
40
C0
ENDCHAR
STARTCHAR uni00B5
ENCODING 181
SWIDTH 505 0
DWIDTH 9 0
BBX 11 12 -1 -3
BITMAP
3980
3380
3380
7380
7300
7300
6720
7FC0
F380
E000
E000
C000
ENDCHAR
STARTCHAR paragraph
ENCODING 182
SWIDTH 542 0
DWIDTH 10 0
BBX 8 14 1 -1
BITMAP
1E
7F
7D
FF
FB
FB
7A
3E
1E
16
36
34
3C
2C
ENDCHAR
STARTCHAR periodcentered
ENCODING 183
SWIDTH 434 0
DWIDTH 8 0
BBX 4 3 2 3
BITMAP
60
F0
60
ENDCHAR
STARTCHAR cedilla
ENCODING 184
SWIDTH 227 0
DWIDTH 4 0
BBX 4 4 0 -4
BITMAP
60
70
10
F0
ENDCHAR
STARTCHAR uni00B9
ENCODING 185
SWIDTH 229 0
DWIDTH 4 0
BBX 3 8 1 5
BITMAP
20
E0
40
40
40
C0
C0
80
ENDCHAR
STARTCHAR ordmasculine
ENCODING 186
SWIDTH 329 0
DWIDTH 6 0
BBX 4 5 1 8
BITMAP
60
D0
90
A0
E0
ENDCHAR
STARTCHAR guillemotright
ENCODING 187
SWIDTH 586 0
DWIDTH 11 0
BBX 10 6 0 2
BITMAP
4400
3300
1980
0440
3B80
CC00
ENDCHAR
STARTCHAR onequarter
ENCODING 188
SWIDTH 749 0
DWIDTH 13 0
BBX 12 13 1 0
BITMAP
20C0
E080
4100
4300
4200
C600
C4D0
88F0
08B0
11F0
3020
2060
6060
ENDCHAR
STARTCHAR onehalf
ENCODING 189
SWIDTH 745 0
DWIDTH 13 0
BBX 12 13 1 0
BITMAP
20C0
E080
4100
4300
4200
C600
C470
88B0
08F0
1020
3040
2080
61F0
ENDCHAR
STARTCHAR threequarters
ENCODING 190
SWIDTH 836 0
DWIDTH 15 0
BBX 14 13 1 0
BITMAP
7020
5840
5840
3080
D980
9900
632C
0228
0428
047C
0818
1818
1010
ENDCHAR
STARTCHAR questiondown
ENCODING 191
SWIDTH 439 0
DWIDTH 8 0
BBX 7 13 0 -4
BITMAP
0C
0E
0C
00
0C
08
18
30
60
CE
C6
EC
78
ENDCHAR
STARTCHAR Agrave
ENCODING 192
SWIDTH 668 0
DWIDTH 12 0
BBX 12 20 0 -2
BITMAP
0060
0060
0020
0000
0000
0070
00B0
0170
0270
0670
3F60
CCE0
D8E0
18E0
38C0
30C0
31C0
31C0
3000
3000
ENDCHAR
STARTCHAR Aacute
ENCODING 193
SWIDTH 668 0
DWIDTH 12 0
BBX 14 20 0 -2
BITMAP
000C
0018
0010
0030
0000
0070
00B0
0170
0270
0670
3F60
CCE0
D8E0
18E0
38C0
30C0
31C0
31C0
3000
3000
ENDCHAR
STARTCHAR Acircumflex
ENCODING 194
SWIDTH 668 0
DWIDTH 12 0
BBX 14 20 0 -2
BITMAP
0008
0018
0038
00C4
0000
0070
00B0
0170
0270
0670
3F60
CCE0
D8E0
18E0
38C0
30C0
31C0
31C0
3000
3000
ENDCHAR
STARTCHAR Atilde
ENCODING 195
SWIDTH 668 0
DWIDTH 12 0
BBX 15 19 0 -2
BITMAP
0022
00FC
0110
0000
0070
00B0
0170
0270
0670
3F60
CCE0
D8E0
18E0
38C0
30C0
31C0
31C0
3000
3000
ENDCHAR
STARTCHAR Adieresis
ENCODING 196
SWIDTH 668 0
DWIDTH 12 0
BBX 14 19 0 -2
BITMAP
00C8
00DC
0000
0000
0070
00B0
0170
0270
0670
3F60
CCE0
D8E0
18E0
38C0
30C0
31C0
31C0
3000
3000
ENDCHAR
STARTCHAR Aring
ENCODING 197
SWIDTH 668 0
DWIDTH 12 0
BBX 12 19 0 -2
BITMAP
0030
0050
0030
0000
0070
00B0
0170
0270
0670
3F60
CCE0
D8E0
18E0
38C0
30C0
31C0
31C0
3000
3000
ENDCHAR
STARTCHAR AE
ENCODING 198
SWIDTH 764 0
DWIDTH 14 0
BBX 16 15 0 -2
BITMAP
0079
00BF
0170
0270
0670
3E60
EDFC
D8E0
18E0
38C0
30C0
31FC
31FC
3000
3000
ENDCHAR
STARTCHAR Ccedilla
ENCODING 199
SWIDTH 497 0
DWIDTH 9 0
BBX 10 17 0 -4
BITMAP
0F80
1CC0
38C0
3180
7000
7000
7000
E000
E000
E040
7080
7F00
3C00
0C00
1600
1400
3800
ENDCHAR
STARTCHAR Egrave
ENCODING 200
SWIDTH 459 0
DWIDTH 8 0
BBX 9 18 0 0
BITMAP
0600
0600
0600
0000
0000
0F00
1980
1980
3900
1800
1C00
3800
7000
E000
E080
F100
FE00
7C00
ENDCHAR
STARTCHAR Eacute
ENCODING 201
SWIDTH 459 0
DWIDTH 8 0
BBX 9 18 0 0
BITMAP
0180
0180
0300
0200
0000
0F00
1980
1980
3900
1800
1C00
3800
7000
E000
E080
F100
FE00
7C00
ENDCHAR
STARTCHAR Ecircumflex
ENCODING 202
SWIDTH 459 0
DWIDTH 8 0
BBX 9 18 0 0
BITMAP
0100
0300
0480
0880
0000
0F00
1980
1980
3900
1800
1C00
3800
7000
E000
E080
F100
FE00
7C00
ENDCHAR
STARTCHAR Edieresis
ENCODING 203
SWIDTH 459 0
DWIDTH 8 0
BBX 10 17 0 0
BITMAP
0CC0
0CC0
0000
0000
0F00
1980
1980
3900
1800
1C00
3800
7000
E000
E080
F100
FE00
7C00
ENDCHAR
STARTCHAR Igrave
ENCODING 204
SWIDTH 375 0
DWIDTH 7 0
BBX 7 18 0 0
BITMAP
0C
0C
04
00
00
0E
3E
4E
CC
CC
DC
1C
18
18
38
38
38
30
ENDCHAR
STARTCHAR Iacute
ENCODING 205
SWIDTH 375 0
DWIDTH 7 0
BBX 9 18 0 0
BITMAP
0180
0300
0200
0600
0000
0E00
3E00
4E00
CC00
CC00
DC00
1C00
1800
1800
3800
3800
3800
3000
ENDCHAR
STARTCHAR Icircumflex
ENCODING 206
SWIDTH 375 0
DWIDTH 7 0
BBX 8 18 0 0
BITMAP
01
03
0D
11
00
0E
3E
4E
CC
CC
DC
1C
18
18
38
38
38
30
ENDCHAR
STARTCHAR Idieresis
ENCODING 207
SWIDTH 375 0
DWIDTH 7 0
BBX 9 17 0 0
BITMAP
0980
1D80
0000
0000
0E00
3E00
4E00
CC00
CC00
DC00
1C00
1800
1800
3800
3800
3800
3000
ENDCHAR
STARTCHAR Eth
ENCODING 208
SWIDTH 663 0
DWIDTH 12 0
BBX 12 13 0 0
BITMAP
0F80
30E0
6E60
CC70
DC70
3E70
1C60
1860
1860
38E0
38C0
3980
3700
ENDCHAR
STARTCHAR Ntilde
ENCODING 209
SWIDTH 686 0
DWIDTH 12 0
BBX 13 16 0 0
BITMAP
03E8
04F0
0000
1E18
2E18
4F10
CF30
CF30
DB30
1B20
1BA0
13E0
31E0
31E0
31C0
21C0
ENDCHAR
STARTCHAR Ograve
ENCODING 210
SWIDTH 665 0
DWIDTH 12 0
BBX 12 18 0 0
BITMAP
0600
0300
0300
0000
0000
0FC0
3960
6670
4C70
DC70
D870
3870
3860
38E0
38E0
39C0
3B80
1F00
ENDCHAR
STARTCHAR Oacute
ENCODING 211
SWIDTH 665 0
DWIDTH 12 0
BBX 12 18 0 0
BITMAP
0060
00C0
0080
0180
0000
0FC0
3960
6670
4C70
DC70
D870
3870
3860
38E0
38E0
39C0
3B80
1F00
ENDCHAR
STARTCHAR Ocircumflex
ENCODING 212
SWIDTH 665 0
DWIDTH 12 0
BBX 12 18 0 0
BITMAP
0080
01C0
0340
0440
0000
0FC0
3960
6670
4C70
DC70
D870
3870
3860
38E0
38E0
39C0
3B80
1F00
ENDCHAR
STARTCHAR Otilde
ENCODING 213
SWIDTH 665 0
DWIDTH 12 0
BBX 12 17 0 0
BITMAP
0100
07F0
0040
0000
0FC0
3960
6670
4C70
DC70
D870
3870
3860
38E0
38E0
39C0
3B80
1F00
ENDCHAR
STARTCHAR Odieresis
ENCODING 214
SWIDTH 665 0
DWIDTH 12 0
BBX 12 17 0 0
BITMAP
0640
06E0
0000
0000
0FC0
3960
6670
4C70
DC70
D870
3870
3860
38E0
38E0
39C0
3B80
1F00
ENDCHAR
STARTCHAR multiply
ENCODING 215
SWIDTH 414 0
DWIDTH 7 0
BBX 6 6 1 3
BITMAP
88
DC
70
70
DC
88
ENDCHAR
STARTCHAR Oslash
ENCODING 216
SWIDTH 658 0
DWIDTH 12 0
BBX 11 14 0 -1
BITMAP
0080
0F80
3760
6D60
DD60
D960
3A60
3A60
3AE0
32C0
33C0
3F80
1E00
0400
ENDCHAR
STARTCHAR Ugrave
ENCODING 217
SWIDTH 716 0
DWIDTH 13 0
BBX 14 18 0 0
BITMAP
0180
0080
00C0
0000
0000
0F1C
3618
4E38
CE38
CC38
CC30
1C30
1C70
1870
1860
18E0
1FC0
0F80
ENDCHAR
STARTCHAR Uacute
ENCODING 218
SWIDTH 716 0
DWIDTH 13 0
BBX 14 18 0 0
BITMAP
0070
0060
00C0
0080
0000
0F1C
3618
4E38
CE38
CC38
CC30
1C30
1C70
1870
1860
18E0
1FC0
0F80
ENDCHAR
STARTCHAR Ucircumflex
ENCODING 219
SWIDTH 716 0
DWIDTH 13 0
BBX 14 18 0 0
BITMAP
0020
0060
01A0
0210
0000
0F1C
3618
4E38
CE38
CC38
CC30
1C30
1C70
1870
1860
18E0
1FC0
0F80
ENDCHAR
STARTCHAR Udieresis
ENCODING 220
SWIDTH 716 0
DWIDTH 13 0
BBX 14 17 0 0
BITMAP
01B0
01B0
0000
0000
0F1C
3618
4E38
CE38
CC38
CC30
1C30
1C70
1870
1860
18E0
1FC0
0F80
ENDCHAR
STARTCHAR Yacute
ENCODING 221
SWIDTH 620 0
DWIDTH 11 0
BBX 13 18 0 0
BITMAP
0030
0030
0060
0040
0000
0E18
3710
6720
C720
C760
C3C0
03C0
0380
0380
0380
0300
0700
0700
ENDCHAR
STARTCHAR Thorn
ENCODING 222
SWIDTH 583 0
DWIDTH 11 0
BBX 11 13 0 0
BITMAP
0E00
0E00
1F80
2CC0
4C60
DC60
DCE0
58C0
1980
3F00
3800
3800
3000
ENDCHAR
STARTCHAR germandbls
ENCODING 223
SWIDTH 480 0
DWIDTH 9 0
BBX 10 16 -2 -4
BITMAP
0780
0EC0
0C80
1C80
1D80
1900
1B80
3880
38C0
38C0
3180
3700
7000
7000
6000
E000
ENDCHAR
STARTCHAR agrave
ENCODING 224
SWIDTH 526 0
DWIDTH 9 0
BBX 10 13 0 0
BITMAP
0C00
0C00
0400
0000
1F80
7300
6300
E700
E700
C600
C640
FF80
7700
ENDCHAR
STARTCHAR aacute
ENCODING 225
SWIDTH 526 0
DWIDTH 9 0
BBX 10 13 0 0
BITMAP
0300
0600
0400
0800
1F80
7300
6300
E700
E700
C600
C640
FF80
7700
ENDCHAR
STARTCHAR acircumflex
ENCODING 226
SWIDTH 526 0
DWIDTH 9 0
BBX 10 13 0 0
BITMAP
0200
0700
1900
0000
1F80
7300
6300
E700
E700
C600
C640
FF80
7700
ENDCHAR
STARTCHAR atilde
ENCODING 227
SWIDTH 526 0
DWIDTH 9 0
BBX 10 12 0 0
BITMAP
1F80
2700
0000
1F80
7300
6300
E700
E700
C600
C640
FF80
7700
ENDCHAR
STARTCHAR adieresis
ENCODING 228
SWIDTH 526 0
DWIDTH 9 0
BBX 10 12 0 0
BITMAP
1900
1B80
0000
1F80
7300
6300
E700
E700
C600
C640
FF80
7700
ENDCHAR
STARTCHAR aring
ENCODING 229
SWIDTH 526 0
DWIDTH 9 0
BBX 10 12 0 0
BITMAP
0600
0E00
0000
1F80
7300
6300
E700
E700
C600
C640
FF80
7700
ENDCHAR
STARTCHAR ae
ENCODING 230
SWIDTH 650 0
DWIDTH 12 0
BBX 12 9 0 0
BITMAP
1FE0
67A0
0720
0760
7FC0
E600
CE10
CF20
F7C0
ENDCHAR
STARTCHAR ccedilla
ENCODING 231
SWIDTH 384 0
DWIDTH 7 0
BBX 8 13 0 -4
BITMAP
1C
76
64
E0
E0
E0
C3
E4
78
10
38
08
70
ENDCHAR
STARTCHAR egrave
ENCODING 232
SWIDTH 384 0
DWIDTH 7 0
BBX 8 13 0 0
BITMAP
18
18
08
00
1C
76
64
EC
F8
C1
C2
E4
78
ENDCHAR
STARTCHAR eacute
ENCODING 233
SWIDTH 384 0
DWIDTH 7 0
BBX 8 13 0 0
BITMAP
07
06
0C
00
1C
76
64
EC
F8
C1
C2
E4
78
ENDCHAR
STARTCHAR ecircumflex
ENCODING 234
SWIDTH 384 0
DWIDTH 7 0
BBX 8 13 0 0
BITMAP
04
0E
32
00
1C
76
64
EC
F8
C1
C2
E4
78
ENDCHAR
STARTCHAR edieresis
ENCODING 235
SWIDTH 384 0
DWIDTH 7 0
BBX 8 12 0 0
BITMAP
32
37
00
1C
76
64
EC
F8
C1
C2
E4
78
ENDCHAR
STARTCHAR igrave
ENCODING 236
SWIDTH 267 0
DWIDTH 5 0
BBX 6 13 0 0
BITMAP
60
20
20
00
70
60
60
E0
E0
E4
C8
F8
F0
ENDCHAR
STARTCHAR iacute
ENCODING 237
SWIDTH 267 0
DWIDTH 5 0
BBX 6 13 0 0
BITMAP
1C
10
30
00
70
60
60
E0
E0
E4
C8
F8
F0
ENDCHAR
STARTCHAR icircumflex
ENCODING 238
SWIDTH 267 0
DWIDTH 5 0
BBX 6 13 0 0
BITMAP
10
38
C8
00
70
60
60
E0
E0
E4
C8
F8
F0
ENDCHAR
STARTCHAR idieresis
ENCODING 239
SWIDTH 267 0
DWIDTH 5 0
BBX 6 12 0 0
BITMAP
C8
FC
00
70
60
60
E0
E0
E4
C8
F8
F0
ENDCHAR
STARTCHAR eth
ENCODING 240
SWIDTH 526 0
DWIDTH 9 0
BBX 10 13 0 0
BITMAP
0640
0380
0F00
0300
1F00
7300
6300
E700
E700
C700
C640
EE40
7780
ENDCHAR
STARTCHAR ntilde
ENCODING 241
SWIDTH 505 0
DWIDTH 9 0
BBX 11 12 -1 0
BITMAP
1F40
2780
0000
3F00
3B80
3380
7380
7300
7300
6720
67C0
E380
ENDCHAR
STARTCHAR ograve
ENCODING 242
SWIDTH 433 0
DWIDTH 8 0
BBX 10 13 0 0
BITMAP
1800
0800
0C00
0000
1C00
7600
66C0
E700
E600
C400
C400
C800
7000
ENDCHAR
STARTCHAR oacute
ENCODING 243
SWIDTH 439 0
DWIDTH 8 0
BBX 10 13 0 0
BITMAP
0700
0600
0C00
0000
1C00
7600
6640
E780
E600
E600
C400
EC00
7000
ENDCHAR
STARTCHAR ocircumflex
ENCODING 244
SWIDTH 433 0
DWIDTH 8 0
BBX 10 13 0 0
BITMAP
0400
0C00
3200
0000
1C00
7600
66C0
E700
E600
C400
C400
C800
7000
ENDCHAR
STARTCHAR otilde
ENCODING 245
SWIDTH 433 0
DWIDTH 8 0
BBX 10 12 0 0
BITMAP
3D00
DE00
0000
1C00
7600
66C0
E700
E600
C400
C400
C800
7000
ENDCHAR
STARTCHAR odieresis
ENCODING 246
SWIDTH 433 0
DWIDTH 8 0
BBX 10 12 0 0
BITMAP
3600
3600
0000
1C00
7600
66C0
E700
E600
C400
C400
C800
7000
ENDCHAR
STARTCHAR divide
ENCODING 247
SWIDTH 415 0
DWIDTH 7 0
BBX 6 9 1 2
BITMAP
18
38
18
00
FC
00
20
70
70
ENDCHAR
STARTCHAR oslash
ENCODING 248
SWIDTH 428 0
DWIDTH 8 0
BBX 10 10 -1 -1
BITMAP
0EC0
3B00
3100
7300
7700
7B00
7200
7400
7800
8000
ENDCHAR
STARTCHAR ugrave
ENCODING 249
SWIDTH 505 0
DWIDTH 9 0
BBX 10 13 0 0
BITMAP
1800
0800
0C00
0000
7300
6700
6700
E700
E600
EE00
CE40
FF80
E700
ENDCHAR
STARTCHAR uacute
ENCODING 250
SWIDTH 505 0
DWIDTH 9 0
BBX 10 13 0 0
BITMAP
0300
0600
0C00
0000
7300
6700
6700
E700
E600
EE00
CE40
FF80
E700
ENDCHAR
STARTCHAR ucircumflex
ENCODING 251
SWIDTH 505 0
DWIDTH 9 0
BBX 10 13 0 0
BITMAP
0600
0E00
3300
0000
7300
6700
6700
E700
E600
EE00
CE40
FF80
E700
ENDCHAR
STARTCHAR udieresis
ENCODING 252
SWIDTH 505 0
DWIDTH 9 0
BBX 10 12 0 0
BITMAP
1300
3B00
0000
7300
6700
6700
E700
E600
EE00
CE40
FF80
E700
ENDCHAR
STARTCHAR yacute
ENCODING 253
SWIDTH 505 0
DWIDTH 9 0
BBX 10 17 0 -4
BITMAP
0300
0600
0C00
0000
7300
6700
6700
E700
E600
EE40
CE80
FE80
EF00
3C00
5C00
5C00
7800
ENDCHAR
STARTCHAR thorn
ENCODING 254
SWIDTH 473 0
DWIDTH 9 0
BBX 10 17 -2 -4
BITMAP
0E00
0C00
0C00
1C00
1F80
1DC0
18C0
39C0
39C0
39C0
3180
3380
7E00
7000
7000
6000
E000
ENDCHAR
STARTCHAR ydieresis
ENCODING 255
SWIDTH 505 0
DWIDTH 9 0
BBX 10 16 0 -4
BITMAP
3200
3700
0000
7300
6700
6700
E700
E600
EE40
CE80
FE80
EF00
3C00
5C00
5C00
7800
ENDCHAR
STARTCHAR Amacron
ENCODING 256
SWIDTH 668 0
DWIDTH 12 0
BBX 14 18 0 -2
BITMAP
00FC
0000
0000
0070
00B0
0170
0270
0670
3F60
CCE0
D8E0
18E0
38C0
30C0
31C0
31C0
3000
3000
ENDCHAR
STARTCHAR amacron
ENCODING 257
SWIDTH 526 0
DWIDTH 9 0
BBX 10 12 0 0
BITMAP
1F80
0000
0000
1F80
7300
6300
E700
E700
C600
C640
FF80
7700
ENDCHAR
STARTCHAR Abreve
ENCODING 258
SWIDTH 668 0
DWIDTH 12 0
BBX 15 19 0 -2
BITMAP
00C6
0044
0078
0000
0070
00B0
0170
0270
0670
3F60
CCE0
D8E0
18E0
38C0
30C0
31C0
31C0
3000
3000
ENDCHAR
STARTCHAR abreve
ENCODING 259
SWIDTH 526 0
DWIDTH 9 0
BBX 10 13 0 0
BITMAP
1180
1F00
0000
0000
1F80
7300
6300
E700
E700
C600
C640
FF80
7700
ENDCHAR
STARTCHAR Aogonek
ENCODING 260
SWIDTH 668 0
DWIDTH 12 0
BBX 12 16 0 -3
BITMAP
0070
00B0
0170
0270
0670
3F60
CCE0
D8E0
18E0
38C0
30C0
31C0
31C0
3100
3300
01C0
ENDCHAR
STARTCHAR aogonek
ENCODING 261
SWIDTH 526 0
DWIDTH 9 0
BBX 10 12 0 -3
BITMAP
1F80
7300
6300
E700
E700
C700
C640
EE40
7780
0200
0680
0700
ENDCHAR
STARTCHAR Cacute
ENCODING 262
SWIDTH 497 0
DWIDTH 9 0
BBX 10 18 0 0
BITMAP
01C0
0180
0100
0200
0000
0F80
1C80
38C0
3980
7000
7000
7000
E000
E000
E000
6040
7180
3E00
ENDCHAR
STARTCHAR cacute
ENCODING 263
SWIDTH 384 0
DWIDTH 7 0
BBX 8 13 0 0
BITMAP
03
06
04
08
1C
76
64
E0
E0
C0
C3
E4
78
ENDCHAR
STARTCHAR Ccircumflex
ENCODING 264
SWIDTH 497 0
DWIDTH 9 0
BBX 10 18 0 0
BITMAP
0100
0300
0480
0880
0000
0F80
1C80
38C0
3980
7000
7000
7000
E000
E000
E000
6040
7180
3E00
ENDCHAR
STARTCHAR ccircumflex
ENCODING 265
SWIDTH 384 0
DWIDTH 7 0
BBX 8 13 0 0
BITMAP
04
0E
32
00
1C
76
64
E0
E0
C0
C3
E4
78
ENDCHAR
STARTCHAR Cdotaccent
ENCODING 266
SWIDTH 497 0
DWIDTH 9 0
BBX 10 18 0 0
BITMAP
0180
0180
0180
0000
0000
0F80
1C80
38C0
3980
7000
7000
7000
E000
E000
E000
6040
7180
3E00
ENDCHAR
STARTCHAR cdotaccent
ENCODING 267
SWIDTH 384 0
DWIDTH 7 0
BBX 8 13 0 0
BITMAP
0C
0E
0C
00
1C
76
64
E0
E0
C0
C3
E4
78
ENDCHAR
STARTCHAR Ccaron
ENCODING 268
SWIDTH 497 0
DWIDTH 9 0
BBX 11 18 0 0
BITMAP
0460
0380
0300
0200
0000
0F80
1C80
38C0
3980
7000
7000
7000
E000
E000
E000
6040
7180
3E00
ENDCHAR
STARTCHAR ccaron
ENCODING 269
SWIDTH 384 0
DWIDTH 7 0
BBX 9 13 0 0
BITMAP
0980
0E00
0C00
0000
1C00
7600
6400
E000
E000
C100
C200
EC00
7800
ENDCHAR
STARTCHAR Dcaron
ENCODING 270
SWIDTH 663 0
DWIDTH 12 0
BBX 12 18 0 0
BITMAP
0460
0380
0300
0200
0000
0F80
30E0
6E60
CC60
CC70
DC70
1C60
1C60
1860
38E0
38C0
3980
3700
ENDCHAR
STARTCHAR dcaron
ENCODING 271
SWIDTH 525 0
DWIDTH 9 0
BBX 12 13 0 0
BITMAP
0030
01B0
0390
03A0
1F80
7300
6300
E700
E700
C700
C640
EE40
7780
ENDCHAR
STARTCHAR Dcroat
ENCODING 272
SWIDTH 663 0
DWIDTH 12 0
BBX 12 13 0 0
BITMAP
0F80
30E0
6E60
CC70
DC70
3E70
1C60
1860
1860
38E0
38C0
3980
3700
ENDCHAR
STARTCHAR dcroat
ENCODING 273
SWIDTH 525 0
DWIDTH 9 0
BBX 11 13 0 0
BITMAP
0040
0180
07E0
0380
1F80
7300
6300
E700
E700
C700
C640
EE40
7780
ENDCHAR
STARTCHAR Emacron
ENCODING 274
SWIDTH 459 0
DWIDTH 8 0
BBX 10 17 0 0
BITMAP
0FC0
0000
0000
0000
0F00
1980
1980
3900
1800
1C00
3800
7000
E000
E080
F100
FE00
7C00
ENDCHAR
STARTCHAR emacron
ENCODING 275
SWIDTH 384 0
DWIDTH 7 0
BBX 8 12 0 0
BITMAP
7E
00
00
1C
76
64
EC
F8
C1
C2
E4
78
ENDCHAR
STARTCHAR Ebreve
ENCODING 276
SWIDTH 459 0
DWIDTH 8 0
BBX 11 17 0 0
BITMAP
0C60
0780
0000
0000
0F00
1980
1980
3900
1800
1C00
3800
7000
E000
E080
F100
FE00
7C00
ENDCHAR
STARTCHAR ebreve
ENCODING 277
SWIDTH 384 0
DWIDTH 7 0
BBX 8 13 0 0
BITMAP
63
3C
00
00
1C
76
64
EC
F8
C1
C2
E4
78
ENDCHAR
STARTCHAR Edotaccent
ENCODING 278
SWIDTH 459 0
DWIDTH 8 0
BBX 9 18 0 0
BITMAP
0300
0380
0300
0000
0000
0F00
1980
1980
3900
1800
1C00
3800
7000
E000
E080
F100
FE00
7C00
ENDCHAR
STARTCHAR edotaccent
ENCODING 279
SWIDTH 384 0
DWIDTH 7 0
BBX 8 13 0 0
BITMAP
0C
0E
0C
00
1C
76
64
EC
F8
C1
C2
E4
78
ENDCHAR
STARTCHAR Eogonek
ENCODING 280
SWIDTH 459 0
DWIDTH 8 0
BBX 9 16 0 -3
BITMAP
1F00
3980
3180
3180
3800
1C00
3800
7000
E000
E000
F080
7F00
3C00
0400
0C00
0E00
ENDCHAR
STARTCHAR eogonek
ENCODING 281
SWIDTH 384 0
DWIDTH 7 0
BBX 8 12 0 -3
BITMAP
1C
76
64
EC
F8
C1
C2
FC
78
10
34
38
ENDCHAR
STARTCHAR Ecaron
ENCODING 282
SWIDTH 459 0
DWIDTH 8 0
BBX 11 18 0 0
BITMAP
0460
0380
0300
0200
0000
0F00
1980
1980
3900
1800
1C00
3800
7000
E000
E080
F100
FE00
7C00
ENDCHAR
STARTCHAR ecaron
ENCODING 283
SWIDTH 384 0
DWIDTH 7 0
BBX 9 13 0 0
BITMAP
1980
0E00
0C00
0000
1C00
7600
6400
EC00
F000
C100
C200
E400
7800
ENDCHAR
STARTCHAR Gcircumflex
ENCODING 284
SWIDTH 578 0
DWIDTH 10 0
BBX 10 21 0 -3
BITMAP
0080
0180
0380
0C40
0000
0F80
1CC0
38C0
7000
6000
E0C0
E180
E180
7380
3D80
0380
0300
3B00
6300
6600
3C00
ENDCHAR
STARTCHAR gcircumflex
ENCODING 285
SWIDTH 507 0
DWIDTH 9 0
BBX 10 17 0 -4
BITMAP
0200
0700
1900
0000
1F80
7300
6300
E700
E700
C600
CE40
FE80
7F00
1E00
6C00
5C00
3800
ENDCHAR
STARTCHAR Gbreve
ENCODING 286
SWIDTH 578 0
DWIDTH 10 0
BBX 12 20 0 -3
BITMAP
0630
03C0
0000
0000
0F80
1CC0
38C0
70C0
6000
E000
E1C0
E180
7380
3D80
0380
0300
3B00
6300
6600
3C00
ENDCHAR
STARTCHAR gbreve
ENCODING 287
SWIDTH 507 0
DWIDTH 9 0
BBX 10 17 0 -4
BITMAP
1180
1F00
0000
0000
1F80
7300
6300
E700
E700
C600
CE40
FE80
7F00
1E00
6C00
5C00
3800
ENDCHAR
STARTCHAR Gdotaccent
ENCODING 288
SWIDTH 578 0
DWIDTH 10 0
BBX 10 21 0 -3
BITMAP
0100
0380
0380
0000
0000
0F80
1CC0
38C0
70C0
6000
E000
E1C0
E180
7380
3D80
0380
0300
3B00
6300
6600
3C00
ENDCHAR
STARTCHAR gdotaccent
ENCODING 289
SWIDTH 507 0
DWIDTH 9 0
BBX 10 17 0 -4
BITMAP
0600
0700
0600
0000
1F80
7300
6300
E700
E700
C600
CE40
FE80
7F00
1E00
6C00
5C00
3800
ENDCHAR
STARTCHAR Gcommaaccent
ENCODING 290
SWIDTH 578 0
DWIDTH 10 0
BBX 10 17 0 -4
BITMAP
0F80
1C80
3880
7180
7000
7000
E1C0
E180
E180
E180
E380
7700
3B00
0000
0800
0C00
0800
ENDCHAR
STARTCHAR gcommaaccent
ENCODING 291
SWIDTH 507 0
DWIDTH 9 0
BBX 10 18 0 -4
BITMAP
0200
0400
0600
0400
0000
1F80
7300
6300
E700
E700
C600
CE40
FE80
7F00
1E00
6C00
5C00
3800
ENDCHAR
STARTCHAR Hcircumflex
ENCODING 292
SWIDTH 665 0
DWIDTH 12 0
BBX 12 18 0 0
BITMAP
0020
0060
01A0
0210
0000
1E30
2E30
4E70
CC70
CC60
5FE0
1CE0
1CE0
18E0
18C0
38C0
39C0
31C0
ENDCHAR
STARTCHAR hcircumflex
ENCODING 293
SWIDTH 505 0
DWIDTH 9 0
BBX 11 16 -1 0
BITMAP
0400
0E00
3200
0400
1800
1800
3800
3F00
3B80
3380
7380
7300
7300
6720
6740
E380
ENDCHAR
STARTCHAR Hbar
ENCODING 294
SWIDTH 665 0
DWIDTH 12 0
BBX 13 13 0 0
BITMAP
0E30
3E30
6E70
DFF8
CC60
5FE0
1CE0
1CE0
18E0
18C0
38C0
39C0
31C0
ENDCHAR
STARTCHAR hbar
ENCODING 295
SWIDTH 505 0
DWIDTH 9 0
BBX 11 13 -1 0
BITMAP
0400
1800
7E00
3800
3F00
3B80
3380
3380
7300
7300
6720
67C0
E380
ENDCHAR
STARTCHAR Itilde
ENCODING 296
SWIDTH 375 0
DWIDTH 7 0
BBX 10 17 0 0
BITMAP
0440
1F80
2200
0000
0E00
3E00
4E00
CC00
CC00
DC00
1C00
1800
1800
3800
3800
3800
3000
ENDCHAR
STARTCHAR itilde
ENCODING 297
SWIDTH 267 0
DWIDTH 5 0
BBX 6 12 0 0
BITMAP
74
B8
00
70
60
60
E0
E0
E4
C8
F8
F0
ENDCHAR
STARTCHAR Imacron
ENCODING 298
SWIDTH 375 0
DWIDTH 7 0
BBX 9 16 0 0
BITMAP
1F80
0000
0000
0E00
3E00
4E00
CC00
CC00
DC00
1C00
1800
1800
3800
3800
3800
3000
ENDCHAR
STARTCHAR imacron
ENCODING 299
SWIDTH 267 0
DWIDTH 5 0
BBX 6 12 0 0
BITMAP
F8
00
00
70
60
60
E0
E0
E4
C8
F8
F0
ENDCHAR
STARTCHAR Ibreve
ENCODING 300
SWIDTH 375 0
DWIDTH 7 0
BBX 10 17 0 0
BITMAP
18C0
1980
0F00
0000
0E00
3E00
4E00
CC00
CC00
DC00
1C00
1800
1800
3800
3800
3800
3000
ENDCHAR
STARTCHAR ibreve
ENCODING 301
SWIDTH 267 0
DWIDTH 5 0
BBX 6 13 0 0
BITMAP
4C
78
00
00
70
60
60
E0
E0
E4
C8
F8
F0
ENDCHAR
STARTCHAR Iogonek
ENCODING 302
SWIDTH 375 0
DWIDTH 7 0
BBX 7 22 0 -4
BITMAP
18
08
08
00
00
0E
3E
6E
CC
CC
DC
1C
18
18
38
38
38
30
20
60
68
78
ENDCHAR
STARTCHAR iogonek
ENCODING 303
SWIDTH 267 0
DWIDTH 5 0
BBX 7 16 -1 -4
BITMAP
18
18
18
38
30
30
70
70
72
64
7C
78
40
C0
D0
70
ENDCHAR
STARTCHAR Idotaccent
ENCODING 304
SWIDTH 375 0
DWIDTH 7 0
BBX 8 17 0 0
BITMAP
07
07
06
00
0E
3E
4E
CC
CC
DC
1C
18
18
38
38
38
30
ENDCHAR
STARTCHAR dotlessi
ENCODING 305
SWIDTH 267 0
DWIDTH 5 0
BBX 6 9 0 0
BITMAP
70
60
60
E0
E0
E4
C8
F8
F0
ENDCHAR
STARTCHAR IJ
ENCODING 306
SWIDTH 663 0
DWIDTH 12 0
BBX 12 16 0 -3
BITMAP
0E30
3E70
6E70
CC60
CCE0
DCE0
1CE0
18C0
18C0
39C0
39C0
39C0
3D80
3380
3300
1E00
ENDCHAR
STARTCHAR ij
ENCODING 307
SWIDTH 507 0
DWIDTH 9 0
BBX 10 16 0 -4
BITMAP
3180
3380
3180
7380
6300
6700
E700
E700
E600
C640
FE80
EF00
3E00
4C00
5C00
3800
ENDCHAR
STARTCHAR Jcircumflex
ENCODING 308
SWIDTH 536 0
DWIDTH 10 0
BBX 12 21 0 -3
BITMAP
0020
00E0
01A0
0210
0000
01C0
06C0
0DC0
09C0
1980
0980
0380
0380
0300
0300
0700
0700
7700
C600
CE00
7C00
ENDCHAR
STARTCHAR jcircumflex
ENCODING 309
SWIDTH 240 0
DWIDTH 4 0
BBX 9 17 -4 -4
BITMAP
0100
0380
0C80
0000
0700
0700
0600
0E00
0E00
0E00
0C80
0D00
1E00
3C00
5C00
9800
7000
ENDCHAR
STARTCHAR Kcommaaccent
ENCODING 310
SWIDTH 601 0
DWIDTH 11 0
BBX 12 17 0 -4
BITMAP
0E30
3E40
4EC0
CD80
CF00
5F80
1DC0
19C0
19C0
3980
3980
3B80
31C0
0000
0C00
0400
0400
ENDCHAR
STARTCHAR kcommaaccent
ENCODING 311
SWIDTH 518 0
DWIDTH 9 0
BBX 11 17 -1 -4
BITMAP
0400
1800
1800
3800
39C0
3A00
3600
7F00
7300
7300
6320
67C0
E380
0000
1800
0800
1800
ENDCHAR
STARTCHAR kgreenlandic
ENCODING 312
SWIDTH 518 0
DWIDTH 9 0
BBX 11 9 -1 0
BITMAP
39C0
3A00
3600
7F00
7300
7300
6320
67C0
E380
ENDCHAR
STARTCHAR Lacute
ENCODING 313
SWIDTH 379 0
DWIDTH 7 0
BBX 12 22 0 -4
BITMAP
0180
0300
0600
0000
0000
0E00
3E00
6E00
CC00
CC00
DC00
1C00
1800
1800
3800
3800
3800
3800
0F00
03F0
01F0
00E0
ENDCHAR
STARTCHAR lacute
ENCODING 314
SWIDTH 267 0
DWIDTH 5 0
BBX 6 17 0 0
BITMAP
0C
0C
18
10
08
30
30
70
70
70
60
E0
E0
E4
C8
F8
E0
ENDCHAR
STARTCHAR Lcommaaccent
ENCODING 315
SWIDTH 379 0
DWIDTH 7 0
BBX 12 17 0 -4
BITMAP
0E00
3E00
6E00
CC00
CC00
DC00
1C00
1800
1800
3800
3800
3800
3800
0F00
63F0
21F0
40E0
ENDCHAR
STARTCHAR lcommaaccent
ENCODING 316
SWIDTH 267 0
DWIDTH 5 0
BBX 6 17 0 -4
BITMAP
18
30
30
70
70
70
60
E0
E0
E4
C8
F8
E0
00
C0
C0
80
ENDCHAR
STARTCHAR Lcaron
ENCODING 317
SWIDTH 379 0
DWIDTH 7 0
BBX 12 22 0 -4
BITMAP
04C0
0380
0200
0000
0000
0E00
3E00
6E00
CC00
CC00
DC00
1C00
1800
1800
3800
3800
3800
3800
0F00
03F0
01F0
00E0
ENDCHAR
STARTCHAR lcaron
ENCODING 318
SWIDTH 267 0
DWIDTH 5 0
BBX 7 13 0 0
BITMAP
06
3E
32
74
70
70
60
60
E0
E4
C8
F8
F0
ENDCHAR
STARTCHAR Ldot
ENCODING 319
SWIDTH 605 0
DWIDTH 11 0
BBX 12 17 0 -4
BITMAP
0E00
3E00
6E00
CC00
CC00
DC00
1C00
18C0
19C0
38C0
3800
3800
3800
0F00
03F0
01F0
00E0
ENDCHAR
STARTCHAR ldot
ENCODING 320
SWIDTH 353 0
DWIDTH 6 0
BBX 6 12 0 0
BITMAP
38
30
70
70
60
6C
EC
E0
E0
C0
F0
E0
ENDCHAR
STARTCHAR Lslash
ENCODING 321
SWIDTH 392 0
DWIDTH 7 0
BBX 12 17 0 -4
BITMAP
0E00
3E00
6E00
CC80
CF00
DC00
1C00
3800
1800
3800
3800
3800
3800
0F00
03F0
01F0
00E0
ENDCHAR
STARTCHAR lslash
ENCODING 322
SWIDTH 286 0
DWIDTH 5 0
BBX 7 13 -1 0
BITMAP
0C
18
18
3A
3C
38
30
F0
70
72
64
7C
70
ENDCHAR
STARTCHAR Nacute
ENCODING 323
SWIDTH 702 0
DWIDTH 13 0
BBX 13 18 0 0
BITMAP
0010
0030
0060
0040
0000
1E18
2E18
4F10
CF30
CF30
DB30
1B20
1BA0
13E0
31E0
31E0
31C0
21C0
ENDCHAR
STARTCHAR nacute
ENCODING 324
SWIDTH 505 0
DWIDTH 9 0
BBX 11 13 -1 0
BITMAP
0180
0100
0200
0000
3F00
3B80
3380
7380
7300
7300
6720
67C0
E380
ENDCHAR
STARTCHAR Ncommaaccent
ENCODING 325
SWIDTH 668 0
DWIDTH 12 0
BBX 13 17 0 -4
BITMAP
1E18
2E18
4F10
CF30
CF30
DB30
1B20
1BA0
13E0
31E0
31E0
31C0
21C0
0000
0C00
0400
0C00
ENDCHAR
STARTCHAR ncommaaccent
ENCODING 326
SWIDTH 505 0
DWIDTH 9 0
BBX 11 13 -1 -4
BITMAP
3F00
3B80
3380
7380
7300
7300
6720
6740
E380
0000
1800
1800
1000
ENDCHAR
STARTCHAR Ncaron
ENCODING 327
SWIDTH 668 0
DWIDTH 12 0
BBX 13 18 0 0
BITMAP
0088
00B0
0060
0040
0000
1E18
2E18
4F10
CF30
CF30
DB30
1B20
1BA0
13E0
31E0
31E0
31C0
21C0
ENDCHAR
STARTCHAR ncaron
ENCODING 328
SWIDTH 505 0
DWIDTH 9 0
BBX 11 13 -1 0
BITMAP
0880
0700
0400
0000
3F00
3B80
3380
7380
7300
7300
6720
6740
E380
ENDCHAR
STARTCHAR napostrophe
ENCODING 329
SWIDTH 505 0
DWIDTH 9 0
BBX 11 13 -1 0
BITMAP
3000
3000
2000
0000
3F00
3B80
3380
7380
7300
7300
6720
6740
E380
ENDCHAR
STARTCHAR Eng
ENCODING 330
SWIDTH 723 0
DWIDTH 13 0
BBX 13 17 1 -4
BITMAP
1E18
7E18
4E10
CF30
DF30
DB30
1B20
13E0
13E0
31E0
31C0
31C0
61C0
08C0
1980
1980
0F00
ENDCHAR
STARTCHAR eng
ENCODING 331
SWIDTH 505 0
DWIDTH 9 0
BBX 9 13 -1 -4
BITMAP
3F00
3F80
3380
7300
7300
7300
6700
6700
E600
1E00
2E00
2C00
3C00
ENDCHAR
STARTCHAR Omacron
ENCODING 332
SWIDTH 665 0
DWIDTH 12 0
BBX 12 16 0 0
BITMAP
07E0
0000
0000
0FC0
3960
6670
4C70
DC70
D870
3870
3860
38E0
38E0
39C0
3B80
1F00
ENDCHAR
STARTCHAR omacron
ENCODING 333
SWIDTH 433 0
DWIDTH 8 0
BBX 10 12 0 0
BITMAP
3F00
0000
0000
1C00
7600
66C0
E700
E600
C400
C400
C800
7000
ENDCHAR
STARTCHAR Obreve
ENCODING 334
SWIDTH 665 0
DWIDTH 12 0
BBX 12 17 0 0
BITMAP
0630
03E0
0000
0000
0FC0
3960
6670
4C70
DC70
D870
3870
3860
38E0
38E0
39C0
3B80
1F00
ENDCHAR
STARTCHAR obreve
ENCODING 335
SWIDTH 433 0
DWIDTH 8 0
BBX 10 13 0 0
BITMAP
3100
3300
1E00
0000
1C00
7600
66C0
E700
E600
C400
C400
C800
7000
ENDCHAR
STARTCHAR Ohungarumlaut
ENCODING 336
SWIDTH 665 0
DWIDTH 12 0
BBX 13 18 0 0
BITMAP
00D8
01B0
0120
0000
0000
0FC0
3960
6670
4C70
DC70
D870
3870
3860
38E0
38E0
39C0
3B80
1F00
ENDCHAR
STARTCHAR ohungarumlaut
ENCODING 337
SWIDTH 433 0
DWIDTH 8 0
BBX 10 13 0 0
BITMAP
0D80
1B00
1600
0000
1C00
7600
66C0
E700
E600
C400
C400
C800
7000
ENDCHAR
STARTCHAR OE
ENCODING 338
SWIDTH 846 0
DWIDTH 15 0
BBX 16 13 0 0
BITMAP
07FF
397F
6670
4C70
DC70
D870
387C
3860
3860
38E0
38C0
39FC
1FFC
ENDCHAR
STARTCHAR oe
ENCODING 339
SWIDTH 663 0
DWIDTH 12 0
BBX 13 9 0 0
BITMAP
1CE0
7790
6790
E720
C740
C780
C708
CF30
7BC0
ENDCHAR
STARTCHAR Racute
ENCODING 340
SWIDTH 601 0
DWIDTH 11 0
BBX 11 18 0 0
BITMAP
00C0
0080
0180
0100
0000
0F80
30C0
6E60
CCC0
CCC0
5F80
1DC0
19C0
19C0
3980
3980
3B80
31C0
ENDCHAR
STARTCHAR racute
ENCODING 341
SWIDTH 376 0
DWIDTH 7 0
BBX 8 13 -1 0
BITMAP
03
02
04
00
3F
3F
33
70
70
70
60
60
E0
ENDCHAR
STARTCHAR Rcommaaccent
ENCODING 342
SWIDTH 601 0
DWIDTH 11 0
BBX 11 17 0 -4
BITMAP
0F80
30C0
6E60
CCC0
CCC0
5F80
1DC0
19C0
19C0
3980
3980
3B80
31C0
0000
0C00
0C00
0800
ENDCHAR
STARTCHAR rcommaaccent
ENCODING 343
SWIDTH 376 0
DWIDTH 7 0
BBX 8 13 -1 -4
BITMAP
3F
3F
33
70
70
70
60
60
E0
00
30
30
20
ENDCHAR
STARTCHAR Rcaron
ENCODING 344
SWIDTH 601 0
DWIDTH 11 0
BBX 11 18 0 0
BITMAP
0220
01C0
0180
0100
0000
0F80
30C0
6E60
CCC0
CCC0
5F80
1DC0
19C0
19C0
3980
3980
3B80
31C0
ENDCHAR
STARTCHAR rcaron
ENCODING 345
SWIDTH 376 0
DWIDTH 7 0
BBX 9 13 -1 0
BITMAP
1180
0E00
0800
0000
3F00
3F00
3300
7000
7000
7000
6000
6000
E000
ENDCHAR
STARTCHAR Sacute
ENCODING 346
SWIDTH 570 0
DWIDTH 10 0
BBX 9 18 1 0
BITMAP
0180
0300
0200
0600
0000
1F00
3980
3180
3380
3800
1C00
0E00
2700
F700
C300
C700
CE00
7C00
ENDCHAR
STARTCHAR sacute
ENCODING 347
SWIDTH 382 0
DWIDTH 7 0
BBX 9 13 -1 0
BITMAP
0300
0200
0600
0000
0C00
1C00
1C00
2C00
2E00
4E00
EF80
4E00
7800
ENDCHAR
STARTCHAR Scircumflex
ENCODING 348
SWIDTH 570 0
DWIDTH 10 0
BBX 9 18 1 0
BITMAP
0100
0300
0D00
1080
0000
1F00
3980
3180
3380
3800
1C00
0E00
2700
F700
C300
C700
CE00
7C00
ENDCHAR
STARTCHAR scircumflex
ENCODING 349
SWIDTH 382 0
DWIDTH 7 0
BBX 9 13 -1 0
BITMAP
0600
0E00
1A00
2100
0C00
1C00
1C00
2C00
2E00
4E00
EF80
4E00
7800
ENDCHAR
STARTCHAR Scedilla
ENCODING 350
SWIDTH 570 0
DWIDTH 10 0
BBX 9 17 1 -4
BITMAP
1F00
3980
3180
3380
3800
1C00
0E00
0F00
F700
C300
C700
C600
7C00
1000
3C00
4C00
3800
ENDCHAR
STARTCHAR scedilla
ENCODING 351
SWIDTH 382 0
DWIDTH 7 0
BBX 9 13 -1 -4
BITMAP
1C00
1C00
1C00
2C00
2E00
6E00
CF80
4E00
7800
2000
3800
1800
7000
ENDCHAR
STARTCHAR Scaron
ENCODING 352
SWIDTH 570 0
DWIDTH 10 0
BBX 11 18 1 0
BITMAP
0460
0380
0300
0200
0000
1F00
3980
3180
3380
3800
1C00
0E00
2700
F700
C300
C700
CE00
7C00
ENDCHAR
STARTCHAR scaron
ENCODING 353
SWIDTH 369 0
DWIDTH 7 0
BBX 9 13 -1 0
BITMAP
1980
0E00
0C00
0000
1C00
1C00
1C00
2C00
2E00
6E80
CF00
5E00
7800
ENDCHAR
STARTCHAR uni0162
ENCODING 354
SWIDTH 481 0
DWIDTH 9 0
BBX 13 17 0 -4
BITMAP
1F88
67F8
47F0
C700
C600
CE00
4E00
0E00
0C00
0C00
1C00
1C00
1C00
0800
1C00
2400
1C00
ENDCHAR
STARTCHAR uni0163
ENCODING 355
SWIDTH 267 0
DWIDTH 5 0
BBX 7 16 -1 -4
BITMAP
18
18
38
3C
78
30
30
70
72
64
7C
78
20
70
90
70
ENDCHAR
STARTCHAR Tcaron
ENCODING 356
SWIDTH 481 0
DWIDTH 9 0
BBX 13 18 0 0
BITMAP
0220
02C0
0300
0100
0000
1F88
67F8
47F0
C700
C600
CE00
4E00
0E00
0C00
0C00
1C00
1C00
1C00
ENDCHAR
STARTCHAR tcaron
ENCODING 357
SWIDTH 267 0
DWIDTH 5 0
BBX 7 13 0 0
BITMAP
06
02
36
70
78
F0
60
60
E0
E4
C8
F8
F0
ENDCHAR
STARTCHAR Tbar
ENCODING 358
SWIDTH 481 0
DWIDTH 9 0
BBX 13 13 0 0
BITMAP
1F88
67F8
4770
C700
C600
CE00
0E00
7FC0
0C00
0C00
1C00
1C00
1C00
ENDCHAR
STARTCHAR tbar
ENCODING 359
SWIDTH 267 0
DWIDTH 5 0
BBX 6 12 0 0
BITMAP
30
30
70
78
F0
F8
60
E0
E0
CC
F8
F0
ENDCHAR
STARTCHAR Utilde
ENCODING 360
SWIDTH 716 0
DWIDTH 13 0
BBX 14 17 0 0
BITMAP
0040
03F8
0020
0000
0F1C
3618
4E38
CE38
CC38
CC30
1C30
1C70
1870
1860
18E0
1FC0
0F80
ENDCHAR
STARTCHAR utilde
ENCODING 361
SWIDTH 505 0
DWIDTH 9 0
BBX 10 12 0 0
BITMAP
3E80
4F00
0000
7300
6700
6700
E700
E600
EE00
CE40
FF80
E700
ENDCHAR
STARTCHAR Umacron
ENCODING 362
SWIDTH 716 0
DWIDTH 13 0
BBX 14 16 0 0
BITMAP
01F8
0000
0000
0F1C
3618
4E38
CE38
CC38
CC30
1C30
1C70
1870
1860
18E0
1FC0
0F80
ENDCHAR
STARTCHAR umacron
ENCODING 363
SWIDTH 505 0
DWIDTH 9 0
BBX 10 12 0 0
BITMAP
3F00
0000
0000
7300
6700
6700
E700
E600
EE00
CE40
FF80
E700
ENDCHAR
STARTCHAR Ubreve
ENCODING 364
SWIDTH 716 0
DWIDTH 13 0
BBX 14 17 0 0
BITMAP
0118
01F0
0000
0000
0F1C
3618
4E38
CE38
CC38
CC30
1C30
1C70
1870
1860
18E0
1FC0
0F80
ENDCHAR
STARTCHAR ubreve
ENCODING 365
SWIDTH 505 0
DWIDTH 9 0
BBX 10 13 0 0
BITMAP
3180
1E00
0000
0000
7300
6700
6700
E700
E600
EE00
CE40
FF80
E700
ENDCHAR
STARTCHAR Uring
ENCODING 366
SWIDTH 716 0
DWIDTH 13 0
BBX 14 18 0 0
BITMAP
0060
00A0
00A0
00E0
0000
0F1C
3618
4E38
CE38
CC38
CC30
1C30
1C70
1870
1860
18E0
1FC0
0F80
ENDCHAR
STARTCHAR uring
ENCODING 367
SWIDTH 505 0
DWIDTH 9 0
BBX 10 12 0 0
BITMAP
0C00
0C00
0000
7300
6700
6700
E700
E600
EE00
CE40
FF80
E700
ENDCHAR
STARTCHAR Uhungarumlaut
ENCODING 368
SWIDTH 716 0
DWIDTH 13 0
BBX 14 18 0 0
BITMAP
006C
00D8
00B0
0000
0000
0F1C
3618
4E38
CE38
CC38
CC30
1C30
1C70
1870
1860
18E0
1FC0
0F80
ENDCHAR
STARTCHAR uhungarumlaut
ENCODING 369
SWIDTH 505 0
DWIDTH 9 0
BBX 10 13 0 0
BITMAP
0D80
1B00
1200
0000
7300
6700
6700
E700
E600
EE00
CE40
FF80
E700
ENDCHAR
STARTCHAR Uogonek
ENCODING 370
SWIDTH 716 0
DWIDTH 13 0
BBX 14 22 0 -4
BITMAP
0180
0080
00C0
0000
0000
0F1C
3618
4E38
CE38
CC38
CC30
1C30
1870
1870
1860
18E0
1FC0
0F80
0400
0400
0C80
0700
ENDCHAR
STARTCHAR uogonek
ENCODING 371
SWIDTH 505 0
DWIDTH 9 0
BBX 10 13 0 -4
BITMAP
7300
6700
6700
E700
E600
EE00
CE40
FF80
E700
0400
0400
0C80
0700
ENDCHAR
STARTCHAR Wcircumflex
ENCODING 372
SWIDTH 962 0
DWIDTH 17 0
BBX 19 18 0 0
BITMAP
000400
000C00
001E00
002200
000000
0E1860
3E1840
6E38C0
C63880
C63880
C65900
065900
069900
069A00
069E00
071E00
071C00
071C00
ENDCHAR
STARTCHAR wcircumflex
ENCODING 373
SWIDTH 661 0
DWIDTH 12 0
BBX 12 13 0 0
BITMAP
0100
0380
0480
0800
7360
6730
6710
E720
E620
EE20
CE40
FFC0
E700
ENDCHAR
STARTCHAR Ycircumflex
ENCODING 374
SWIDTH 620 0
DWIDTH 11 0
BBX 13 18 0 0
BITMAP
0020
0060
01A0
0210
0000
0E18
3710
6720
C720
C760
C3C0
03C0
0380
0380
0380
0300
0700
0700
ENDCHAR
STARTCHAR ycircumflex
ENCODING 375
SWIDTH 505 0
DWIDTH 9 0
BBX 10 17 0 -4
BITMAP
0600
0E00
3200
0000
7300
6700
6700
E700
E600
EE40
CE80
FE80
EF00
3C00
5C00
5C00
7800
ENDCHAR
STARTCHAR Ydieresis
ENCODING 376
SWIDTH 620 0
DWIDTH 11 0
BBX 13 17 0 0
BITMAP
01B0
01B0
0000
0000
0E18
3710
6720
C720
C760
C3C0
03C0
0380
0380
0380
0300
0700
0700
ENDCHAR
STARTCHAR Zacute
ENCODING 377
SWIDTH 542 0
DWIDTH 10 0
BBX 10 18 0 0
BITMAP
00C0
0080
0180
0100
0000
3FC0
2380
3380
0700
0700
0E00
0E00
1C00
1C00
3800
3180
7180
FF00
ENDCHAR
STARTCHAR zacute
ENCODING 378
SWIDTH 428 0
DWIDTH 8 0
BBX 8 13 0 0
BITMAP
03
06
0C
00
3F
6E
6C
1C
18
38
72
66
FC
ENDCHAR
STARTCHAR Zdotaccent
ENCODING 379
SWIDTH 530 0
DWIDTH 10 0
BBX 10 17 0 0
BITMAP
0200
0700
0000
0000
3FC0
2380
3380
0700
0700
0E00
0E00
1C00
1C00
3800
3180
7180
FF00
ENDCHAR
STARTCHAR zdotaccent
ENCODING 380
SWIDTH 428 0
DWIDTH 8 0
BBX 8 12 0 0
BITMAP
0C
0C
00
3F
6E
6C
1C
18
38
72
66
FC
ENDCHAR
STARTCHAR Zcaron
ENCODING 381
SWIDTH 542 0
DWIDTH 10 0
BBX 11 18 0 0
BITMAP
0420
02C0
0300
0200
0000
3FC0
2380
3380
0700
0700
0E00
0E00
1C00
1C00
3800
3180
7180
FF00
ENDCHAR
STARTCHAR zcaron
ENCODING 382
SWIDTH 428 0
DWIDTH 8 0
BBX 9 13 0 0
BITMAP
1180
0E00
0800
0000
3F00
6E00
6C00
1C00
1800
3800
7200
6600
FC00
ENDCHAR
STARTCHAR longs
ENCODING 383
SWIDTH 267 0
DWIDTH 5 0
BBX 11 17 -4 -4
BITMAP
01C0
03A0
0300
0700
0F00
0600
0600
0600
0E00
0E00
0C00
0C00
1C00
7C00
D800
9800
7000
ENDCHAR
STARTCHAR uni018F
ENCODING 399
SWIDTH 544 0
DWIDTH 10 0
BBX 10 13 0 0
BITMAP
1F00
3F80
2380
01C0
01C0
0FC0
1B80
3380
6380
E700
E700
6E00
7800
ENDCHAR
STARTCHAR florin
ENCODING 402
SWIDTH 267 0
DWIDTH 5 0
BBX 13 17 -5 -4
BITMAP
0078
00D8
01D0
0180
07E0
0380
0380
0300
0700
0700
0600
0600
0E00
0C00
6C00
D800
7000
ENDCHAR
STARTCHAR Ohorn
ENCODING 416
SWIDTH 665 0
DWIDTH 12 0
BBX 13 16 0 0
BITMAP
0008
0018
0018
0FD0
3970
6660
4C70
DC70
D870
3870
3860
38E0
38E0
39C0
3B80
1F00
ENDCHAR
STARTCHAR ohorn
ENCODING 417
SWIDTH 439 0
DWIDTH 8 0
BBX 9 12 0 0
BITMAP
0080
0180
0180
1D00
7600
6200
E200
E600
E600
C400
EC00
7000
ENDCHAR
STARTCHAR Uhorn
ENCODING 431
SWIDTH 716 0
DWIDTH 13 0
BBX 16 17 0 0
BITMAP
0002
0003
0002
0002
0F1C
3618
4E38
CE38
CC38
CC30
1C30
1C70
1870
1860
18E0
1FC0
0F80
ENDCHAR
STARTCHAR uhorn
ENCODING 432
SWIDTH 505 0
DWIDTH 9 0
BBX 10 12 0 0
BITMAP
00C0
00C0
0080
7300
6700
6700
E700
E600
EE00
CE40
FF80
E700
ENDCHAR
STARTCHAR uni01B7
ENCODING 439
SWIDTH 555 0
DWIDTH 10 0
BBX 10 13 0 0
BITMAP
3FC0
3180
3300
0700
0E00
0E00
1700
0380
0380
6380
C380
C700
7C00
ENDCHAR
STARTCHAR uni01CD
ENCODING 461
SWIDTH 668 0
DWIDTH 12 0
BBX 15 20 0 -2
BITMAP
0022
003C
0018
0010
0000
0070
00B0
0170
0270
0670
3F60
CCE0
D8E0
18E0
38C0
30C0
31C0
31C0
3000
3000
ENDCHAR
STARTCHAR uni01CE
ENCODING 462
SWIDTH 526 0
DWIDTH 9 0
BBX 10 13 0 0
BITMAP
08C0
0700
0400
0000
1F80
7300
6300
E700
E700
C600
C640
FF80
7700
ENDCHAR
STARTCHAR uni01CF
ENCODING 463
SWIDTH 375 0
DWIDTH 7 0
BBX 10 18 0 0
BITMAP
0440
0580
0700
0200
0000
0E00
3E00
4E00
CC00
CC00
DC00
1C00
1800
1800
3800
3800
3800
3000
ENDCHAR
STARTCHAR uni01D0
ENCODING 464
SWIDTH 267 0
DWIDTH 5 0
BBX 7 13 0 0
BITMAP
46
38
20
00
70
60
60
E0
E0
E4
C8
F8
F0
ENDCHAR
STARTCHAR uni01D1
ENCODING 465
SWIDTH 665 0
DWIDTH 12 0
BBX 13 18 0 0
BITMAP
0118
00E0
00C0
0080
0000
0FC0
3960
6670
4C70
DC70
D870
3870
3860
38E0
38E0
39C0
3B80
1F00
ENDCHAR
STARTCHAR uni01D2
ENCODING 466
SWIDTH 433 0
DWIDTH 8 0
BBX 10 13 0 0
BITMAP
1180
0E00
0800
0000
1C00
7600
66C0
E700
E600
C400
CC00
F800
7000
ENDCHAR
STARTCHAR uni01D3
ENCODING 467
SWIDTH 716 0
DWIDTH 13 0
BBX 14 18 0 0
BITMAP
008C
0070
0060
0040
0000
0F1C
3618
4E38
CE38
CC38
CC30
1C30
1C70
1870
1860
18E0
1FC0
0F80
ENDCHAR
STARTCHAR uni01D4
ENCODING 468
SWIDTH 505 0
DWIDTH 9 0
BBX 10 13 0 0
BITMAP
0980
0E00
0C00
0000
7300
6700
6700
E700
E600
EE00
CE40
FF80
E700
ENDCHAR
STARTCHAR uni01D5
ENCODING 469
SWIDTH 716 0
DWIDTH 13 0
BBX 14 18 0 0
BITMAP
01F8
0000
0198
0198
0000
0F1C
3618
4E38
CE38
CC38
CC30
1C30
1C70
1870
1860
18E0
1FC0
0F80
ENDCHAR
STARTCHAR uni01D6
ENCODING 470
SWIDTH 505 0
DWIDTH 9 0
BBX 10 15 0 0
BITMAP
1F80
0000
0000
1300
3B00
0000
7300
6700
6700
E700
E600
EE00
CE40
FF80
E700
ENDCHAR
STARTCHAR uni01D7
ENCODING 471
SWIDTH 716 0
DWIDTH 13 0
BBX 14 18 0 0
BITMAP
0030
0368
035C
0080
0000
0F1C
3618
4E38
CE38
CC38
CC30
1C30
1C70
1870
1860
18E0
1FC0
0F80
ENDCHAR
STARTCHAR uni01D8
ENCODING 472
SWIDTH 505 0
DWIDTH 9 0
BBX 10 17 0 0
BITMAP
0300
0200
0600
0400
0000
1300
3B00
0000
7300
6700
6700
E700
E600
EE00
CE40
FF80
E700
ENDCHAR
STARTCHAR uni01D9
ENCODING 473
SWIDTH 716 0
DWIDTH 13 0
BBX 14 18 0 0
BITMAP
0098
0368
035C
0000
0000
0F1C
3618
4E38
CE38
CC38
CC30
1C30
1C70
1870
1860
18E0
1FC0
0F80
ENDCHAR
STARTCHAR uni01DA
ENCODING 474
SWIDTH 505 0
DWIDTH 9 0
BBX 10 17 0 0
BITMAP
0880
0900
0600
0400
0000
1300
3B00
0000
7300
6700
6700
E700
E600
EE00
CE40
FF80
E700
ENDCHAR
STARTCHAR uni01DB
ENCODING 475
SWIDTH 716 0
DWIDTH 13 0
BBX 14 18 0 0
BITMAP
00C0
0368
037C
0000
0000
0F1C
3618
4E38
CE38
CC38
CC30
1C30
1C70
1870
1860
18E0
1FC0
0F80
ENDCHAR
STARTCHAR uni01DC
ENCODING 476
SWIDTH 505 0
DWIDTH 9 0
BBX 10 17 0 0
BITMAP
1800
0C00
0C00
0000
0000
1300
3B00
0000
7300
6700
6700
E700
E600
EE00
CE40
FF80
E700
ENDCHAR
STARTCHAR uni01E4
ENCODING 484
SWIDTH 601 0
DWIDTH 11 0
BBX 11 16 0 -3
BITMAP
0F80
1CC0
38C0
7080
6000
E0C0
E7E0
E180
7380
3D80
0380
0300
3B00
6300
6600
3C00
ENDCHAR
STARTCHAR uni01E5
ENCODING 485
SWIDTH 507 0
DWIDTH 9 0
BBX 10 13 0 -4
BITMAP
1F80
7300
6300
E700
E700
C600
CE40
FE80
7F00
3E00
FF00
5C00
3800
ENDCHAR
STARTCHAR Gcaron
ENCODING 486
SWIDTH 578 0
DWIDTH 10 0
BBX 12 21 0 -3
BITMAP
0230
01C0
0180
0100
0000
0F80
1CC0
38C0
70C0
6000
E000
E1C0
E180
7380
3D80
0380
0300
3B00
6300
6600
3C00
ENDCHAR
STARTCHAR gcaron
ENCODING 487
SWIDTH 507 0
DWIDTH 9 0
BBX 10 17 0 -4
BITMAP
08C0
0700
0400
0000
1F80
7300
6300
E700
E700
C600
CE40
FE80
7F00
1E00
6C00
5C00
3800
ENDCHAR
STARTCHAR uni01E8
ENCODING 488
SWIDTH 601 0
DWIDTH 11 0
BBX 13 19 0 0
BITMAP
0108
00B0
00E0
00C0
0000
0000
0E30
3E40
4EC0
CD80
CF00
5F80
1DC0
19C0
19C0
3980
3980
3B80
31C0
ENDCHAR
STARTCHAR uni01E9
ENCODING 489
SWIDTH 518 0
DWIDTH 9 0
BBX 11 17 -1 0
BITMAP
0420
02C0
0380
0100
0400
1800
1800
3800
39C0
3A00
3600
7F00
7300
7300
6320
67C0
E380
ENDCHAR
STARTCHAR uni01EA
ENCODING 490
SWIDTH 665 0
DWIDTH 12 0
BBX 12 22 0 -4
BITMAP
0600
0200
0300
0000
0000
0FC0
3960
6670
4C70
DC70
D870
3870
3860
38E0
38E0
39C0
3B80
1F00
0800
1800
1A00
1E00
ENDCHAR
STARTCHAR uni01EB
ENCODING 491
SWIDTH 433 0
DWIDTH 8 0
BBX 10 13 0 -4
BITMAP
1C00
7600
66C0
E700
E600
C400
C400
C800
7000
4000
C000
D000
7000
ENDCHAR
STARTCHAR uni01EE
ENCODING 494
SWIDTH 525 0
DWIDTH 9 0
BBX 10 18 0 0
BITMAP
0440
0480
0300
0200
0000
3FC0
3180
3300
0700
0E00
0E00
1700
0380
0380
6380
C380
C700
7C00
ENDCHAR
STARTCHAR uni01EF
ENCODING 495
SWIDTH 600 0
DWIDTH 11 0
BBX 9 18 0 -4
BITMAP
1080
0B00
0C00
0800
0000
7E00
4C00
5C00
1800
3800
3000
3880
1900
1E00
3800
D800
B800
F000
ENDCHAR
STARTCHAR uni01F4
ENCODING 500
SWIDTH 578 0
DWIDTH 10 0
BBX 10 21 0 -3
BITMAP
00C0
0080
0180
0100
0000
0F80
1CC0
38C0
7000
6000
E0C0
E180
E180
7380
3D80
0380
0300
3B00
6300
6600
3C00
ENDCHAR
STARTCHAR uni01F5
ENCODING 501
SWIDTH 507 0
DWIDTH 9 0
BBX 10 17 0 -4
BITMAP
0300
0600
0400
0800
1F80
7300
6300
E700
E700
C600
CE40
FE80
7F00
1E00
6C00
5C00
3800
ENDCHAR
STARTCHAR Aringacute
ENCODING 506
SWIDTH 668 0
DWIDTH 12 0
BBX 14 20 0 -2
BITMAP
000C
0008
0030
0028
0038
0070
00B0
0170
0270
0660
3F60
CCE0
D8E0
18E0
38C0
30C0
31C0
31C0
3000
3000
ENDCHAR
STARTCHAR aringacute
ENCODING 507
SWIDTH 526 0
DWIDTH 9 0
BBX 10 15 0 0
BITMAP
0300
0200
0600
0A00
0E00
0000
1F80
7300
6300
E700
E700
C600
C640
FF80
7700
ENDCHAR
STARTCHAR AEacute
ENCODING 508
SWIDTH 764 0
DWIDTH 14 0
BBX 16 20 0 -2
BITMAP
0006
0004
0008
0010
0000
0079
00BF
0170
0270
0670
3E60
EDFC
D8E0
18E0
38C0
30C0
31FC
31FC
3000
3000
ENDCHAR
STARTCHAR aeacute
ENCODING 509
SWIDTH 650 0
DWIDTH 12 0
BBX 12 13 0 0
BITMAP
00E0
0080
0180
0000
1FE0
67A0
0720
0760
7FC0
E600
CE10
CF20
F7C0
ENDCHAR
STARTCHAR Oslashacute
ENCODING 510
SWIDTH 658 0
DWIDTH 12 0
BBX 11 19 0 -1
BITMAP
0060
0040
00C0
0080
0000
0080
0F80
3760
6D60
DD60
D960
3A60
3A60
3AE0
32C0
33C0
3F80
1E00
0400
ENDCHAR
STARTCHAR oslashacute
ENCODING 511
SWIDTH 428 0
DWIDTH 8 0
BBX 10 14 -1 -1
BITMAP
0180
0300
0600
0000
0EC0
3B00
3100
7300
7700
7B00
7200
7400
7800
8000
ENDCHAR
STARTCHAR uni0200
ENCODING 512
SWIDTH 668 0
DWIDTH 12 0
BBX 13 20 0 -2
BITMAP
0360
00B0
00D8
0000
0000
0070
00B0
0170
0270
0670
3F60
CCE0
D8E0
18E0
38C0
30C0
31C0
31C0
3000
3000
ENDCHAR
STARTCHAR uni0201
ENCODING 513
SWIDTH 526 0
DWIDTH 9 0
BBX 10 13 0 0
BITMAP
6C00
1600
1B00
0000
1F80
7300
6300
E700
E700
C600
C640
FF80
7700
ENDCHAR
STARTCHAR uni0202
ENCODING 514
SWIDTH 668 0
DWIDTH 12 0
BBX 15 19 0 -2
BITMAP
003C
0044
00C6
0000
0070
00B0
0170
0270
0670
3F60
CCE0
D8E0
18E0
38C0
30C0
31C0
31C0
3000
3000
ENDCHAR
STARTCHAR uni0203
ENCODING 515
SWIDTH 526 0
DWIDTH 9 0
BBX 10 12 0 0
BITMAP
0F00
3180
0000
1F80
7300
6300
E700
E700
C600
C640
FF80
7700
ENDCHAR
STARTCHAR uni0204
ENCODING 516
SWIDTH 459 0
DWIDTH 8 0
BBX 9 18 0 0
BITMAP
3600
1B00
0900
0000
0000
0F00
1980
1980
3900
1800
1C00
3800
7000
E000
E080
F100
FE00
7C00
ENDCHAR
STARTCHAR uni0205
ENCODING 517
SWIDTH 384 0
DWIDTH 7 0
BBX 8 13 0 0
BITMAP
D8
6C
36
00
1C
76
64
EC
F8
C1
C2
EC
78
ENDCHAR
STARTCHAR uni0206
ENCODING 518
SWIDTH 459 0
DWIDTH 8 0
BBX 10 17 0 0
BITMAP
0780
0CC0
0840
0000
0F00
1980
1980
3900
1800
1C00
3800
7000
E000
E080
F100
FE00
7C00
ENDCHAR
STARTCHAR uni0207
ENCODING 519
SWIDTH 384 0
DWIDTH 7 0
BBX 8 12 0 0
BITMAP
3E
62
00
1C
76
64
EC
F8
C1
C2
E4
78
ENDCHAR
STARTCHAR uni0208
ENCODING 520
SWIDTH 375 0
DWIDTH 7 0
BBX 8 18 0 0
BITMAP
6C
36
1B
00
00
1E
2E
4E
CC
CC
DC
1C
18
18
38
38
38
30
ENDCHAR
STARTCHAR uni0209
ENCODING 521
SWIDTH 267 0
DWIDTH 5 0
BBX 8 13 -2 0
BITMAP
D8
6C
36
00
1C
18
18
38
38
39
32
3E
3C
ENDCHAR
STARTCHAR uni020A
ENCODING 522
SWIDTH 375 0
DWIDTH 7 0
BBX 9 17 0 0
BITMAP
0F00
1980
3180
0000
0E00
3E00
4E00
CC00
CC00
DC00
1C00
1800
1800
3800
3800
3800
3000
ENDCHAR
STARTCHAR uni020B
ENCODING 523
SWIDTH 267 0
DWIDTH 5 0
BBX 6 12 0 0
BITMAP
78
C8
00
70
60
60
E0
E0
E4
C8
F8
F0
ENDCHAR
STARTCHAR uni020C
ENCODING 524
SWIDTH 665 0
DWIDTH 12 0
BBX 12 18 0 0
BITMAP
1F00
0480
02C0
0000
0000
0FC0
3960
6670
4C70
DC70
D870
3870
3860
38E0
38E0
39C0
3B80
1F00
ENDCHAR
STARTCHAR uni020D
ENCODING 525
SWIDTH 433 0
DWIDTH 8 0
BBX 10 13 0 0
BITMAP
D800
6C00
3600
0000
1C00
7600
66C0
E700
E600
C400
CC00
F800
7000
ENDCHAR
STARTCHAR uni020E
ENCODING 526
SWIDTH 665 0
DWIDTH 12 0
BBX 12 17 0 0
BITMAP
01E0
0330
0630
0000
0FC0
3960
6670
4C70
DC70
D870
3870
3860
38E0
38E0
39C0
3B80
1F00
ENDCHAR
STARTCHAR uni020F
ENCODING 527
SWIDTH 433 0
DWIDTH 8 0
BBX 10 12 0 0
BITMAP
1E00
6300
0000
1C00
7600
66C0
E700
E600
C400
C400
C800
7000
ENDCHAR
STARTCHAR uni0210
ENCODING 528
SWIDTH 601 0
DWIDTH 11 0
BBX 11 18 0 0
BITMAP
3600
1B00
0D80
0000
0000
0F80
30C0
6E60
CCC0
CCC0
5F80
1DC0
19C0
19C0
3980
3980
3B80
31C0
ENDCHAR
STARTCHAR uni0211
ENCODING 529
SWIDTH 376 0
DWIDTH 7 0
BBX 8 13 -1 0
BITMAP
F8
24
36
00
3F
3F
33
70
70
70
60
60
E0
ENDCHAR
STARTCHAR uni0212
ENCODING 530
SWIDTH 601 0
DWIDTH 11 0
BBX 11 17 0 0
BITMAP
0780
0CC0
0840
0000
0F80
30C0
6E60
CCC0
CCC0
5F80
1DC0
19C0
19C0
3980
3980
3B80
31C0
ENDCHAR
STARTCHAR uni0213
ENCODING 531
SWIDTH 376 0
DWIDTH 7 0
BBX 9 12 -1 0
BITMAP
1F00
3100
0080
3F00
3F00
3300
7000
7000
7000
6000
6000
E000
ENDCHAR
STARTCHAR uni0214
ENCODING 532
SWIDTH 716 0
DWIDTH 13 0
BBX 14 18 0 0
BITMAP
06C0
0360
0120
0000
0000
0F1C
3618
4E38
CE38
CC38
CC30
1C30
1C70
1870
1860
18E0
1FC0
0F80
ENDCHAR
STARTCHAR uni0215
ENCODING 533
SWIDTH 505 0
DWIDTH 9 0
BBX 10 13 0 0
BITMAP
F800
2400
3600
0000
7300
6700
6700
E700
E600
EE00
CE40
FF80
E700
ENDCHAR
STARTCHAR uni0216
ENCODING 534
SWIDTH 716 0
DWIDTH 13 0
BBX 14 17 0 0
BITMAP
00F0
0198
0318
0000
0F1C
3618
4E38
CE38
CC38
CC30
1C30
1C70
1870
1860
18E0
1FC0
0F80
ENDCHAR
STARTCHAR uni0217
ENCODING 535
SWIDTH 505 0
DWIDTH 9 0
BBX 10 12 0 0
BITMAP
1E00
3300
0000
7300
6700
6700
E700
E600
EE00
CE40
FF80
E700
ENDCHAR
STARTCHAR Scommaaccent
ENCODING 536
SWIDTH 570 0
DWIDTH 10 0
BBX 9 17 1 -4
BITMAP
1F00
3980
3180
3380
3800
1C00
0E00
2700
F700
C300
C700
CE00
7C00
0000
3000
3000
2000
ENDCHAR
STARTCHAR scommaaccent
ENCODING 537
SWIDTH 382 0
DWIDTH 7 0
BBX 9 14 -1 -4
BITMAP
0400
1C00
1C00
2C00
2E00
2E00
6E80
CF00
4C00
7800
0000
3000
3000
2000
ENDCHAR
STARTCHAR uni021A
ENCODING 538
SWIDTH 481 0
DWIDTH 9 0
BBX 13 17 0 -4
BITMAP
1F88
67F8
47F0
C700
C600
CE00
4E00
0E00
0C00
0C00
1C00
1C00
1C00
0000
1800
1800
1000
ENDCHAR
STARTCHAR uni021B
ENCODING 539
SWIDTH 267 0
DWIDTH 5 0
BBX 6 16 0 -4
BITMAP
30
30
70
78
F0
60
60
E0
E4
C8
F8
F0
00
C0
C0
80
ENDCHAR
STARTCHAR uni021E
ENCODING 542
SWIDTH 665 0
DWIDTH 12 0
BBX 13 19 0 0
BITMAP
0108
00B0
00E0
00C0
0000
0000
1E30
2E30
4E70
CC70
CC60
5FE0
1CE0
1CE0
18E0
18C0
38C0
39C0
31C0
ENDCHAR
STARTCHAR uni021F
ENCODING 543
SWIDTH 600 0
DWIDTH 11 0
BBX 11 17 -1 0
BITMAP
0220
0240
0180
0100
0400
1800
1800
3800
3F00
3B80
3380
7380
7300
7300
6720
6740
E380
ENDCHAR
STARTCHAR uni0237
ENCODING 567
SWIDTH 240 0
DWIDTH 4 0
BBX 9 13 -4 -4
BITMAP
0700
0700
0600
0E00
0E00
0E00
0C80
0D00
1E00
3C00
5C00
9800
7000
ENDCHAR
STARTCHAR uni0259
ENCODING 601
SWIDTH 404 0
DWIDTH 7 0
BBX 7 9 0 0
BITMAP
3C
4E
0E
3E
6E
CC
DC
D8
70
ENDCHAR
STARTCHAR uni0292
ENCODING 658
SWIDTH 442 0
DWIDTH 8 0
BBX 9 13 0 -4
BITMAP
7E00
4C00
5C00
1800
3800
3000
3880
1900
1E00
3800
D800
B800
F000
ENDCHAR
STARTCHAR uni02BB
ENCODING 699
SWIDTH 241 0
DWIDTH 4 0
BBX 3 4 2 9
BITMAP
60
40
E0
C0
ENDCHAR
STARTCHAR uni02BC
ENCODING 700
SWIDTH 228 0
DWIDTH 4 0
BBX 2 4 3 10
BITMAP
C0
C0
80
80
ENDCHAR
STARTCHAR circumflex
ENCODING 710
SWIDTH 293 0
DWIDTH 5 0
BBX 5 4 0 10
BITMAP
10
18
38
C8
ENDCHAR
STARTCHAR caron
ENCODING 711
SWIDTH 294 0
DWIDTH 5 0
BBX 5 4 2 10
BITMAP
88
B0
E0
40
ENDCHAR
STARTCHAR uni02C9
ENCODING 713
SWIDTH 421 0
DWIDTH 8 0
BBX 6 1 2 11
BITMAP
FC
ENDCHAR
STARTCHAR uni02CA
ENCODING 714
SWIDTH 256 0
DWIDTH 5 0
BBX 4 4 2 10
BITMAP
30
60
40
80
ENDCHAR
STARTCHAR uni02CB
ENCODING 715
SWIDTH 274 0
DWIDTH 5 0
BBX 2 3 3 10
BITMAP
C0
40
40
ENDCHAR
STARTCHAR breve
ENCODING 728
SWIDTH 431 0
DWIDTH 8 0
BBX 7 3 1 10
BITMAP
C6
C4
78
ENDCHAR
STARTCHAR dotaccent
ENCODING 729
SWIDTH 250 0
DWIDTH 5 0
BBX 3 3 1 11
BITMAP
40
E0
E0
ENDCHAR
STARTCHAR ring
ENCODING 730
SWIDTH 156 0
DWIDTH 3 0
BBX 3 3 0 10
BITMAP
60
A0
E0
ENDCHAR
STARTCHAR ogonek
ENCODING 731
SWIDTH 291 0
DWIDTH 5 0
BBX 4 4 1 -4
BITMAP
60
80
90
E0
ENDCHAR
STARTCHAR tilde
ENCODING 732
SWIDTH 403 0
DWIDTH 7 0
BBX 7 2 1 10
BITMAP
7E
FC
ENDCHAR
STARTCHAR hungarumlaut
ENCODING 733
SWIDTH 436 0
DWIDTH 8 0
BBX 6 3 2 10
BITMAP
6C
D8
B0
ENDCHAR
STARTCHAR gravecomb
ENCODING 768
SWIDTH 0 0
DWIDTH 0 0
BBX 2 3 -3 10
BITMAP
C0
40
40
ENDCHAR
STARTCHAR acutecomb
ENCODING 769
SWIDTH 0 0
DWIDTH 0 0
BBX 4 4 -4 10
BITMAP
30
20
60
C0
ENDCHAR
STARTCHAR uni0302
ENCODING 770
SWIDTH 0 0
DWIDTH 0 0
BBX 5 4 -5 10
BITMAP
08
18
38
C8
ENDCHAR
STARTCHAR tildecomb
ENCODING 771
SWIDTH 0 0
DWIDTH 0 0
BBX 8 2 -7 10
BITMAP
3F
FC
ENDCHAR
STARTCHAR uni0304
ENCODING 772
SWIDTH 0 0
DWIDTH 0 0
BBX 6 1 -5 11
BITMAP
FC
ENDCHAR
STARTCHAR uni0306
ENCODING 774
SWIDTH 0 0
DWIDTH 0 0
BBX 7 3 -6 10
BITMAP
C6
C4
78
ENDCHAR
STARTCHAR uni0307
ENCODING 775
SWIDTH 0 0
DWIDTH 0 0
BBX 3 3 -2 11
BITMAP
C0
E0
C0
ENDCHAR
STARTCHAR uni0308
ENCODING 776
SWIDTH 0 0
DWIDTH 0 0
BBX 6 2 -5 10
BITMAP
DC
C8
ENDCHAR
STARTCHAR hookabovecomb
ENCODING 777
SWIDTH 0 0
DWIDTH 0 0
BBX 4 4 -4 10
BITMAP
E0
B0
20
40
ENDCHAR
STARTCHAR uni030A
ENCODING 778
SWIDTH 0 0
DWIDTH 0 0
BBX 3 3 -2 10
BITMAP
C0
A0
C0
ENDCHAR
STARTCHAR uni030B
ENCODING 779
SWIDTH 0 0
DWIDTH 0 0
BBX 6 3 -5 10
BITMAP
6C
D8
B0
ENDCHAR
STARTCHAR uni030C
ENCODING 780
SWIDTH 0 0
DWIDTH 0 0
BBX 5 4 -4 10
BITMAP
88
B0
E0
40
ENDCHAR
STARTCHAR uni030F
ENCODING 783
SWIDTH 0 0
DWIDTH 0 0
BBX 6 3 -6 10
BITMAP
D8
68
24
ENDCHAR
STARTCHAR uni0311
ENCODING 785
SWIDTH 0 0
DWIDTH 0 0
BBX 6 3 -6 10
BITMAP
38
CC
84
ENDCHAR
STARTCHAR uni031B
ENCODING 795
SWIDTH 0 0
DWIDTH 0 0
BBX 2 4 -2 8
BITMAP
40
40
40
80
ENDCHAR
STARTCHAR dotbelowcomb
ENCODING 803
SWIDTH 0 0
DWIDTH 0 0
BBX 3 3 -3 -4
BITMAP
C0
E0
C0
ENDCHAR
STARTCHAR uni0324
ENCODING 804
SWIDTH 0 0
DWIDTH 0 0
BBX 6 2 -8 -4
BITMAP
DC
C8
ENDCHAR
STARTCHAR uni0326
ENCODING 806
SWIDTH 0 0
DWIDTH 0 0
BBX 2 3 -4 -4
BITMAP
C0
C0
80
ENDCHAR
STARTCHAR uni0327
ENCODING 807
SWIDTH 0 0
DWIDTH 0 0
BBX 5 4 -7 -4
BITMAP
20
70
18
F0
ENDCHAR
STARTCHAR uni0328
ENCODING 808
SWIDTH 0 0
DWIDTH 0 0
BBX 4 4 -6 -4
BITMAP
40
80
90
E0
ENDCHAR
STARTCHAR uni032E
ENCODING 814
SWIDTH 0 0
DWIDTH 0 0
BBX 6 2 -8 -3
BITMAP
CC
70
ENDCHAR
STARTCHAR uni0331
ENCODING 817
SWIDTH 0 0
DWIDTH 0 0
BBX 6 1 -8 -3
BITMAP
FC
ENDCHAR
STARTCHAR uni0335
ENCODING 821
SWIDTH 0 0
DWIDTH 0 0
BBX 6 1 -7 4
BITMAP
FC
ENDCHAR
STARTCHAR uni0394
ENCODING 916
SWIDTH 619 0
DWIDTH 11 0
BBX 11 13 0 0
BITMAP
0180
0380
02C0
06C0
04C0
0CC0
18C0
10C0
3040
2060
6060
C060
FFE0
ENDCHAR
STARTCHAR uni03A9
ENCODING 937
SWIDTH 745 0
DWIDTH 13 0
BBX 13 14 0 0
BITMAP
0080
07E0
0C30
1810
1018
3018
2018
2010
2030
2020
2060
3040
1880
F9F0
ENDCHAR
STARTCHAR uni03BC
ENCODING 956
SWIDTH 505 0
DWIDTH 9 0
BBX 11 12 -1 -3
BITMAP
3980
3380
3380
7380
7300
7300
6720
7FC0
F380
E000
E000
C000
ENDCHAR
STARTCHAR pi
ENCODING 960
SWIDTH 530 0
DWIDTH 10 0
BBX 10 9 0 0
BITMAP
FFC0
6200
6200
6200
4600
4600
C400
C400
8600
ENDCHAR
STARTCHAR uni0400
ENCODING 1024
SWIDTH 459 0
DWIDTH 8 0
BBX 9 17 0 0
BITMAP
0600
0600
0200
0000
0F00
1980
1980
3900
1800
1C00
3800
7000
E000
E080
F100
FE00
7C00
ENDCHAR
STARTCHAR uni0401
ENCODING 1025
SWIDTH 459 0
DWIDTH 8 0
BBX 10 16 0 0
BITMAP
0DC0
0C80
0000
0F00
1980
1980
3900
1800
1C00
3800
7000
E000
E080
F100
FE00
7C00
ENDCHAR
STARTCHAR uni0402
ENCODING 1026
SWIDTH 725 0
DWIDTH 13 0
BBX 13 16 0 -3
BITMAP
1FF8
67F0
4700
C700
C600
47E0
0E70
0E70
0C70
0C70
1C60
1C60
1CE0
00C0
0180
0700
ENDCHAR
STARTCHAR uni0403
ENCODING 1027
SWIDTH 400 0
DWIDTH 7 0
BBX 11 18 0 0
BITMAP
0060
0040
00C0
0080
0000
1FE0
6FE0
4E00
CE00
CC00
5C00
1C00
1C00
1800
1800
3800
3800
3800
ENDCHAR
STARTCHAR uni0404
ENCODING 1028
SWIDTH 497 0
DWIDTH 9 0
BBX 10 13 0 0
BITMAP
0F80
1CC0
38C0
3180
7000
7E00
7000
E000
E000
E000
7080
7100
3E00
ENDCHAR
STARTCHAR uni0405
ENCODING 1029
SWIDTH 570 0
DWIDTH 10 0
BBX 9 13 1 0
BITMAP
1F00
3980
3180
3380
3800
1C00
0E00
2700
F700
C300
C700
CE00
7C00
ENDCHAR
STARTCHAR uni0406
ENCODING 1030
SWIDTH 374 0
DWIDTH 7 0
BBX 7 13 0 0
BITMAP
0E
3E
6E
CC
CC
DC
1C
1C
18
18
38
38
38
ENDCHAR
STARTCHAR uni0407
ENCODING 1031
SWIDTH 375 0
DWIDTH 7 0
BBX 9 16 0 0
BITMAP
1D80
0980
0000
0E00
3E00
4E00
CC00
CC00
DC00
1C00
1800
1800
3800
3800
3800
3000
ENDCHAR
STARTCHAR uni0408
ENCODING 1032
SWIDTH 536 0
DWIDTH 10 0
BBX 10 16 0 -3
BITMAP
01C0
06C0
0DC0
09C0
1980
0980
0380
0380
0300
0300
0700
0700
7700
C600
CE00
7C00
ENDCHAR
STARTCHAR uni0409
ENCODING 1033
SWIDTH 817 0
DWIDTH 15 0
BBX 15 14 -1 -1
BITMAP
00E0
0160
02E0
04E0
0CC0
18FC
19CE
31C6
31C6
618E
618E
63FC
E3B8
6000
ENDCHAR
STARTCHAR uni040A
ENCODING 1034
SWIDTH 931 0
DWIDTH 17 0
BBX 16 13 0 0
BITMAP
0E30
3E30
6E70
CC70
CC60
5FFE
1CE7
1CE3
18E3
18C7
38C7
39FE
31DC
ENDCHAR
STARTCHAR uni040B
ENCODING 1035
SWIDTH 745 0
DWIDTH 13 0
BBX 13 13 0 0
BITMAP
1FF8
67F0
4700
C700
C600
47E0
0E70
0E70
0C70
0C70
1C60
1CE0
1C70
ENDCHAR
STARTCHAR uni040C
ENCODING 1036
SWIDTH 635 0
DWIDTH 11 0
BBX 12 18 0 0
BITMAP
0060
0040
00C0
0080
0000
0E70
3EF0
6F80
CD00
CE00
5F80
1DC0
1DC0
19C0
1980
3980
3980
31C0
ENDCHAR
STARTCHAR uni040D
ENCODING 1037
SWIDTH 705 0
DWIDTH 13 0
BBX 13 17 0 0
BITMAP
0180
0080
00C0
0000
0E38
3E38
6E78
CC70
CCB0
DDF0
1D70
1F70
1A60
1C60
3CE0
38E0
38C0
ENDCHAR
STARTCHAR uni040E
ENCODING 1038
SWIDTH 644 0
DWIDTH 12 0
BBX 13 17 0 0
BITMAP
0188
0190
01E0
0000
0E18
3710
6710
C720
C320
43C0
03C0
03C0
0180
0180
0900
0F00
0E00
ENDCHAR
STARTCHAR uni040F
ENCODING 1039
SWIDTH 665 0
DWIDTH 12 0
BBX 12 19 0 -6
BITMAP
0E30
3E30
6E70
CC70
CC60
DC60
1CE0
1CE0
18E0
18C0
38C0
39C0
3FC0
0400
0C00
0C00
0E00
0600
0400
ENDCHAR
STARTCHAR uni0410
ENCODING 1040
SWIDTH 668 0
DWIDTH 12 0
BBX 12 15 0 -2
BITMAP
0070
00B0
0170
0270
0670
3F60
CCE0
D8E0
18E0
38C0
30C0
31C0
31C0
3000
3000
ENDCHAR
STARTCHAR uni0411
ENCODING 1041
SWIDTH 638 0
DWIDTH 11 0
BBX 11 13 0 0
BITMAP
1FE0
6FE0
4C00
CC00
DC00
5F80
1CC0
18E0
18E0
38C0
38C0
37C0
3780
ENDCHAR
STARTCHAR uni0412
ENCODING 1042
SWIDTH 641 0
DWIDTH 12 0
BBX 11 13 0 0
BITMAP
0F80
30C0
6E60
CC40
CCC0
DFC0
1CE0
1CE0
18E0
18E0
38C0
3FC0
3780
ENDCHAR
STARTCHAR uni0413
ENCODING 1043
SWIDTH 400 0
DWIDTH 7 0
BBX 11 13 0 0
BITMAP
1FE0
6FE0
4E00
CE00
CC00
5C00
1C00
1C00
1800
1800
3800
3800
3800
ENDCHAR
STARTCHAR uni0414
ENCODING 1044
SWIDTH 669 0
DWIDTH 12 0
BBX 12 13 0 0
BITMAP
0F80
30E0
6E60
CE70
CC70
5C70
1C70
1C60
1860
F8E0
B8C0
B980
F700
ENDCHAR
STARTCHAR uni0415
ENCODING 1045
SWIDTH 459 0
DWIDTH 8 0
BBX 9 13 0 0
BITMAP
0F00
1980
1980
3900
1800
1C00
3800
7000
E000
E080
F100
FE00
7C00
ENDCHAR
STARTCHAR uni0416
ENCODING 1046
SWIDTH 777 0
DWIDTH 14 0
BBX 16 13 -1 0
BITMAP
1C67
1CEF
06D8
02D0
03F0
03E0
1FF8
399C
399C
3398
3398
7338
E738
ENDCHAR
STARTCHAR uni0417
ENCODING 1047
SWIDTH 525 0
DWIDTH 9 0
BBX 9 13 0 0
BITMAP
1F00
2380
2380
0380
0700
1C00
0700
0300
0380
C700
C700
CE00
7C00
ENDCHAR
STARTCHAR uni0418
ENCODING 1048
SWIDTH 705 0
DWIDTH 13 0
BBX 13 13 0 0
BITMAP
0E38
3E38
6E78
CC70
CCB0
DDF0
1D70
1F70
1A60
1C60
3CE0
38E0
38C0
ENDCHAR
STARTCHAR uni0419
ENCODING 1049
SWIDTH 705 0
DWIDTH 13 0
BBX 13 17 0 0
BITMAP
0390
0330
01E0
0000
0E38
3E38
6E78
CC70
CCB0
DDF0
1D70
1F70
1A60
1C60
3CE0
38E0
38C0
ENDCHAR
STARTCHAR uni041A
ENCODING 1050
SWIDTH 635 0
DWIDTH 11 0
BBX 12 13 0 0
BITMAP
0E70
3EF0
6F80
CD00
CE00
5F80
1DC0
1DC0
19C0
1980
3980
3980
31C0
ENDCHAR
STARTCHAR uni041B
ENCODING 1051
SWIDTH 549 0
DWIDTH 10 0
BBX 11 15 -1 -2
BITMAP
00E0
0160
02E0
04E0
0CC0
18C0
19C0
31C0
31C0
7180
6180
6380
E380
E000
6000
ENDCHAR
STARTCHAR uni041C
ENCODING 1052
SWIDTH 787 0
DWIDTH 14 0
BBX 13 13 1 0
BITMAP
0E18
3638
6E38
CE78
DE78
5678
16F8
36B0
2FB0
2F70
6F70
4E70
CE70
ENDCHAR
STARTCHAR uni041D
ENCODING 1053
SWIDTH 665 0
DWIDTH 12 0
BBX 12 13 0 0
BITMAP
1E30
2E30
4E70
CC70
CC60
5FE0
1CE0
1CE0
18E0
18C0
38C0
39C0
31C0
ENDCHAR
STARTCHAR uni041E
ENCODING 1054
SWIDTH 665 0
DWIDTH 12 0
BBX 12 13 0 0
BITMAP
0FC0
3960
6670
4C70
DC70
D870
3870
3860
38E0
38E0
39C0
3B80
1F00
ENDCHAR
STARTCHAR uni041F
ENCODING 1055
SWIDTH 688 0
DWIDTH 12 0
BBX 14 13 0 0
BITMAP
1FFC
7EFC
4E70
CC70
CC60
5C60
1CE0
1CE0
18E0
18C0
38C0
39C0
31C0
ENDCHAR
STARTCHAR uni0420
ENCODING 1056
SWIDTH 573 0
DWIDTH 10 0
BBX 11 13 0 0
BITMAP
0F80
30C0
6E60
CC60
CC60
DCC0
1D80
1F00
1800
3800
3800
3800
3000
ENDCHAR
STARTCHAR uni0421
ENCODING 1057
SWIDTH 497 0
DWIDTH 9 0
BBX 10 13 0 0
BITMAP
0F80
1C80
38C0
3980
7000
7000
7000
E000
E000
E000
6040
7180
3E00
ENDCHAR
STARTCHAR uni0422
ENCODING 1058
SWIDTH 481 0
DWIDTH 9 0
BBX 13 13 0 0
BITMAP
1F88
67F8
47F0
C700
C600
CE00
4E00
0E00
0C00
0C00
1C00
1C00
1C00
ENDCHAR
STARTCHAR uni0423
ENCODING 1059
SWIDTH 644 0
DWIDTH 12 0
BBX 13 13 0 0
BITMAP
0E18
3710
6710
C720
C320
43C0
03C0
03C0
0180
0180
0900
0F00
0E00
ENDCHAR
STARTCHAR uni0424
ENCODING 1060
SWIDTH 786 0
DWIDTH 14 0
BBX 14 15 0 0
BITMAP
0FC0
39C0
3180
1180
0FF0
3398
6398
631C
E31C
E718
6738
7770
3FE0
0600
0E00
ENDCHAR
STARTCHAR uni0425
ENCODING 1061
SWIDTH 620 0
DWIDTH 11 0
BBX 11 13 0 0
BITMAP
0E20
3640
6740
C780
C780
C700
0380
0380
0780
0F80
0980
11C0
31C0
ENDCHAR
STARTCHAR uni0426
ENCODING 1062
SWIDTH 692 0
DWIDTH 12 0
BBX 13 16 0 -3
BITMAP
0E30
3E30
6E70
CC70
CC60
DC60
1CE0
1CE0
18E0
18C0
38C0
39C0
3FC0
03C8
01F8
0070
ENDCHAR
STARTCHAR uni0427
ENCODING 1063
SWIDTH 695 0
DWIDTH 13 0
BBX 13 13 0 0
BITMAP
0E38
3E38
6E30
CC30
CC70
4C70
0FF0
0760
0060
00E0
00E0
00E0
00C0
ENDCHAR
STARTCHAR uni0428
ENCODING 1064
SWIDTH 906 0
DWIDTH 16 0
BBX 17 13 0 0
BITMAP
0E7380
3E7300
6E6300
CC6700
CCE700
DCE700
1CE600
1CC600
19CE00
19CE00
39CE00
398C00
3FFC00
ENDCHAR
STARTCHAR uni0429
ENCODING 1065
SWIDTH 934 0
DWIDTH 17 0
BBX 17 16 0 -3
BITMAP
0E7380
3E7300
6E6300
CC6700
CCE700
DCE700
1CE600
1CC600
19CE00
19CE00
39CE00
398C00
3FDC00
01FC80
003F80
000700
ENDCHAR
STARTCHAR uni042A
ENCODING 1066
SWIDTH 714 0
DWIDTH 13 0
BBX 12 13 0 0
BITMAP
1F80
2300
4700
C700
C700
67E0
0670
0E30
0E30
0C30
0C70
1DE0
1DC0
ENDCHAR
STARTCHAR uni042B
ENCODING 1067
SWIDTH 909 0
DWIDTH 16 0
BBX 17 13 0 0
BITMAP
0E0380
3E0380
6E0300
CC0300
CC0700
5FC700
1CE600
1CE600
18EE00
18EE00
38CE00
3FCC00
339C00
ENDCHAR
STARTCHAR uni042C
ENCODING 1068
SWIDTH 640 0
DWIDTH 12 0
BBX 11 13 0 0
BITMAP
0E00
3E00
6E00
CC00
CC00
5FC0
1CE0
1CE0
18E0
18E0
38C0
3FC0
3380
ENDCHAR
STARTCHAR uni042D
ENCODING 1069
SWIDTH 544 0
DWIDTH 10 0
BBX 10 13 0 0
BITMAP
1F00
2380
4380
01C0
01C0
1FC0
0380
0380
0380
C700
C700
CE00
7800
ENDCHAR
STARTCHAR uni042E
ENCODING 1070
SWIDTH 946 0
DWIDTH 17 0
BBX 17 13 0 0
BITMAP
0E3E00
3E4B00
6E3380
CC6380
CCE380
5FC380
1DC380
1DC300
19C300
19C700
39CE00
39DC00
30F800
ENDCHAR
STARTCHAR uni042F
ENCODING 1071
SWIDTH 630 0
DWIDTH 11 0
BBX 13 13 -1 0
BITMAP
03F0
0E38
18C8
18C8
19C0
0DC0
0FC0
3980
3380
3380
3380
7300
E700
ENDCHAR
STARTCHAR uni0430
ENCODING 1072
SWIDTH 526 0
DWIDTH 9 0
BBX 10 9 0 0
BITMAP
1F80
7300
6300
E700
E700
C600
C640
FF80
7700
ENDCHAR
STARTCHAR uni0431
ENCODING 1073
SWIDTH 430 0
DWIDTH 8 0
BBX 10 13 0 0
BITMAP
1FC0
1F80
1800
0C00
0400
1E00
7600
E600
E600
E600
C400
E800
7000
ENDCHAR
STARTCHAR uni0432
ENCODING 1074
SWIDTH 449 0
DWIDTH 8 0
BBX 10 13 0 0
BITMAP
0E00
1A00
3200
3200
7200
6400
ECC0
EF00
E600
C600
C600
EC00
7800
ENDCHAR
STARTCHAR uni0433
ENCODING 1075
SWIDTH 375 0
DWIDTH 7 0
BBX 7 9 0 0
BITMAP
38
5C
9C
3C
78
E0
C2
E4
F8
ENDCHAR
STARTCHAR uni0434
ENCODING 1076
SWIDTH 507 0
DWIDTH 9 0
BBX 10 13 0 -4
BITMAP
1F80
7300
6300
E700
E700
C600
CE40
FE80
7F00
1E00
6C00
5C00
3800
ENDCHAR
STARTCHAR uni0435
ENCODING 1077
SWIDTH 384 0
DWIDTH 7 0
BBX 8 9 0 0
BITMAP
1C
76
64
EC
F8
C1
C2
E4
78
ENDCHAR
STARTCHAR uni0436
ENCODING 1078
SWIDTH 882 0
DWIDTH 16 0
BBX 18 9 -1 0
BITMAP
3CE700
4CED80
4ECD00
0ED800
0FF800
0DD800
4D9840
D99980
738E00
ENDCHAR
STARTCHAR uni0437
ENCODING 1079
SWIDTH 498 0
DWIDTH 9 0
BBX 10 13 0 -4
BITMAP
1E00
2600
4700
4700
8600
8E00
3840
1C80
0F00
1C00
6C00
5C00
7800
ENDCHAR
STARTCHAR uni0438
ENCODING 1080
SWIDTH 505 0
DWIDTH 9 0
BBX 10 9 0 0
BITMAP
7300
6700
6700
E700
E600
EE00
CE40
FF80
E700
ENDCHAR
STARTCHAR uni0439
ENCODING 1081
SWIDTH 505 0
DWIDTH 9 0
BBX 10 13 0 0
BITMAP
3900
3300
1E00
0000
7300
6700
6700
E700
E600
EE00
CE40
FF80
E700
ENDCHAR
STARTCHAR uni043A
ENCODING 1082
SWIDTH 501 0
DWIDTH 9 0
BBX 11 9 -1 0
BITMAP
39C0
32C0
3400
7F00
7700
7720
6740
67C0
E380
ENDCHAR
STARTCHAR uni043B
ENCODING 1083
SWIDTH 558 0
DWIDTH 10 0
BBX 12 9 -1 0
BITMAP
03C0
05C0
05C0
0980
0980
0990
CBA0
D3E0
71C0
ENDCHAR
STARTCHAR uni043C
ENCODING 1084
SWIDTH 827 0
DWIDTH 15 0
BBX 17 9 -1 0
BITMAP
030E00
071E00
079C00
0BBC00
0BAC00
0BFC80
C9DD00
D1DF00
718E00
ENDCHAR
STARTCHAR uni043D
ENCODING 1085
SWIDTH 507 0
DWIDTH 9 0
BBX 11 9 -1 0
BITMAP
3980
3980
3380
7380
7F00
7300
7320
6740
E380
ENDCHAR
STARTCHAR uni043E
ENCODING 1086
SWIDTH 439 0
DWIDTH 8 0
BBX 10 9 0 0
BITMAP
1C00
7600
6640
E780
E600
E600
C400
EC00
7000
ENDCHAR
STARTCHAR uni043F
ENCODING 1087
SWIDTH 505 0
DWIDTH 9 0
BBX 11 9 -1 0
BITMAP
3F00
3B80
3380
7380
7300
7300
6720
6740
E380
ENDCHAR
STARTCHAR uni0440
ENCODING 1088
SWIDTH 468 0
DWIDTH 8 0
BBX 10 14 -2 -4
BITMAP
1C00
1F80
1DC0
18C0
19C0
39C0
39C0
3180
3F80
7F00
7000
7000
6000
E000
ENDCHAR
STARTCHAR uni0441
ENCODING 1089
SWIDTH 384 0
DWIDTH 7 0
BBX 8 9 0 0
BITMAP
1C
76
64
E0
E0
C0
C3
E4
78
ENDCHAR
STARTCHAR uni0442
ENCODING 1090
SWIDTH 752 0
DWIDTH 14 0
BBX 15 9 -1 0
BITMAP
3F78
3B98
3398
7338
7338
7738
6732
6732
E63C
ENDCHAR
STARTCHAR uni0443
ENCODING 1091
SWIDTH 486 0
DWIDTH 9 0
BBX 10 13 0 -4
BITMAP
7300
6700
6700
E700
E600
EE40
CE80
FE80
EF00
3C00
5C00
5C00
7800
ENDCHAR
STARTCHAR uni0444
ENCODING 1092
SWIDTH 738 0
DWIDTH 13 0
BBX 13 16 0 -4
BITMAP
0180
0380
0380
1FF0
7330
6738
E738
E630
C630
CE70
FFE0
7FC0
0C00
0C00
0C00
1C00
ENDCHAR
STARTCHAR uni0445
ENCODING 1093
SWIDTH 522 0
DWIDTH 9 0
BBX 10 10 0 0
BITMAP
0180
1D80
2C80
4D00
4F00
8E00
8E00
1E40
2640
C780
ENDCHAR
STARTCHAR uni0446
ENCODING 1094
SWIDTH 535 0
DWIDTH 10 0
BBX 9 13 0 -4
BITMAP
7300
6700
6700
E700
E600
EE00
CE00
FF80
E700
0100
3F00
3E00
4000
ENDCHAR
STARTCHAR uni0447
ENCODING 1095
SWIDTH 505 0
DWIDTH 9 0
BBX 10 9 0 0
BITMAP
7300
6700
6700
E600
FE00
7E40
0E40
0F80
0700
ENDCHAR
STARTCHAR uni0448
ENCODING 1096
SWIDTH 752 0
DWIDTH 14 0
BBX 14 9 0 0
BITMAP
7338
6730
6730
E770
E670
EE70
CE64
FFF8
E770
ENDCHAR
STARTCHAR uni0449
ENCODING 1097
SWIDTH 782 0
DWIDTH 14 0
BBX 13 13 0 -4
BITMAP
7338
6730
6730
E770
E670
EE70
CE60
FFF8
E778
0018
01F0
03E0
0200
ENDCHAR
STARTCHAR uni044A
ENCODING 1098
SWIDTH 448 0
DWIDTH 8 0
BBX 7 9 0 0
BITMAP
78
D0
F0
7E
66
E6
C6
EC
78
ENDCHAR
STARTCHAR uni044B
ENCODING 1099
SWIDTH 655 0
DWIDTH 12 0
BBX 13 9 0 0
BITMAP
7060
60E0
63C0
FCC0
E4C0
E7C8
C5D0
FDF0
78E0
ENDCHAR
STARTCHAR uni044C
ENCODING 1100
SWIDTH 448 0
DWIDTH 8 0
BBX 7 9 0 0
BITMAP
70
70
60
FE
E6
E6
C6
FC
78
ENDCHAR
STARTCHAR uni044D
ENCODING 1101
SWIDTH 413 0
DWIDTH 7 0
BBX 8 9 -1 0
BITMAP
1E
26
47
07
1E
06
CE
CC
78
ENDCHAR
STARTCHAR uni044E
ENCODING 1102
SWIDTH 675 0
DWIDTH 12 0
BBX 15 9 -1 0
BITMAP
38E0
3990
33B2
733C
7F10
7730
6720
6760
E3C0
ENDCHAR
STARTCHAR uni044F
ENCODING 1103
SWIDTH 527 0
DWIDTH 9 0
BBX 11 9 -1 0
BITMAP
0FC0
1980
3180
3B80
1F80
4B20
CB20
D3C0
7380
ENDCHAR
STARTCHAR uni0450
ENCODING 1104
SWIDTH 384 0
DWIDTH 7 0
BBX 8 13 0 0
BITMAP
18
18
08
00
1C
76
64
EC
F8
C1
C2
E4
78
ENDCHAR
STARTCHAR uni0451
ENCODING 1105
SWIDTH 384 0
DWIDTH 7 0
BBX 8 12 0 0
BITMAP
37
32
00
1C
76
64
EC
F8
C1
C2
E4
78
ENDCHAR
STARTCHAR uni0452
ENCODING 1106
SWIDTH 491 0
DWIDTH 9 0
BBX 11 17 -1 -4
BITMAP
0400
1800
1800
7E00
3800
3700
3B00
7300
7300
7720
6740
67C0
E700
1E00
2600
2C00
3C00
ENDCHAR
STARTCHAR uni0453
ENCODING 1107
SWIDTH 375 0
DWIDTH 7 0
BBX 7 14 0 0
BITMAP
06
06
0C
08
00
38
5C
9C
3C
78
E0
C2
E4
F8
ENDCHAR
STARTCHAR uni0454
ENCODING 1108
SWIDTH 384 0
DWIDTH 7 0
BBX 8 9 0 0
BITMAP
1C
76
66
E0
F8
E0
C3
E4
78
ENDCHAR
STARTCHAR uni0455
ENCODING 1109
SWIDTH 382 0
DWIDTH 7 0
BBX 9 10 -1 0
BITMAP
0400
1C00
1C00
2C00
2E00
2E00
6E80
CF00
4C00
7800
ENDCHAR
STARTCHAR uni0456
ENCODING 1110
SWIDTH 267 0
DWIDTH 5 0
BBX 6 12 0 0
BITMAP
30
30
30
70
60
60
E0
E0
E4
C8
F8
F0
ENDCHAR
STARTCHAR uni0457
ENCODING 1111
SWIDTH 267 0
DWIDTH 5 0
BBX 6 12 0 0
BITMAP
CC
CC
00
70
60
60
E0
E0
E4
C8
F8
F0
ENDCHAR
STARTCHAR uni0458
ENCODING 1112
SWIDTH 240 0
DWIDTH 4 0
BBX 9 16 -4 -4
BITMAP
0300
0700
0300
0700
0700
0600
0E00
0E00
0E00
0C80
0D00
1E00
3C00
5C00
9800
7000
ENDCHAR
STARTCHAR uni0459
ENCODING 1113
SWIDTH 745 0
DWIDTH 13 0
BBX 14 9 -1 0
BITMAP
03C0
05C0
05C0
09F8
099C
099C
CB98
D3B8
71E0
ENDCHAR
STARTCHAR uni045A
ENCODING 1114
SWIDTH 694 0
DWIDTH 12 0
BBX 13 9 -1 0
BITMAP
3980
3980
3380
73F0
7FB8
7338
7730
6330
E3C0
ENDCHAR
STARTCHAR uni045B
ENCODING 1115
SWIDTH 505 0
DWIDTH 9 0
BBX 11 13 -1 0
BITMAP
0400
1800
1800
7E00
3800
3800
3700
7B00
7300
7300
6720
6740
E380
ENDCHAR
STARTCHAR uni045C
ENCODING 1116
SWIDTH 501 0
DWIDTH 9 0
BBX 11 14 -1 0
BITMAP
0180
0100
0300
0200
0000
39C0
32C0
3400
7F00
7700
7720
6740
67C0
E380
ENDCHAR
STARTCHAR uni045D
ENCODING 1117
SWIDTH 505 0
DWIDTH 9 0
BBX 10 13 0 0
BITMAP
1800
0800
0C00
0000
7300
6700
6700
E700
E600
EE00
CE40
FF80
E700
ENDCHAR
STARTCHAR uni045E
ENCODING 1118
SWIDTH 486 0
DWIDTH 9 0
BBX 10 17 0 -4
BITMAP
3900
3300
1C00
0000
7300
6700
6700
E700
E600
EE40
CE80
FE80
EF00
3C00
5C00
5C00
7800
ENDCHAR
STARTCHAR uni045F
ENCODING 1119
SWIDTH 505 0
DWIDTH 9 0
BBX 10 13 0 -4
BITMAP
7300
6700
6700
E700
E600
EE00
CE40
FF80
E700
1000
1800
1800
1800
ENDCHAR
STARTCHAR uni0462
ENCODING 1122
SWIDTH 659 0
DWIDTH 12 0
BBX 11 13 0 0
BITMAP
0E00
0E00
3FE0
CFE0
DC00
DF80
1CC0
18E0
18E0
38E0
38C0
37C0
3780
ENDCHAR
STARTCHAR uni0463
ENCODING 1123
SWIDTH 692 0
DWIDTH 12 0
BBX 13 9 -1 0
BITMAP
3F00
3B80
3380
73F0
7338
7338
6730
6370
E3C0
ENDCHAR
STARTCHAR uni046A
ENCODING 1130
SWIDTH 834 0
DWIDTH 15 0
BBX 13 13 1 0
BITMAP
0FF8
3E10
4720
C720
C3C0
1FF0
3BB8
3398
7338
7338
6730
6730
E738
ENDCHAR
STARTCHAR uni046B
ENCODING 1131
SWIDTH 750 0
DWIDTH 14 0
BBX 11 9 1 0
BITMAP
3FC0
6C40
CE80
CF00
3FC0
76E0
66E0
6EC0
ECE0
ENDCHAR
STARTCHAR uni0472
ENCODING 1138
SWIDTH 665 0
DWIDTH 12 0
BBX 12 13 0 0
BITMAP
0FC0
3960
6670
4C70
DC70
5870
3FF0
3860
38E0
38E0
39C0
3980
1F00
ENDCHAR
STARTCHAR uni0473
ENCODING 1139
SWIDTH 439 0
DWIDTH 8 0
BBX 10 9 0 0
BITMAP
1C00
7600
66C0
E700
FE00
C600
CC00
FC00
7000
ENDCHAR
STARTCHAR uni0474
ENCODING 1140
SWIDTH 668 0
DWIDTH 12 0
BBX 14 13 0 0
BITMAP
0E1C
3E30
6E60
C660
C640
C6C0
06C0
0680
0680
0680
0700
0700
0700
ENDCHAR
STARTCHAR uni0475
ENCODING 1141
SWIDTH 414 0
DWIDTH 7 0
BBX 7 9 0 0
BITMAP
76
66
62
E2
E2
E4
CC
F8
F0
ENDCHAR
STARTCHAR uni0490
ENCODING 1168
SWIDTH 431 0
DWIDTH 8 0
BBX 12 15 0 0
BITMAP
0020
0030
1FF0
7FE0
4E00
CC00
CC00
DC00
1C00
1800
1800
3800
3800
3800
3000
ENDCHAR
STARTCHAR uni0491
ENCODING 1169
SWIDTH 342 0
DWIDTH 6 0
BBX 8 11 -1 0
BITMAP
02
03
3E
30
30
70
70
70
60
60
E0
ENDCHAR
STARTCHAR uni0492
ENCODING 1170
SWIDTH 400 0
DWIDTH 7 0
BBX 11 13 0 0
BITMAP
1FE0
6FE0
4E00
CE00
CC00
CC00
1C00
7F00
1800
1800
3800
3800
3800
ENDCHAR
STARTCHAR uni0493
ENCODING 1171
SWIDTH 375 0
DWIDTH 7 0
BBX 7 9 0 0
BITMAP
38
5C
9C
1C
FC
E0
C2
E4
F8
ENDCHAR
STARTCHAR uni0494
ENCODING 1172
SWIDTH 665 0
DWIDTH 12 0
BBX 11 14 0 -1
BITMAP
1FE0
6FE0
4E00
CE00
CC00
DFC0
1CE0
1C60
1860
1860
38E0
38C0
3FC0
0300
ENDCHAR
STARTCHAR uni0495
ENCODING 1173
SWIDTH 486 0
DWIDTH 9 0
BBX 11 13 -1 -4
BITMAP
3F80
3700
3000
7F00
7F00
7320
6740
6740
E780
1E00
2E00
2C00
3C00
ENDCHAR
STARTCHAR uni0496
ENCODING 1174
SWIDTH 777 0
DWIDTH 14 0
BBX 16 18 -1 -5
BITMAP
1C67
1CEF
06D8
02D0
03F0
03E0
1FF8
399C
399C
3398
3398
7338
E738
0030
0030
0038
0018
0010
ENDCHAR
STARTCHAR uni0497
ENCODING 1175
SWIDTH 882 0
DWIDTH 16 0
BBX 18 13 -1 -4
BITMAP
3CE700
4CED80
4ECD00
0ED800
0FF800
0DD800
4D98C0
D99980
738E00
000400
000C00
000E00
000400
ENDCHAR
STARTCHAR uni0498
ENCODING 1176
SWIDTH 525 0
DWIDTH 9 0
BBX 9 18 0 -5
BITMAP
1F00
2380
2380
0380
0700
1C00
0700
0300
0380
C700
C700
CE00
7C00
1000
3800
1800
1800
1800
ENDCHAR
STARTCHAR uni0499
ENCODING 1177
SWIDTH 498 0
DWIDTH 9 0
BBX 10 17 0 -8
BITMAP
1E00
2600
4700
4700
8600
8E00
3840
1C80
0F00
3C00
4C00
5C00
7800
2000
3000
3000
2000
ENDCHAR
STARTCHAR uni049A
ENCODING 1178
SWIDTH 635 0
DWIDTH 11 0
BBX 12 18 0 -5
BITMAP
0E70
3EF0
6F80
CD00
CE00
5F80
1DC0
1DC0
19C0
1980
3980
3980
31C0
0100
0180
01C0
01C0
0080
ENDCHAR
STARTCHAR uni049B
ENCODING 1179
SWIDTH 501 0
DWIDTH 9 0
BBX 11 13 -1 -4
BITMAP
39C0
32C0
3400
7F00
7700
7700
6720
6740
E380
0100
0300
0300
0100
ENDCHAR
STARTCHAR uni049C
ENCODING 1180
SWIDTH 721 0
DWIDTH 13 0
BBX 14 13 0 0
BITMAP
0E1C
3E3C
6E40
CD80
CD80
5FC0
1EE0
1EE0
18E0
18C0
38C0
39C0
30E0
ENDCHAR
STARTCHAR uni049D
ENCODING 1181
SWIDTH 551 0
DWIDTH 10 0
BBX 12 9 -1 0
BITMAP
38E0
3560
3600
7F80
7B80
7B90
6BA0
63E0
E1C0
ENDCHAR
STARTCHAR uni04A0
ENCODING 1184
SWIDTH 691 0
DWIDTH 12 0
BBX 13 13 0 0
BITMAP
1F38
6778
47C0
C680
C700
4FC0
0EE0
0E60
0CE0
0CC0
1CC0
1CC0
1CE0
ENDCHAR
STARTCHAR uni04A1
ENCODING 1185
SWIDTH 676 0
DWIDTH 12 0
BBX 13 9 0 0
BITMAP
3E70
CEB0
CD00
CFC0
1FC0
1CC0
1CC8
19F0
38E0
ENDCHAR
STARTCHAR uni04A2
ENCODING 1186
SWIDTH 665 0
DWIDTH 12 0
BBX 13 16 0 -3
BITMAP
0E30
3E30
6E70
CC70
CC70
5FE0
1CE0
1CE0
18E0
18C0
38C0
39C0
31C0
0060
0078
0030
ENDCHAR
STARTCHAR uni04A3
ENCODING 1187
SWIDTH 507 0
DWIDTH 9 0
BBX 11 13 -1 -4
BITMAP
3980
3980
3380
7380
7F00
7300
7320
6740
E380
0100
0300
0380
0100
ENDCHAR
STARTCHAR uni04A4
ENCODING 1188
SWIDTH 689 0
DWIDTH 12 0
BBX 17 13 0 0
BITMAP
0E3F80
3E3F00
6E7000
CC7000
CC6000
5FE000
1CE000
1CE000
18E000
18C000
38C000
39C000
31C000
ENDCHAR
STARTCHAR uni04A5
ENCODING 1189
SWIDTH 681 0
DWIDTH 12 0
BBX 14 9 -1 0
BITMAP
39FC
39F8
3380
7380
7F00
7300
7320
67C0
E380
ENDCHAR
STARTCHAR uni04AA
ENCODING 1194
SWIDTH 497 0
DWIDTH 9 0
BBX 10 19 0 -6
BITMAP
0F80
1C80
38C0
3980
7000
7000
7000
E000
E000
E000
E040
7080
7F00
3C00
1800
1C00
0C00
0C00
0800
ENDCHAR
STARTCHAR uni04AB
ENCODING 1195
SWIDTH 384 0
DWIDTH 7 0
BBX 8 13 0 -4
BITMAP
1C
76
64
E0
E0
C1
C2
EC
78
20
70
30
20
ENDCHAR
STARTCHAR uni04AE
ENCODING 1198
SWIDTH 620 0
DWIDTH 11 0
BBX 13 13 0 0
BITMAP
0E18
3710
6720
C720
C760
C3C0
03C0
0380
0380
0380
0300
0700
0700
ENDCHAR
STARTCHAR uni04AF
ENCODING 1199
SWIDTH 480 0
DWIDTH 9 0
BBX 7 14 1 -5
BITMAP
E6
E6
E2
E2
E4
E4
68
68
70
60
60
E0
E0
80
ENDCHAR
STARTCHAR uni04B0
ENCODING 1200
SWIDTH 620 0
DWIDTH 11 0
BBX 13 13 0 0
BITMAP
0E18
3710
6720
C720
C760
C3C0
03C0
0380
0FE0
0380
0300
0700
0700
ENDCHAR
STARTCHAR uni04B1
ENCODING 1201
SWIDTH 480 0
DWIDTH 9 0
BBX 8 14 0 -5
BITMAP
73
73
71
71
72
72
34
34
38
FC
30
70
70
80
ENDCHAR
STARTCHAR uni04B6
ENCODING 1206
SWIDTH 695 0
DWIDTH 13 0
BBX 13 16 0 -3
BITMAP
0E38
3E38
6E30
CC30
CC70
4C70
0FF0
0760
0060
00E0
00E0
00E0
00C0
0078
0038
0038
ENDCHAR
STARTCHAR uni04B7
ENCODING 1207
SWIDTH 505 0
DWIDTH 9 0
BBX 10 13 0 -4
BITMAP
7300
6700
6700
E600
FE00
7E40
0E40
0F80
0700
0600
0600
0600
0200
ENDCHAR
STARTCHAR uni04B8
ENCODING 1208
SWIDTH 715 0
DWIDTH 13 0
BBX 13 13 0 0
BITMAP
0E18
3E38
6E38
CC38
CC30
CD30
0FF0
07F0
0170
0160
0060
00E0
00E0
ENDCHAR
STARTCHAR uni04B9
ENCODING 1209
SWIDTH 545 0
DWIDTH 10 0
BBX 11 9 0 0
BITMAP
7380
6380
6B00
EF00
7F00
7F20
1740
17C0
0380
ENDCHAR
STARTCHAR uni04BA
ENCODING 1210
SWIDTH 679 0
DWIDTH 12 0
BBX 11 13 0 0
BITMAP
0E00
3E00
6E00
CC00
CC00
5FC0
1CE0
1C60
1860
18E0
38E0
38C0
30C0
ENDCHAR
STARTCHAR uni04BB
ENCODING 1211
SWIDTH 505 0
DWIDTH 9 0
BBX 11 12 -1 0
BITMAP
1C00
1800
3800
3F00
3B80
3380
7380
7300
7300
6720
6740
E380
ENDCHAR
STARTCHAR uni04C0
ENCODING 1216
SWIDTH 375 0
DWIDTH 7 0
BBX 7 13 0 0
BITMAP
0E
3E
4E
CC
CC
DC
1C
18
18
38
38
38
30
ENDCHAR
STARTCHAR uni04C1
ENCODING 1217
SWIDTH 777 0
DWIDTH 14 0
BBX 16 17 -1 0
BITMAP
0188
0190
00E0
0000
1C67
1CEF
06D8
02D0
03F0
03E0
1FF8
399C
399C
3398
3398
7338
E738
ENDCHAR
STARTCHAR uni04C2
ENCODING 1218
SWIDTH 882 0
DWIDTH 16 0
BBX 18 13 -1 0
BITMAP
018800
019000
00E000
000000
3CE700
4CED80
4ECD00
0ED800
0FF800
0DD800
4D9840
D99980
738E00
ENDCHAR
STARTCHAR uni04CB
ENCODING 1227
SWIDTH 695 0
DWIDTH 13 0
BBX 13 15 0 -2
BITMAP
0E38
3E38
6E30
CC30
CC70
CC70
0EF0
07E0
0060
00E0
00E0
00C0
13C0
1F00
0C00
ENDCHAR
STARTCHAR uni04CC
ENCODING 1228
SWIDTH 516 0
DWIDTH 9 0
BBX 10 13 0 -4
BITMAP
7300
7300
6700
6700
7E00
7640
0E40
0780
0700
0600
7C00
7800
8000
ENDCHAR
STARTCHAR uni04CF
ENCODING 1231
SWIDTH 267 0
DWIDTH 5 0
BBX 6 13 0 0
BITMAP
18
30
30
70
70
70
60
E0
E0
E4
C8
F8
E0
ENDCHAR
STARTCHAR uni04D0
ENCODING 1232
SWIDTH 668 0
DWIDTH 12 0
BBX 15 19 0 -2
BITMAP
0062
00E4
0078
0000
0070
00B0
0170
0270
0670
3F60
CCE0
D8E0
18E0
38C0
30C0
31C0
31C0
3000
3000
ENDCHAR
STARTCHAR uni04D1
ENCODING 1233
SWIDTH 526 0
DWIDTH 9 0
BBX 10 13 0 0
BITMAP
1880
1980
0E00
0000
1F80
7300
6300
E700
E700
C600
C640
FF80
7700
ENDCHAR
STARTCHAR uni04D2
ENCODING 1234
SWIDTH 668 0
DWIDTH 12 0
BBX 14 19 0 -2
BITMAP
006C
006C
0000
0000
0070
00B0
0170
0270
0670
3F60
CCE0
D8E0
18E0
38C0
30C0
31C0
31C0
3000
3000
ENDCHAR
STARTCHAR uni04D3
ENCODING 1235
SWIDTH 526 0
DWIDTH 9 0
BBX 10 12 0 0
BITMAP
1D80
0D80
0000
1F80
7300
6300
E700
E700
C600
C640
FF80
7700
ENDCHAR
STARTCHAR uni04D4
ENCODING 1236
SWIDTH 764 0
DWIDTH 14 0
BBX 16 15 0 -2
BITMAP
0079
00BF
0170
0270
0670
3E60
EDFC
D8E0
18E0
38C0
30C0
31FC
31FC
3000
3000
ENDCHAR
STARTCHAR uni04D5
ENCODING 1237
SWIDTH 650 0
DWIDTH 12 0
BBX 12 9 0 0
BITMAP
1FE0
67A0
0720
0760
7FC0
E600
CE10
CF20
F7C0
ENDCHAR
STARTCHAR uni04D6
ENCODING 1238
SWIDTH 459 0
DWIDTH 8 0
BBX 10 17 0 0
BITMAP
0C40
0C80
0F00
0000
0F00
1980
1980
3900
1800
1C00
3800
7000
E000
E080
F100
FE00
7C00
ENDCHAR
STARTCHAR uni04D7
ENCODING 1239
SWIDTH 384 0
DWIDTH 7 0
BBX 8 13 0 0
BITMAP
31
32
3C
00
1C
76
64
EC
F8
C1
C2
E4
78
ENDCHAR
STARTCHAR uni04D8
ENCODING 1240
SWIDTH 544 0
DWIDTH 10 0
BBX 10 13 0 0
BITMAP
1F00
3F80
2380
01C0
01C0
0FC0
1B80
3380
6380
E700
E700
6E00
7800
ENDCHAR
STARTCHAR uni04D9
ENCODING 1241
SWIDTH 404 0
DWIDTH 7 0
BBX 7 9 0 0
BITMAP
3C
4E
0E
3E
6E
CC
DC
D8
70
ENDCHAR
STARTCHAR uni04DC
ENCODING 1244
SWIDTH 777 0
DWIDTH 14 0
BBX 16 16 -1 0
BITMAP
01D8
0098
0000
1C67
1CEF
06D8
02D0
03F0
03E0
1FF8
399C
399C
3398
3398
7338
E738
ENDCHAR
STARTCHAR uni04DD
ENCODING 1245
SWIDTH 882 0
DWIDTH 16 0
BBX 18 12 -1 0
BITMAP
01D800
019800
000000
3CE700
4CED80
4ECD00
0ED800
0FF800
0DD800
4D9840
D99980
738E00
ENDCHAR
STARTCHAR uni04DE
ENCODING 1246
SWIDTH 525 0
DWIDTH 9 0
BBX 9 16 0 0
BITMAP
0D80
0D80
0000
1F00
2380
2380
0380
0700
1C00
0700
0300
0380
C700
C700
CE00
7C00
ENDCHAR
STARTCHAR uni04DF
ENCODING 1247
SWIDTH 498 0
DWIDTH 9 0
BBX 10 16 0 -4
BITMAP
1B00
1B00
0000
1E00
2600
4700
4700
8600
8E00
3840
1C80
0F00
1C00
6C00
5C00
7800
ENDCHAR
STARTCHAR uni04E2
ENCODING 1250
SWIDTH 705 0
DWIDTH 13 0
BBX 13 16 0 0
BITMAP
03F0
0000
0000
0E38
3E38
6E78
CC70
CCB0
DDF0
1D70
1F70
1A60
1C60
3CE0
38E0
38C0
ENDCHAR
STARTCHAR uni04E3
ENCODING 1251
SWIDTH 505 0
DWIDTH 9 0
BBX 10 12 0 0
BITMAP
3F00
0000
0000
7300
6700
6700
E700
E600
EE00
CE40
FF80
E700
ENDCHAR
STARTCHAR uni04E4
ENCODING 1252
SWIDTH 705 0
DWIDTH 13 0
BBX 13 16 0 0
BITMAP
01B0
01B0
0000
0E38
3E38
6E78
CC70
CCB0
DDF0
1D70
1F70
1A60
1C60
3CE0
38E0
38C0
ENDCHAR
STARTCHAR uni04E5
ENCODING 1253
SWIDTH 505 0
DWIDTH 9 0
BBX 10 12 0 0
BITMAP
1B00
1B00
0000
7300
6700
6700
E700
E600
EE00
CE40
FF80
E700
ENDCHAR
STARTCHAR uni04E6
ENCODING 1254
SWIDTH 665 0
DWIDTH 12 0
BBX 12 16 0 0
BITMAP
0370
0330
0000
0FC0
3960
6670
4C70
DC70
D870
3870
3860
38E0
38E0
39C0
3B80
1F00
ENDCHAR
STARTCHAR uni04E7
ENCODING 1255
SWIDTH 439 0
DWIDTH 8 0
BBX 10 12 0 0
BITMAP
1B00
1B00
0000
1C00
7600
6640
E780
E600
E600
C400
EC00
7000
ENDCHAR
STARTCHAR uni04E8
ENCODING 1256
SWIDTH 665 0
DWIDTH 12 0
BBX 12 13 0 0
BITMAP
0FC0
3960
6670
4C70
DC70
D870
3FF0
3860
38E0
38E0
38C0
3980
1F00
ENDCHAR
STARTCHAR uni04E9
ENCODING 1257
SWIDTH 439 0
DWIDTH 8 0
BBX 10 9 0 0
BITMAP
1C00
7600
6640
E780
FE00
E600
C400
EC00
7000
ENDCHAR
STARTCHAR uni04EE
ENCODING 1262
SWIDTH 644 0
DWIDTH 12 0
BBX 13 16 0 0
BITMAP
01F8
0000
0000
0E18
3710
6710
C720
C320
43C0
03C0
03C0
0180
0180
0900
0F00
0E00
ENDCHAR
STARTCHAR uni04EF
ENCODING 1263
SWIDTH 486 0
DWIDTH 9 0
BBX 10 16 0 -4
BITMAP
3F00
0000
0000
7300
6700
6700
E700
E600
EE40
CE80
FE80
EF00
3C00
5C00
5C00
7800
ENDCHAR
STARTCHAR uni04F0
ENCODING 1264
SWIDTH 644 0
DWIDTH 12 0
BBX 13 16 0 0
BITMAP
01B0
01B0
0000
0E18
3710
6710
C720
C320
43C0
03C0
03C0
0180
0180
0900
0F00
0E00
ENDCHAR
STARTCHAR uni04F1
ENCODING 1265
SWIDTH 486 0
DWIDTH 9 0
BBX 10 16 0 -4
BITMAP
1B00
1B00
0000
7300
6700
6700
E700
E600
EE40
CE80
FE80
EF00
3C00
5C00
5C00
7800
ENDCHAR
STARTCHAR uni04F2
ENCODING 1266
SWIDTH 644 0
DWIDTH 12 0
BBX 13 17 0 0
BITMAP
00F8
0090
0120
0000
0E18
3710
6710
C720
C320
43C0
03C0
03C0
0180
0180
0900
0F00
0E00
ENDCHAR
STARTCHAR uni04F3
ENCODING 1267
SWIDTH 486 0
DWIDTH 9 0
BBX 10 17 0 -4
BITMAP
0D80
1B00
1200
0000
7300
6700
6700
E700
E600
EE40
CE80
FE80
EF00
3C00
5C00
5C00
7800
ENDCHAR
STARTCHAR uni04F4
ENCODING 1268
SWIDTH 695 0
DWIDTH 13 0
BBX 13 16 0 0
BITMAP
01B0
01B0
0000
0E38
3E38
6E30
CC30
CC70
4C70
0FF0
0760
0060
00E0
00E0
00E0
00C0
ENDCHAR
STARTCHAR uni04F5
ENCODING 1269
SWIDTH 505 0
DWIDTH 9 0
BBX 10 12 0 0
BITMAP
3B00
1300
0000
7300
6700
6700
E600
FE00
7E40
0E40
0F80
0700
ENDCHAR
STARTCHAR uni04F6
ENCODING 1270
SWIDTH 442 0
DWIDTH 8 0
BBX 11 16 0 -3
BITMAP
1FE0
6FE0
4E00
CE00
CC00
5C00
1C00
1C00
1800
1800
3800
3800
3800
0D00
0E00
0600
ENDCHAR
STARTCHAR uni04F7
ENCODING 1271
SWIDTH 375 0
DWIDTH 7 0
BBX 7 13 0 -4
BITMAP
38
5C
9C
1C
78
E0
C2
FC
F0
20
60
70
20
ENDCHAR
STARTCHAR uni04F8
ENCODING 1272
SWIDTH 909 0
DWIDTH 16 0
BBX 17 16 0 0
BITMAP
006C00
006C00
000000
0E0380
3E0380
6E0300
CC0300
CC0700
5FC700
1CE600
1CE600
18EE00
18EE00
38CE00
3FCC00
339C00
ENDCHAR
STARTCHAR uni04F9
ENCODING 1273
SWIDTH 642 0
DWIDTH 12 0
BBX 12 12 0 0
BITMAP
0D80
0D80
0000
7060
60C0
63C0
FCC0
E5C0
C5C0
C590
FDF0
70E0
ENDCHAR
STARTCHAR uni051A
ENCODING 1306
SWIDTH 665 0
DWIDTH 12 0
BBX 12 15 0 -2
BITMAP
0FC0
3960
6670
4C70
DC70
D870
3870
3860
38E0
38E0
3FC0
3B80
1F80
01E0
00C0
ENDCHAR
STARTCHAR uni051B
ENCODING 1307
SWIDTH 486 0
DWIDTH 9 0
BBX 9 13 0 -4
BITMAP
1F80
7300
6300
E700
E700
C600
CE00
FE00
7E00
0E00
0C00
0C00
1C00
ENDCHAR
STARTCHAR uni051C
ENCODING 1308
SWIDTH 962 0
DWIDTH 17 0
BBX 19 13 0 0
BITMAP
0E1860
3E1840
6E38C0
C63880
C63880
C65900
065900
069900
069A00
069E00
071E00
071C00
071C00
ENDCHAR
STARTCHAR uni051D
ENCODING 1309
SWIDTH 661 0
DWIDTH 12 0
BBX 12 9 0 0
BITMAP
7360
6730
6710
E720
E620
EE20
CE40
FFC0
E700
ENDCHAR
STARTCHAR uni0524
ENCODING 1316
SWIDTH 742 0
DWIDTH 13 0
BBX 14 16 0 -3
BITMAP
1FFC
6EF8
4E70
CC70
CC60
5C60
1CE0
1CE0
18E0
18C0
38C0
39C0
31C0
0060
0078
0030
ENDCHAR
STARTCHAR uni0525
ENCODING 1317
SWIDTH 505 0
DWIDTH 9 0
BBX 11 13 -1 -4
BITMAP
3F00
3B80
3380
7380
7300
7300
6720
67C0
E380
0100
0300
0380
0100
ENDCHAR
STARTCHAR uni1E0C
ENCODING 7692
SWIDTH 663 0
DWIDTH 12 0
BBX 12 17 0 -4
BITMAP
0F80
30E0
6E60
CC60
CC70
DC70
1C60
1C60
1860
38E0
38C0
3980
3700
0000
0C00
1C00
0C00
ENDCHAR
STARTCHAR uni1E0D
ENCODING 7693
SWIDTH 525 0
DWIDTH 9 0
BBX 10 16 0 -4
BITMAP
0180
0380
0380
1F80
7300
6300
E700
E700
C700
C640
EE40
7780
0000
3000
3000
3000
ENDCHAR
STARTCHAR uni1E20
ENCODING 7712
SWIDTH 578 0
DWIDTH 10 0
BBX 10 19 0 -3
BITMAP
0FC0
0000
0000
0F80
1CC0
38C0
70C0
6000
E000
E1C0
E180
7380
3D80
0380
0300
3B00
6300
6600
3C00
ENDCHAR
STARTCHAR uni1E21
ENCODING 7713
SWIDTH 507 0
DWIDTH 9 0
BBX 10 16 0 -4
BITMAP
1F80
0000
0000
1F80
7300
6300
E700
E700
C600
CE40
FE80
7F00
1E00
6C00
5C00
3800
ENDCHAR
STARTCHAR uni1E24
ENCODING 7716
SWIDTH 665 0
DWIDTH 12 0
BBX 12 17 0 -4
BITMAP
1E30
2E30
4E70
CC70
CC60
5FE0
1CE0
1CE0
18E0
18C0
38C0
39C0
31C0
0000
0C00
0E00
0C00
ENDCHAR
STARTCHAR uni1E25
ENCODING 7717
SWIDTH 505 0
DWIDTH 9 0
BBX 11 16 -1 -4
BITMAP
1C00
1800
3800
3F00
3B80
3380
7380
7300
7300
6720
6740
E380
0000
1800
3800
1800
ENDCHAR
STARTCHAR uni1E2A
ENCODING 7722
SWIDTH 665 0
DWIDTH 12 0
BBX 12 17 0 -4
BITMAP
1E30
2E30
4E70
CC70
CC60
5FE0
1CE0
1CE0
18E0
18C0
38C0
39C0
31C0
0000
3180
1100
1E00
ENDCHAR
STARTCHAR uni1E2B
ENCODING 7723
SWIDTH 505 0
DWIDTH 9 0
BBX 11 16 -1 -4
BITMAP
1C00
1800
3800
3F00
3B80
3380
7380
7300
7300
6720
6740
E380
0000
6200
6600
3C00
ENDCHAR
STARTCHAR uni1E36
ENCODING 7734
SWIDTH 379 0
DWIDTH 7 0
BBX 12 17 0 -4
BITMAP
0E00
3E00
6E00
CC00
CC00
DC00
1C00
1800
1800
3800
3800
3800
3800
0F00
33F0
71F0
30E0
ENDCHAR
STARTCHAR uni1E37
ENCODING 7735
SWIDTH 293 0
DWIDTH 5 0
BBX 6 17 0 -4
BITMAP
18
38
38
30
30
70
70
70
60
64
E4
F8
70
00
C0
E0
C0
ENDCHAR
STARTCHAR uni1E42
ENCODING 7746
SWIDTH 787 0
DWIDTH 14 0
BBX 13 17 1 -4
BITMAP
0E18
3638
6E38
CE78
DE78
5678
16F8
36B0
2FB0
2F70
6F70
4E70
CE70
0000
0C00
0C00
0C00
ENDCHAR
STARTCHAR uni1E43
ENCODING 7747
SWIDTH 752 0
DWIDTH 14 0
BBX 15 13 -1 -4
BITMAP
3F78
3B98
3398
7338
7338
7738
6732
6732
E63C
0000
0600
0E00
0600
ENDCHAR
STARTCHAR uni1E44
ENCODING 7748
SWIDTH 668 0
DWIDTH 12 0
BBX 13 17 0 0
BITMAP
0060
00E0
0060
0000
1E18
2E18
4F10
CF30
CF30
DB30
1B20
1BA0
13E0
31E0
31E0
31C0
21C0
ENDCHAR
STARTCHAR uni1E45
ENCODING 7749
SWIDTH 505 0
DWIDTH 9 0
BBX 11 13 -1 0
BITMAP
0700
0700
0200
0000
3F00
3B80
3380
7380
7300
7300
6720
6740
E380
ENDCHAR
STARTCHAR uni1E46
ENCODING 7750
SWIDTH 668 0
DWIDTH 12 0
BBX 13 17 0 -4
BITMAP
1E18
2E18
4F10
CF30
CF30
DB30
1B20
1BA0
13E0
31E0
31E0
31C0
21C0
0000
0C00
0E00
0C00
ENDCHAR
STARTCHAR uni1E47
ENCODING 7751
SWIDTH 505 0
DWIDTH 9 0
BBX 11 13 -1 -4
BITMAP
3F00
3B80
3380
7380
7300
7300
6720
6740
E380
0000
1800
1800
1800
ENDCHAR
STARTCHAR uni1E5A
ENCODING 7770
SWIDTH 601 0
DWIDTH 11 0
BBX 11 17 0 -4
BITMAP
0F80
30C0
6E60
CCC0
CCC0
5F80
1DC0
19C0
19C0
3980
3980
3B80
31C0
0000
0C00
0E00
0C00
ENDCHAR
STARTCHAR uni1E5B
ENCODING 7771
SWIDTH 376 0
DWIDTH 7 0
BBX 8 13 -1 -4
BITMAP
3F
3F
33
70
70
70
60
60
E0
00
40
E0
E0
ENDCHAR
STARTCHAR uni1E60
ENCODING 7776
SWIDTH 570 0
DWIDTH 10 0
BBX 9 18 1 0
BITMAP
0200
0700
0700
0000
0000
1F00
3980
3180
3380
3800
1C00
0E00
2700
F700
C300
C700
CE00
7C00
ENDCHAR
STARTCHAR uni1E61
ENCODING 7777
SWIDTH 382 0
DWIDTH 7 0
BBX 9 13 -1 0
BITMAP
0E00
0E00
0400
0000
0C00
1C00
1C00
2C00
2E00
4E00
EF80
4E00
7800
ENDCHAR
STARTCHAR uni1E62
ENCODING 7778
SWIDTH 570 0
DWIDTH 10 0
BBX 9 17 1 -4
BITMAP
1F00
3980
3180
3380
3800
1C00
0E00
2700
F700
C300
C700
CE00
7C00
0000
3000
7000
3000
ENDCHAR
STARTCHAR uni1E63
ENCODING 7779
SWIDTH 382 0
DWIDTH 7 0
BBX 9 14 -1 -4
BITMAP
0400
1C00
1C00
2C00
2E00
2E00
6E80
CF00
4C00
7800
0000
6000
7000
6000
ENDCHAR
STARTCHAR uni1E6C
ENCODING 7788
SWIDTH 481 0
DWIDTH 9 0
BBX 13 17 0 -4
BITMAP
1F88
67F8
47F0
C700
C600
CE00
4E00
0E00
0C00
0C00
1C00
1C00
1C00
0000
1800
3800
1800
ENDCHAR
STARTCHAR uni1E6D
ENCODING 7789
SWIDTH 267 0
DWIDTH 5 0
BBX 7 16 -1 -4
BITMAP
18
18
38
3C
78
30
30
70
72
64
7C
78
00
40
E0
E0
ENDCHAR
STARTCHAR Wgrave
ENCODING 7808
SWIDTH 962 0
DWIDTH 17 0
BBX 19 18 0 0
BITMAP
003000
001800
001800
000000
000000
0E1860
3E1840
6E38C0
C63880
C63880
C65900
065900
069900
069A00
069E00
071E00
071C00
071C00
ENDCHAR
STARTCHAR wgrave
ENCODING 7809
SWIDTH 661 0
DWIDTH 12 0
BBX 12 13 0 0
BITMAP
0600
0600
0200
0000
7360
6730
6710
E720
E620
EE20
CE40
FFC0
E700
ENDCHAR
STARTCHAR Wacute
ENCODING 7810
SWIDTH 962 0
DWIDTH 17 0
BBX 19 18 0 0
BITMAP
000600
000600
000C00
000800
000000
0E1860
3E1840
6E38C0
C63880
C63880
C65900
065900
069900
069A00
069E00
071E00
071C00
071C00
ENDCHAR
STARTCHAR wacute
ENCODING 7811
SWIDTH 661 0
DWIDTH 12 0
BBX 12 13 0 0
BITMAP
01C0
0180
0300
0000
7360
6730
6710
E720
E620
EE20
CE40
FFC0
E700
ENDCHAR
STARTCHAR Wdieresis
ENCODING 7812
SWIDTH 962 0
DWIDTH 17 0
BBX 19 17 0 0
BITMAP
003600
003600
000000
000000
0E1860
3E1840
6E38C0
C63880
C63880
C65900
065900
069900
069A00
069E00
071E00
071C00
071C00
ENDCHAR
STARTCHAR wdieresis
ENCODING 7813
SWIDTH 661 0
DWIDTH 12 0
BBX 12 12 0 0
BITMAP
0D80
0D80
0000
7360
6730
6710
E720
E620
EE20
CE40
FFC0
E700
ENDCHAR
STARTCHAR uni1E8E
ENCODING 7822
SWIDTH 620 0
DWIDTH 11 0
BBX 13 17 0 0
BITMAP
00E0
00E0
00C0
0000
0E18
3710
6720
C720
C760
C3C0
03C0
0380
0380
0380
0300
0700
0700
ENDCHAR
STARTCHAR uni1E8F
ENCODING 7823
SWIDTH 505 0
DWIDTH 9 0
BBX 10 17 0 -4
BITMAP
0C00
0E00
0C00
0000
7300
6700
6700
E700
E600
EE40
CE80
FE80
EF00
3C00
5C00
5C00
7800
ENDCHAR
STARTCHAR uni1E92
ENCODING 7826
SWIDTH 542 0
DWIDTH 10 0
BBX 10 22 0 -4
BITMAP
00C0
0180
0180
0100
0000
3FC0
2380
3380
0700
0700
0E00
0E00
1C00
1C00
3800
3180
7180
FF00
0000
1800
3800
1800
ENDCHAR
STARTCHAR uni1E93
ENCODING 7827
SWIDTH 428 0
DWIDTH 8 0
BBX 8 13 0 -4
BITMAP
3F
6E
6C
1C
18
38
72
66
FC
00
60
70
60
ENDCHAR
STARTCHAR uni1E97
ENCODING 7831
SWIDTH 267 0
DWIDTH 5 0
BBX 6 14 0 0
BITMAP
6C
6C
00
30
70
78
F0
60
60
E0
E4
C8
F8
F0
ENDCHAR
STARTCHAR uni1E9E
ENCODING 7838
SWIDTH 559 0
DWIDTH 10 0
BBX 12 17 -1 -4
BITMAP
07F0
0CE0
1CE0
1DC0
1980
3B80
3B80
39C0
31C0
31C0
71C0
7180
6F00
6000
6000
E000
E000
ENDCHAR
STARTCHAR uni1EA0
ENCODING 7840
SWIDTH 668 0
DWIDTH 12 0
BBX 12 17 0 -4
BITMAP
0070
00B0
0170
0270
0670
3F60
CCE0
D8E0
18E0
38C0
30C0
31C0
31C0
3000
3300
0700
0300
ENDCHAR
STARTCHAR uni1EA1
ENCODING 7841
SWIDTH 526 0
DWIDTH 9 0
BBX 10 13 0 -4
BITMAP
1F80
7300
6300
E700
E700
C600
C640
FF80
7700
0000
3000
3000
3000
ENDCHAR
STARTCHAR uni1EA2
ENCODING 7842
SWIDTH 668 0
DWIDTH 12 0
BBX 13 20 0 -2
BITMAP
0038
0028
0008
0030
0000
0070
00B0
0170
0270
0670
3F60
CCE0
D8E0
18E0
38C0
30C0
31C0
31C0
3000
3000
ENDCHAR
STARTCHAR uni1EA3
ENCODING 7843
SWIDTH 526 0
DWIDTH 9 0
BBX 10 13 0 0
BITMAP
0700
0100
0600
0000
1F80
7300
6300
E700
E700
C600
C640
FF80
7700
ENDCHAR
STARTCHAR uni1EA4
ENCODING 7844
SWIDTH 668 0
DWIDTH 12 0
BBX 15 20 0 -2
BITMAP
0002
001A
002C
0048
0000
0070
00B0
0170
0270
0670
3F60
CCE0
D8E0
18E0
38C0
30C0
31C0
31C0
3000
3000
ENDCHAR
STARTCHAR uni1EA5
ENCODING 7845
SWIDTH 526 0
DWIDTH 9 0
BBX 11 16 0 0
BITMAP
0060
0040
00C0
0200
0600
1900
0000
1F80
7300
6300
E700
E700
C600
C640
FF80
7700
ENDCHAR
STARTCHAR uni1EA6
ENCODING 7846
SWIDTH 668 0
DWIDTH 12 0
BBX 15 20 0 -2
BITMAP
0004
001A
0068
0000
0000
0070
00B0
0170
0270
0670
3F60
CCE0
D8E0
18E0
38C0
30C0
31C0
31C0
3000
3000
ENDCHAR
STARTCHAR uni1EA7
ENCODING 7847
SWIDTH 526 0
DWIDTH 9 0
BBX 10 15 0 0
BITMAP
0080
0080
0240
0600
1900
0000
1F80
7300
6300
E700
E700
C600
C640
FF80
7700
ENDCHAR
STARTCHAR uni1EA8
ENCODING 7848
SWIDTH 668 0
DWIDTH 12 0
BBX 15 20 0 -2
BITMAP
0006
0016
002C
0048
0000
0070
00B0
0170
0270
0670
3F60
CCE0
D8E0
18E0
38C0
30C0
31C0
31C0
3000
3000
ENDCHAR
STARTCHAR uni1EA9
ENCODING 7849
SWIDTH 526 0
DWIDTH 9 0
BBX 10 15 0 0
BITMAP
00C0
0040
0280
0600
1900
0000
1F80
7300
6300
E700
E700
C600
C640
FF80
7700
ENDCHAR
STARTCHAR uni1EAA
ENCODING 7850
SWIDTH 668 0
DWIDTH 12 0
BBX 15 20 0 -2
BITMAP
002E
0018
0028
0048
0000
0070
00B0
0170
0270
0670
3F60
CCE0
D8E0
18E0
38C0
30C0
31C0
31C0
3000
3000
ENDCHAR
STARTCHAR uni1EAB
ENCODING 7851
SWIDTH 526 0
DWIDTH 9 0
BBX 10 15 0 0
BITMAP
0F80
0000
0200
0600
1900
0000
1F80
7300
6300
E700
E700
C600
C640
FF80
7700
ENDCHAR
STARTCHAR uni1EAC
ENCODING 7852
SWIDTH 668 0
DWIDTH 12 0
BBX 14 22 0 -4
BITMAP
0008
0018
0068
0084
0000
0070
00B0
0170
0270
0670
3F60
CCE0
D8E0
18E0
38C0
30C0
31C0
31C0
3000
3300
0700
0300
ENDCHAR
STARTCHAR uni1EAD
ENCODING 7853
SWIDTH 526 0
DWIDTH 9 0
BBX 10 17 0 -4
BITMAP
0200
0700
1900
0000
1F80
7300
6300
E700
E700
C600
C640
FF80
7700
0000
3000
3000
3000
ENDCHAR
STARTCHAR uni1EAE
ENCODING 7854
SWIDTH 668 0
DWIDTH 12 0
BBX 14 20 0 -2
BITMAP
000C
0008
0054
0038
0000
0070
00B0
0170
0270
0670
3F60
CCE0
D8E0
18E0
38C0
30C0
31C0
31C0
3000
3000
ENDCHAR
STARTCHAR uni1EAF
ENCODING 7855
SWIDTH 526 0
DWIDTH 9 0
BBX 10 15 0 0
BITMAP
0300
0200
0200
1D80
0F00
0000
1F80
7300
6300
E700
E700
C600
C640
FF80
7700
ENDCHAR
STARTCHAR uni1EB0
ENCODING 7856
SWIDTH 668 0
DWIDTH 12 0
BBX 14 20 0 -2
BITMAP
0030
0010
0044
0038
0000
0070
00B0
0170
0270
0670
3F60
CCE0
D8E0
18E0
38C0
30C0
31C0
31C0
3000
3000
ENDCHAR
STARTCHAR uni1EB1
ENCODING 7857
SWIDTH 526 0
DWIDTH 9 0
BBX 10 15 0 0
BITMAP
0400
0400
0600
1980
0F00
0000
1F80
7300
6300
E700
E700
C600
C640
FF80
7700
ENDCHAR
STARTCHAR uni1EB2
ENCODING 7858
SWIDTH 668 0
DWIDTH 12 0
BBX 14 20 0 -2
BITMAP
0038
0018
0054
0038
0000
0070
00B0
0170
0270
0670
3F60
CCE0
D8E0
18E0
38C0
30C0
31C0
31C0
3000
3000
ENDCHAR
STARTCHAR uni1EB3
ENCODING 7859
SWIDTH 526 0
DWIDTH 9 0
BBX 10 15 0 0
BITMAP
0600
0100
0600
1D80
0F00
0000
1F80
7300
6300
E700
E700
C600
C640
FF80
7700
ENDCHAR
STARTCHAR uni1EB4
ENCODING 7860
SWIDTH 668 0
DWIDTH 12 0
BBX 14 20 0 -2
BITMAP
003C
0048
0044
0038
0000
0070
00B0
0170
0270
0670
3F60
CCE0
D8E0
18E0
38C0
30C0
31C0
31C0
3000
3000
ENDCHAR
STARTCHAR uni1EB5
ENCODING 7861
SWIDTH 526 0
DWIDTH 9 0
BBX 10 15 0 0
BITMAP
0F80
0000
0000
1980
0F00
0000
1F80
7300
6300
E700
E700
C600
C640
FF80
7700
ENDCHAR
STARTCHAR uni1EB6
ENCODING 7862
SWIDTH 668 0
DWIDTH 12 0
BBX 15 21 0 -4
BITMAP
00C6
0044
0078
0000
0070
00B0
0170
0270
0670
3F60
CCE0
D8E0
18E0
38C0
30C0
31C0
31C0
3000
3300
0700
0300
ENDCHAR
STARTCHAR uni1EB7
ENCODING 7863
SWIDTH 526 0
DWIDTH 9 0
BBX 10 17 0 -4
BITMAP
1180
1F00
0000
0000
1F80
7300
6300
E700
E700
C600
C640
FF80
7700
0000
3000
3000
3000
ENDCHAR
STARTCHAR uni1EB8
ENCODING 7864
SWIDTH 459 0
DWIDTH 8 0
BBX 9 17 0 -4
BITMAP
0F00
1980
1980
3900
1800
1C00
3800
7000
E000
E080
F100
FE00
7C00
0000
3000
7000
3000
ENDCHAR
STARTCHAR uni1EB9
ENCODING 7865
SWIDTH 384 0
DWIDTH 7 0
BBX 8 13 0 -4
BITMAP
1C
76
64
EC
F8
C1
C2
E4
78
00
60
E0
60
ENDCHAR
STARTCHAR uni1EBA
ENCODING 7866
SWIDTH 459 0
DWIDTH 8 0
BBX 9 18 0 0
BITMAP
0780
0080
0300
0000
0000
0F00
1980
1980
3900
1800
1C00
3800
7000
E000
E080
F100
FE00
7C00
ENDCHAR
STARTCHAR uni1EBB
ENCODING 7867
SWIDTH 384 0
DWIDTH 7 0
BBX 8 13 0 0
BITMAP
1E
02
0C
00
1C
76
64
EC
F8
C1
C2
E4
78
ENDCHAR
STARTCHAR uni1EBC
ENCODING 7868
SWIDTH 459 0
DWIDTH 8 0
BBX 11 17 0 0
BITMAP
0720
0FC0
0000
0000
0F00
1980
1980
3900
1800
1C00
3800
7000
E000
E080
F100
FE00
7C00
ENDCHAR
STARTCHAR uni1EBD
ENCODING 7869
SWIDTH 384 0
DWIDTH 7 0
BBX 8 12 0 0
BITMAP
3D
5E
00
1C
76
64
EC
F8
C1
C2
E4
78
ENDCHAR
STARTCHAR uni1EBE
ENCODING 7870
SWIDTH 459 0
DWIDTH 8 0
BBX 11 18 0 0
BITMAP
0020
0140
0340
0C80
0000
0F00
1980
1980
3900
1800
1C00
3800
7000
E000
E080
F100
FE00
7C00
ENDCHAR
STARTCHAR uni1EBF
ENCODING 7871
SWIDTH 384 0
DWIDTH 7 0
BBX 10 16 0 0
BITMAP
0040
0080
0080
0500
0E00
3200
0000
1C00
7600
6400
EC00
F800
C100
C200
E400
7800
ENDCHAR
STARTCHAR uni1EC0
ENCODING 7872
SWIDTH 459 0
DWIDTH 8 0
BBX 10 18 0 0
BITMAP
0040
0340
0480
0800
0000
0F00
1980
1980
3900
1800
1C00
3800
7000
E000
E080
F100
FE00
7C00
ENDCHAR
STARTCHAR uni1EC1
ENCODING 7873
SWIDTH 384 0
DWIDTH 7 0
BBX 9 15 0 0
BITMAP
0100
0100
0480
0E00
3200
0000
1C00
7600
6400
EC00
F800
C100
C200
E400
7800
ENDCHAR
STARTCHAR uni1EC2
ENCODING 7874
SWIDTH 459 0
DWIDTH 8 0
BBX 11 18 0 0
BITMAP
0060
0160
0340
0C80
0000
0F00
1980
1980
3900
1800
1C00
3800
7000
E000
E080
F100
FE00
7C00
ENDCHAR
STARTCHAR uni1EC3
ENCODING 7875
SWIDTH 384 0
DWIDTH 7 0
BBX 9 15 0 0
BITMAP
0380
0080
0500
0E00
3200
0000
1C00
7600
6400
EC00
F800
C100
C200
E400
7800
ENDCHAR
STARTCHAR uni1EC4
ENCODING 7876
SWIDTH 459 0
DWIDTH 8 0
BBX 10 18 0 0
BITMAP
07C0
0100
0700
0880
0000
0F00
1980
1980
3900
1800
1C00
3800
7000
E000
E080
F100
FE00
7C00
ENDCHAR
STARTCHAR uni1EC5
ENCODING 7877
SWIDTH 384 0
DWIDTH 7 0
BBX 9 15 0 0
BITMAP
0F80
0000
0400
0E00
3200
0000
1C00
7600
6400
EC00
F800
C100
C200
E400
7800
ENDCHAR
STARTCHAR uni1EC6
ENCODING 7878
SWIDTH 459 0
DWIDTH 8 0
BBX 9 22 0 -4
BITMAP
0100
0300
0480
0880
0000
0F00
1980
1980
3900
1800
1C00
3800
7000
E000
E080
F100
FE00
7C00
0000
3000
7000
3000
ENDCHAR
STARTCHAR uni1EC7
ENCODING 7879
SWIDTH 384 0
DWIDTH 7 0
BBX 8 17 0 -4
BITMAP
04
0E
32
00
1C
76
64
EC
F8
C1
C2
E4
78
00
60
E0
60
ENDCHAR
STARTCHAR uni1EC8
ENCODING 7880
SWIDTH 375 0
DWIDTH 7 0
BBX 8 18 0 0
BITMAP
07
05
01
06
00
0E
3E
4E
CC
CC
DC
1C
18
18
38
38
38
30
ENDCHAR
STARTCHAR uni1EC9
ENCODING 7881
SWIDTH 267 0
DWIDTH 5 0
BBX 6 13 0 0
BITMAP
78
08
30
00
70
60
60
E0
E0
E4
C8
F8
F0
ENDCHAR
STARTCHAR uni1ECA
ENCODING 7882
SWIDTH 375 0
DWIDTH 7 0
BBX 7 17 0 -4
BITMAP
0E
3E
4E
CC
CC
DC
1C
18
18
38
38
38
30
00
20
70
70
ENDCHAR
STARTCHAR uni1ECB
ENCODING 7883
SWIDTH 267 0
DWIDTH 5 0
BBX 7 16 -1 -4
BITMAP
18
18
18
38
30
30
70
70
72
64
7C
78
00
40
E0
E0
ENDCHAR
STARTCHAR uni1ECC
ENCODING 7884
SWIDTH 665 0
DWIDTH 12 0
BBX 12 17 0 -4
BITMAP
0FC0
3960
6670
4C70
DC70
D870
3870
3860
38E0
38E0
39C0
3B80
1F00
0000
0C00
1C00
0C00
ENDCHAR
STARTCHAR uni1ECD
ENCODING 7885
SWIDTH 433 0
DWIDTH 8 0
BBX 10 13 0 -4
BITMAP
1C00
7600
66C0
E700
E600
C400
C400
C800
7000
0000
6000
E000
6000
ENDCHAR
STARTCHAR uni1ECE
ENCODING 7886
SWIDTH 665 0
DWIDTH 12 0
BBX 12 18 0 0
BITMAP
01C0
0160
0040
0080
0000
0FC0
3960
6670
4C70
DC70
D870
3870
3860
38E0
38E0
39C0
3B80
1F00
ENDCHAR
STARTCHAR uni1ECF
ENCODING 7887
SWIDTH 433 0
DWIDTH 8 0
BBX 10 13 0 0
BITMAP
0E00
0200
0C00
0000
1C00
7600
66C0
E700
E600
C400
C400
C800
7000
ENDCHAR
STARTCHAR uni1ED0
ENCODING 7888
SWIDTH 665 0
DWIDTH 12 0
BBX 12 18 0 0
BITMAP
0010
00D0
0160
0240
0000
0FC0
3960
6670
4C70
DC70
D870
3870
3860
38E0
38E0
39C0
3B80
1F00
ENDCHAR
STARTCHAR uni1ED1
ENCODING 7889
SWIDTH 433 0
DWIDTH 8 0
BBX 10 16 0 0
BITMAP
0040
0080
0080
0500
0E00
3200
0000
1C00
7600
66C0
E700
E600
C400
C400
C800
7000
ENDCHAR
STARTCHAR uni1ED2
ENCODING 7890
SWIDTH 665 0
DWIDTH 12 0
BBX 12 18 0 0
BITMAP
0020
00D0
0340
0000
0000
0FC0
3960
6670
4C70
DC70
D870
3870
3860
38E0
38E0
39C0
3B80
1F00
ENDCHAR
STARTCHAR uni1ED3
ENCODING 7891
SWIDTH 433 0
DWIDTH 8 0
BBX 10 15 0 0
BITMAP
0100
0100
0480
0E00
3200
0000
1C00
7600
66C0
E700
E600
C400
C400
C800
7000
ENDCHAR
STARTCHAR uni1ED4
ENCODING 7892
SWIDTH 665 0
DWIDTH 12 0
BBX 13 18 0 0
BITMAP
0038
00D8
0150
0240
0000
0FC0
3960
6670
4C70
DC70
D870
3870
3860
38E0
38E0
39C0
3B80
1F00
ENDCHAR
STARTCHAR uni1ED5
ENCODING 7893
SWIDTH 433 0
DWIDTH 8 0
BBX 10 15 0 0
BITMAP
0180
0080
0580
0D00
3200
0000
1C00
7600
66C0
E700
E600
C400
C400
C800
7000
ENDCHAR
STARTCHAR uni1ED6
ENCODING 7894
SWIDTH 665 0
DWIDTH 12 0
BBX 12 18 0 0
BITMAP
01F0
00C0
0140
0240
0000
0FC0
3960
6670
4C70
DC70
D870
3870
3860
38E0
38E0
39C0
3B80
1F00
ENDCHAR
STARTCHAR uni1ED7
ENCODING 7895
SWIDTH 433 0
DWIDTH 8 0
BBX 10 16 0 0
BITMAP
0480
0F00
0000
0400
0E00
3200
0000
1C00
7600
66C0
E700
E600
C400
C400
C800
7000
ENDCHAR
STARTCHAR uni1ED8
ENCODING 7896
SWIDTH 665 0
DWIDTH 12 0
BBX 12 22 0 -4
BITMAP
0080
01C0
0340
0440
0000
0FC0
3960
6670
4C70
DC70
D870
3870
3860
38E0
38E0
39C0
3B80
1F00
0000
0C00
1C00
0C00
ENDCHAR
STARTCHAR uni1ED9
ENCODING 7897
SWIDTH 433 0
DWIDTH 8 0
BBX 10 17 0 -4
BITMAP
0400
0C00
3200
0000
1C00
7600
66C0
E700
E600
C400
C400
C800
7000
0000
6000
E000
6000
ENDCHAR
STARTCHAR uni1EDA
ENCODING 7898
SWIDTH 665 0
DWIDTH 12 0
BBX 13 18 0 0
BITMAP
0060
00C0
0088
0198
0018
0FD0
3970
6660
4C70
DC70
D870
3870
3860
38E0
38E0
39C0
3B80
1F00
ENDCHAR
STARTCHAR uni1EDB
ENCODING 7899
SWIDTH 439 0
DWIDTH 8 0
BBX 9 13 0 0
BITMAP
0600
0400
0D80
0180
1D00
7600
6200
E200
E600
E600
C400
EC00
7000
ENDCHAR
STARTCHAR uni1EDC
ENCODING 7900
SWIDTH 665 0
DWIDTH 12 0
BBX 13 18 0 0
BITMAP
0600
0300
0318
0018
0018
0FD0
3970
6660
4C70
DC70
D870
3870
3860
38E0
38E0
39C0
3B80
1F00
ENDCHAR
STARTCHAR uni1EDD
ENCODING 7901
SWIDTH 439 0
DWIDTH 8 0
BBX 9 13 0 0
BITMAP
1800
0800
0D80
0180
1D00
7600
6200
E200
E600
E600
C400
EC00
7000
ENDCHAR
STARTCHAR uni1EDE
ENCODING 7902
SWIDTH 665 0
DWIDTH 12 0
BBX 13 18 0 0
BITMAP
01C0
0160
0040
0098
0018
0FD8
3970
6660
4C70
DC70
D870
3870
3860
38E0
38E0
39C0
3B80
1F00
ENDCHAR
STARTCHAR uni1EDF
ENCODING 7903
SWIDTH 439 0
DWIDTH 8 0
BBX 9 13 0 0
BITMAP
0E00
0200
0D80
0180
1D00
7600
6200
E200
E600
E600
C400
EC00
7000
ENDCHAR
STARTCHAR uni1EE0
ENCODING 7904
SWIDTH 665 0
DWIDTH 12 0
BBX 13 17 0 0
BITMAP
0220
0FD0
0098
0018
0FD0
3970
6660
4C70
DC70
D870
3870
3860
38E0
38E0
39C0
3B80
1F00
ENDCHAR
STARTCHAR uni1EE1
ENCODING 7905
SWIDTH 439 0
DWIDTH 8 0
BBX 9 12 0 0
BITMAP
3A00
5D80
0180
1D00
7600
6200
E600
E600
C600
CC00
FC00
7000
ENDCHAR
STARTCHAR uni1EE2
ENCODING 7906
SWIDTH 665 0
DWIDTH 12 0
BBX 13 20 0 -4
BITMAP
0008
0018
0018
0FD0
3970
6660
4C70
DC70
D870
3870
3860
38E0
38E0
39C0
3B80
1F00
0000
0C00
1C00
0C00
ENDCHAR
STARTCHAR uni1EE3
ENCODING 7907
SWIDTH 439 0
DWIDTH 8 0
BBX 9 16 0 -4
BITMAP
0080
0180
0180
1D00
7600
6200
E200
E600
E600
C400
EC00
7000
0000
6000
E000
6000
ENDCHAR
STARTCHAR uni1EE4
ENCODING 7908
SWIDTH 716 0
DWIDTH 13 0
BBX 14 17 0 -4
BITMAP
0F1C
3618
4E38
CE38
CC38
CC30
1C30
1C70
1870
1860
18E0
1FC0
0F80
0000
0400
0E00
0E00
ENDCHAR
STARTCHAR uni1EE5
ENCODING 7909
SWIDTH 505 0
DWIDTH 9 0
BBX 10 13 0 -4
BITMAP
7300
6700
6700
E700
E600
EE00
CE40
FF80
E700
0000
3000
7000
3000
ENDCHAR
STARTCHAR uni1EE6
ENCODING 7910
SWIDTH 716 0
DWIDTH 13 0
BBX 14 18 0 0
BITMAP
00E0
0090
0030
0040
0000
0F1C
3618
4E38
CE38
CC38
CC30
1C30
1C70
1870
1860
18E0
1FC0
0F80
ENDCHAR
STARTCHAR uni1EE7
ENCODING 7911
SWIDTH 505 0
DWIDTH 9 0
BBX 10 13 0 0
BITMAP
1E00
0200
0C00
0000
7300
6700
6700
E700
E600
EE00
CE40
FF80
E700
ENDCHAR
STARTCHAR uni1EE8
ENCODING 7912
SWIDTH 716 0
DWIDTH 13 0
BBX 16 18 0 0
BITMAP
0030
0032
0063
0042
0002
0F1C
3618
4E38
CE38
CC38
CC30
1C30
1C70
1870
1860
18E0
1FC0
0F80
ENDCHAR
STARTCHAR uni1EE9
ENCODING 7913
SWIDTH 505 0
DWIDTH 9 0
BBX 10 13 0 0
BITMAP
0300
06C0
0CC0
0080
7380
6700
6700
E700
E600
EE00
CE40
FF80
E700
ENDCHAR
STARTCHAR uni1EEA
ENCODING 7914
SWIDTH 716 0
DWIDTH 13 0
BBX 16 18 0 0
BITMAP
0180
0083
00C3
0002
0006
0F18
3618
4E38
CE38
CC38
CC30
1C30
1C70
1870
1860
18E0
1FC0
0F80
ENDCHAR
STARTCHAR uni1EEB
ENCODING 7915
SWIDTH 505 0
DWIDTH 9 0
BBX 10 13 0 0
BITMAP
1800
08C0
0CC0
0080
7380
6700
6700
E700
E600
EE00
CE40
FF80
E700
ENDCHAR
STARTCHAR uni1EEC
ENCODING 7916
SWIDTH 716 0
DWIDTH 13 0
BBX 16 18 0 0
BITMAP
00E0
0090
0033
0042
0002
0F1C
3618
4E38
CE38
CC38
CC30
1C30
1C70
1870
1860
18E0
1FC0
0F80
ENDCHAR
STARTCHAR uni1EED
ENCODING 7917
SWIDTH 505 0
DWIDTH 9 0
BBX 10 13 0 0
BITMAP
1E00
0200
0CC0
00C0
7380
6700
6700
E700
E600
EE00
CE40
FF80
E700
ENDCHAR
STARTCHAR uni1EEE
ENCODING 7918
SWIDTH 716 0
DWIDTH 13 0
BBX 16 17 0 0
BITMAP
0042
03FB
0022
0002
0F1C
3618
4E38
CE38
CC38
CC30
1C30
1C70
1870
1860
18E0
1FC0
0F80
ENDCHAR
STARTCHAR uni1EEF
ENCODING 7919
SWIDTH 505 0
DWIDTH 9 0
BBX 10 12 0 0
BITMAP
1DC0
2EC0
0080
7380
6700
6700
E700
E600
EE00
CE40
FF80
E700
ENDCHAR
STARTCHAR uni1EF0
ENCODING 7920
SWIDTH 716 0
DWIDTH 13 0
BBX 16 21 0 -4
BITMAP
0002
0003
0002
0002
0F1C
3618
4E38
CE38
CC38
CC30
1C30
1C70
1870
1860
18E0
1FC0
0F80
0000
0400
0E00
0E00
ENDCHAR
STARTCHAR uni1EF1
ENCODING 7921
SWIDTH 505 0
DWIDTH 9 0
BBX 10 16 0 -4
BITMAP
00C0
00C0
0080
7300
6700
6700
E700
E600
EE00
CE40
FF80
E700
0000
3000
7000
3000
ENDCHAR
STARTCHAR Ygrave
ENCODING 7922
SWIDTH 620 0
DWIDTH 11 0
BBX 13 18 0 0
BITMAP
00C0
00C0
00C0
0000
0000
0E18
3710
6720
C720
C760
C3C0
03C0
0380
0380
0380
0300
0700
0700
ENDCHAR
STARTCHAR ygrave
ENCODING 7923
SWIDTH 505 0
DWIDTH 9 0
BBX 10 17 0 -4
BITMAP
1800
0800
0C00
0000
7300
6700
6700
E700
E600
EE40
CE80
FE80
EF00
3C00
5C00
5C00
7800
ENDCHAR
STARTCHAR uni1EF4
ENCODING 7924
SWIDTH 620 0
DWIDTH 11 0
BBX 13 17 0 -4
BITMAP
0E18
3710
6720
C720
C760
C3C0
03C0
0380
0380
0380
0300
0700
0700
0000
0600
0E00
0600
ENDCHAR
STARTCHAR uni1EF5
ENCODING 7925
SWIDTH 505 0
DWIDTH 9 0
BBX 10 13 0 -4
BITMAP
7300
6700
6700
E700
E600
EE40
CE80
FE80
EF00
3C00
5C00
5F80
7B00
ENDCHAR
STARTCHAR uni1EF6
ENCODING 7926
SWIDTH 620 0
DWIDTH 11 0
BBX 13 18 0 0
BITMAP
00E0
0090
0030
0040
0000
0E18
3710
6720
C720
C760
C3C0
03C0
0380
0380
0380
0300
0700
0700
ENDCHAR
STARTCHAR uni1EF7
ENCODING 7927
SWIDTH 505 0
DWIDTH 9 0
BBX 10 17 0 -4
BITMAP
1E00
0C00
0000
0000
7300
6700
6700
E700
E600
EE40
CE80
FE80
EF00
3C00
5C00
5C00
7800
ENDCHAR
STARTCHAR uni1EF8
ENCODING 7928
SWIDTH 620 0
DWIDTH 11 0
BBX 13 17 0 0
BITMAP
0080
03F8
0040
0000
0E18
3710
6720
C720
C760
C3C0
03C0
0380
0380
0380
0300
0700
0700
ENDCHAR
STARTCHAR uni1EF9
ENCODING 7929
SWIDTH 505 0
DWIDTH 9 0
BBX 10 16 0 -4
BITMAP
3E80
4F00
0000
7300
6700
6700
E700
E600
EE40
CE80
FE80
EF00
3C00
5C00
5C00
7800
ENDCHAR
STARTCHAR uni2010
ENCODING 8208
SWIDTH 290 0
DWIDTH 5 0
BBX 4 1 0 4
BITMAP
F0
ENDCHAR
STARTCHAR endash
ENCODING 8211
SWIDTH 352 0
DWIDTH 6 0
BBX 5 1 0 4
BITMAP
F8
ENDCHAR
STARTCHAR emdash
ENCODING 8212
SWIDTH 444 0
DWIDTH 8 0
BBX 7 1 0 4
BITMAP
FE
ENDCHAR
STARTCHAR quoteleft
ENCODING 8216
SWIDTH 209 0
DWIDTH 4 0
BBX 2 4 2 9
BITMAP
40
80
C0
C0
ENDCHAR
STARTCHAR quoteright
ENCODING 8217
SWIDTH 238 0
DWIDTH 4 0
BBX 2 4 2 9
BITMAP
C0
C0
C0
80
ENDCHAR
STARTCHAR quotesinglbase
ENCODING 8218
SWIDTH 220 0
DWIDTH 4 0
BBX 2 4 0 -1
BITMAP
C0
C0
40
80
ENDCHAR
STARTCHAR quotedblleft
ENCODING 8220
SWIDTH 429 0
DWIDTH 8 0
BBX 6 4 2 9
BITMAP
4C
88
DC
D8
ENDCHAR
STARTCHAR quotedblright
ENCODING 8221
SWIDTH 426 0
DWIDTH 8 0
BBX 6 4 2 9
BITMAP
CC
DC
4C
88
ENDCHAR
STARTCHAR quotedblbase
ENCODING 8222
SWIDTH 440 0
DWIDTH 8 0
BBX 6 4 0 -1
BITMAP
CC
DC
48
98
ENDCHAR
STARTCHAR dagger
ENCODING 8224
SWIDTH 495 0
DWIDTH 9 0
BBX 7 17 1 -4
BITMAP
0C
08
08
08
18
7E
FE
10
10
30
20
20
20
60
60
40
40
ENDCHAR
STARTCHAR daggerdbl
ENCODING 8225
SWIDTH 495 0
DWIDTH 9 0
BBX 8 17 0 -4
BITMAP
06
04
04
04
0C
3F
7F
08
08
7E
FE
10
10
30
30
20
20
ENDCHAR
STARTCHAR bullet
ENCODING 8226
SWIDTH 434 0
DWIDTH 8 0
BBX 4 3 2 3
BITMAP
60
F0
60
ENDCHAR
STARTCHAR ellipsis
ENCODING 8230
SWIDTH 702 0
DWIDTH 13 0
BBX 11 3 1 0
BITMAP
CC60
CEE0
CC60
ENDCHAR
STARTCHAR perthousand
ENCODING 8240
SWIDTH 1175 0
DWIDTH 21 0
BBX 20 13 1 0
BITMAP
386000
684000
CC8000
CC8000
C90000
CB0000
DA78E0
F6D9B0
04D930
099B30
199B30
10B360
30E1C0
ENDCHAR
STARTCHAR minute
ENCODING 8242
SWIDTH 196 0
DWIDTH 4 0
BBX 3 4 1 9
BITMAP
60
60
40
C0
ENDCHAR
STARTCHAR second
ENCODING 8243
SWIDTH 341 0
DWIDTH 6 0
BBX 6 4 1 9
BITMAP
6C
68
58
D0
ENDCHAR
STARTCHAR guilsinglleft
ENCODING 8249
SWIDTH 359 0
DWIDTH 6 0
BBX 6 7 0 1
BITMAP
04
18
60
C0
20
18
08
ENDCHAR
STARTCHAR guilsinglright
ENCODING 8250
SWIDTH 344 0
DWIDTH 6 0
BBX 6 7 0 1
BITMAP
40
30
08
04
18
60
80
ENDCHAR
STARTCHAR fraction
ENCODING 8260
SWIDTH 248 0
DWIDTH 4 0
BBX 9 13 -2 0
BITMAP
0180
0100
0300
0200
0400
0400
0800
1800
1000
3000
2000
4000
C000
ENDCHAR
STARTCHAR uni2052
ENCODING 8274
SWIDTH 796 0
DWIDTH 14 0
BBX 9 13 3 0
BITMAP
C180
C100
C200
0200
0400
0C00
0800
1800
1000
2000
6300
4380
C300
ENDCHAR
STARTCHAR uni2070
ENCODING 8304
SWIDTH 379 0
DWIDTH 7 0
BBX 6 8 1 5
BITMAP
38
68
CC
CC
C8
C8
D8
F0
ENDCHAR
STARTCHAR uni2074
ENCODING 8308
SWIDTH 352 0
DWIDTH 6 0
BBX 5 7 1 6
BITMAP
68
78
58
50
F8
30
30
ENDCHAR
STARTCHAR uni2075
ENCODING 8309
SWIDTH 335 0
DWIDTH 6 0
BBX 5 7 1 6
BITMAP
78
40
70
98
D8
90
F0
ENDCHAR
STARTCHAR uni2076
ENCODING 8310
SWIDTH 351 0
DWIDTH 6 0
BBX 5 8 1 5
BITMAP
38
68
C0
F0
F8
D8
D8
F0
ENDCHAR
STARTCHAR uni2077
ENCODING 8311
SWIDTH 329 0
DWIDTH 6 0
BBX 5 7 1 6
BITMAP
F8
90
20
60
C0
C0
C0
ENDCHAR
STARTCHAR uni2078
ENCODING 8312
SWIDTH 354 0
DWIDTH 6 0
BBX 5 8 1 5
BITMAP
38
68
68
30
70
98
98
F0
ENDCHAR
STARTCHAR uni2079
ENCODING 8313
SWIDTH 345 0
DWIDTH 6 0
BBX 5 8 1 5
BITMAP
70
D8
98
98
F8
10
B0
E0
ENDCHAR
STARTCHAR uni2080
ENCODING 8320
SWIDTH 379 0
DWIDTH 7 0
BBX 6 7 1 0
BITMAP
38
6C
CC
CC
C8
D8
70
ENDCHAR
STARTCHAR uni2081
ENCODING 8321
SWIDTH 229 0
DWIDTH 4 0
BBX 3 8 1 0
BITMAP
20
E0
40
40
40
C0
C0
80
ENDCHAR
STARTCHAR uni2082
ENCODING 8322
SWIDTH 328 0
DWIDTH 6 0
BBX 5 7 1 0
BITMAP
70
58
50
30
40
80
F0
ENDCHAR
STARTCHAR uni2083
ENCODING 8323
SWIDTH 336 0
DWIDTH 6 0
BBX 5 7 1 0
BITMAP
70
58
58
20
D8
98
F0
ENDCHAR
STARTCHAR uni2084
ENCODING 8324
SWIDTH 352 0
DWIDTH 6 0
BBX 5 7 1 0
BITMAP
78
78
50
F8
30
30
30
ENDCHAR
STARTCHAR uni2085
ENCODING 8325
SWIDTH 335 0
DWIDTH 6 0
BBX 5 7 1 0
BITMAP
78
40
70
98
D8
90
E0
ENDCHAR
STARTCHAR uni2086
ENCODING 8326
SWIDTH 351 0
DWIDTH 6 0
BBX 5 7 1 0
BITMAP
38
68
F0
F8
D8
D0
70
ENDCHAR
STARTCHAR uni2087
ENCODING 8327
SWIDTH 329 0
DWIDTH 6 0
BBX 5 7 1 0
BITMAP
F8
90
20
40
C0
C0
C0
ENDCHAR
STARTCHAR uni2088
ENCODING 8328
SWIDTH 354 0
DWIDTH 6 0
BBX 5 7 1 0
BITMAP
38
68
68
70
98
98
70
ENDCHAR
STARTCHAR uni2089
ENCODING 8329
SWIDTH 345 0
DWIDTH 6 0
BBX 5 7 1 0
BITMAP
70
D8
98
F8
18
90
E0
ENDCHAR
STARTCHAR colonmonetary
ENCODING 8353
SWIDTH 384 0
DWIDTH 7 0
BBX 8 13 0 -1
BITMAP
0A
0A
1E
33
62
60
C0
C0
C0
64
7C
50
50
ENDCHAR
STARTCHAR franc
ENCODING 8355
SWIDTH 529 0
DWIDTH 10 0
BBX 10 13 0 0
BITMAP
0FC0
0E00
0C00
0C00
1C00
1F00
1C00
1800
1800
FE00
3800
3800
3000
ENDCHAR
STARTCHAR lira
ENCODING 8356
SWIDTH 455 0
DWIDTH 8 0
BBX 9 13 0 0
BITMAP
0780
0D80
1D80
1800
1800
7F00
3800
FE00
3000
3000
7080
7F80
FF00
ENDCHAR
STARTCHAR uni20A6
ENCODING 8358
SWIDTH 723 0
DWIDTH 13 0
BBX 14 13 0 0
BITMAP
0E18
0E18
0F10
0F30
1F30
7FFC
1BA0
FFFC
13E0
31E0
31C0
31C0
21C0
ENDCHAR
STARTCHAR uni20A9
ENCODING 8361
SWIDTH 841 0
DWIDTH 15 0
BBX 17 13 0 0
BITMAP
386180
386100
38E300
38E200
19E200
196400
7FFF80
1A6400
FFFF00
1A6800
1C6800
1C7000
187000
ENDCHAR
STARTCHAR Euro
ENCODING 8364
SWIDTH 507 0
DWIDTH 9 0
BBX 11 13 0 0
BITMAP
03C0
0E60
1C60
18C0
3800
7F80
3800
FF00
3800
3800
3880
1F80
1F00
ENDCHAR
STARTCHAR uni20AE
ENCODING 8366
SWIDTH 481 0
DWIDTH 9 0
BBX 13 13 0 0
BITMAP
1F88
67F8
4770
C700
C600
CE00
4FC0
7E00
0FC0
7C00
9C00
1C00
1C00
ENDCHAR
STARTCHAR uni20B3
ENCODING 8371
SWIDTH 573 0
DWIDTH 10 0
BBX 11 13 0 0
BITMAP
0F80
30C0
6E60
CC60
CCE0
DCC0
1D80
7F00
1800
7F00
3800
3800
3000
ENDCHAR
STARTCHAR uni20B4
ENCODING 8372
SWIDTH 570 0
DWIDTH 10 0
BBX 9 13 1 0
BITMAP
1F00
6380
4380
0700
FF80
1800
FF00
6000
E700
C300
C300
E700
7C00
ENDCHAR
STARTCHAR uni20B8
ENCODING 8376
SWIDTH 522 0
DWIDTH 9 0
BBX 14 13 0 0
BITMAP
3FFC
4000
0FF8
33F8
6700
C700
C700
4600
0E00
0E00
0E00
0C00
1C00
ENDCHAR
STARTCHAR uni20B9
ENCODING 8377
SWIDTH 544 0
DWIDTH 10 0
BBX 10 14 1 0
BITMAP
7FC0
0E00
FF80
0600
0600
0C00
F800
1C00
0C00
1C00
1C00
1C00
1800
1C00
ENDCHAR
STARTCHAR uni20BA
ENCODING 8378
SWIDTH 455 0
DWIDTH 8 0
BBX 9 13 1 0
BITMAP
1C00
1800
3800
3E00
3800
F600
3800
F300
7180
6100
6300
EE00
F800
ENDCHAR
STARTCHAR uni20BD
ENCODING 8381
SWIDTH 573 0
DWIDTH 10 0
BBX 11 13 0 0
BITMAP
0F80
30C0
6E60
CC60
CCE0
DCC0
1D80
7F00
1800
FE00
3800
3800
3000
ENDCHAR
STARTCHAR uni2116
ENCODING 8470
SWIDTH 996 0
DWIDTH 18 0
BBX 18 13 0 0
BITMAP
1E1800
2E1980
4F1340
CF3640
CF3680
DB3680
1B2700
1BA000
13EF80
31E000
31E000
31C000
31C000
ENDCHAR
STARTCHAR uni2120
ENCODING 8480
SWIDTH 585 0
DWIDTH 11 0
BBX 8 6 2 7
BITMAP
60
65
4F
AA
B6
DA
ENDCHAR
STARTCHAR trademark
ENCODING 8482
SWIDTH 379 0
DWIDTH 7 0
BBX 7 4 0 8
BITMAP
EA
CC
5C
9C
ENDCHAR
STARTCHAR uni2126
ENCODING 8486
SWIDTH 745 0
DWIDTH 13 0
BBX 13 14 0 0
BITMAP
0080
07E0
0C30
1810
1018
3018
2018
2010
2030
2020
2060
3040
1880
F9F0
ENDCHAR
STARTCHAR uni212A
ENCODING 8490
SWIDTH 601 0
DWIDTH 11 0
BBX 12 13 0 0
BITMAP
0E30
3E40
4EC0
CD80
CF00
5F80
1DC0
19C0
19C0
3980
3980
3B80
31C0
ENDCHAR
STARTCHAR uni212B
ENCODING 8491
SWIDTH 668 0
DWIDTH 12 0
BBX 13 18 0 -2
BITMAP
0018
0028
0038
0070
00B0
0170
0270
0670
3E60
CDE0
D8E0
18E0
38C0
30C0
31C0
31C0
3000
3000
ENDCHAR
STARTCHAR estimated
ENCODING 8494
SWIDTH 786 0
DWIDTH 14 0
BBX 13 13 1 0
BITMAP
0F00
30C0
6060
E070
E070
E070
FFF8
E000
E000
E000
6000
3060
1F80
ENDCHAR
STARTCHAR uni2153
ENCODING 8531
SWIDTH 733 0
DWIDTH 13 0
BBX 12 13 1 0
BITMAP
20C0
E080
4100
4300
4200
C600
C470
88B0
08F0
1060
31B0
2130
60E0
ENDCHAR
STARTCHAR uni2154
ENCODING 8532
SWIDTH 852 0
DWIDTH 15 0
BBX 14 13 1 0
BITMAP
7030
5820
5840
1040
2080
4180
811C
F324
0234
0418
042C
084C
1838
ENDCHAR
STARTCHAR oneeighth
ENCODING 8539
SWIDTH 741 0
DWIDTH 13 0
BBX 12 13 1 0
BITMAP
20C0
E080
4100
4300
4200
C600
C470
88D0
08D0
10E0
3130
2130
60E0
ENDCHAR
STARTCHAR threeeighths
ENCODING 8540
SWIDTH 828 0
DWIDTH 15 0
BBX 14 13 1 0
BITMAP
7020
5840
5840
3080
D980
9900
6338
0224
0428
0438
0848
18C8
1078
ENDCHAR
STARTCHAR fiveeighths
ENCODING 8541
SWIDTH 827 0
DWIDTH 15 0
BBX 14 13 1 0
BITMAP
7820
4040
7040
9880
D980
9100
F338
0264
0428
0438
0848
18C8
1078
ENDCHAR
STARTCHAR seveneighths
ENCODING 8542
SWIDTH 761 0
DWIDTH 14 0
BBX 13 13 1 0
BITMAP
F840
9080
2180
6100
C300
C200
C470
0CD8
0850
1860
11B0
21B0
60E0
ENDCHAR
STARTCHAR partialdiff
ENCODING 8706
SWIDTH 597 0
DWIDTH 11 0
BBX 10 13 1 0
BITMAP
0F00
1980
00C0
00C0
00C0
1EC0
7380
C180
8180
8100
8300
C600
7800
ENDCHAR
STARTCHAR uni2206
ENCODING 8710
SWIDTH 619 0
DWIDTH 11 0
BBX 11 13 0 0
BITMAP
0180
0380
02C0
06C0
04C0
0CC0
18C0
10C0
3040
2060
6060
C060
FFE0
ENDCHAR
STARTCHAR product
ENCODING 8719
SWIDTH 661 0
DWIDTH 12 0
BBX 12 13 0 0
BITMAP
7FF0
1080
1180
3180
3100
2100
2100
2300
6300
6200
4200
4200
C600
ENDCHAR
STARTCHAR summation
ENCODING 8721
SWIDTH 605 0
DWIDTH 11 0
BBX 11 13 0 0
BITMAP
1FE0
1800
1800
0C00
0400
0600
0300
0600
0C00
1800
3000
6000
FF80
ENDCHAR
STARTCHAR minus
ENCODING 8722
SWIDTH 471 0
DWIDTH 8 0
BBX 6 1 1 6
BITMAP
FC
ENDCHAR
STARTCHAR uni2215
ENCODING 8725
SWIDTH 488 0
DWIDTH 9 0
BBX 9 14 0 0
BITMAP
0180
0100
0300
0200
0600
0400
0800
0800
1000
3000
2000
6000
4000
C000
ENDCHAR
STARTCHAR uni2219
ENCODING 8729
SWIDTH 434 0
DWIDTH 8 0
BBX 4 3 2 3
BITMAP
E0
F0
60
ENDCHAR
STARTCHAR radical
ENCODING 8730
SWIDTH 660 0
DWIDTH 12 0
BBX 11 13 0 0
BITMAP
01E0
0100
0100
0300
0200
0600
0400
0400
6C00
A800
2800
3800
3000
ENDCHAR
STARTCHAR infinity
ENCODING 8734
SWIDTH 833 0
DWIDTH 15 0
BBX 12 6 1 3
BITMAP
38F0
4DB0
8610
8630
CB20
F1E0
ENDCHAR
STARTCHAR integral
ENCODING 8747
SWIDTH 305 0
DWIDTH 5 0
BBX 9 18 -2 -3
BITMAP
0380
0600
0600
0400
0400
0C00
0C00
0C00
0800
0800
1800
1800
1800
1000
1000
3000
3000
E000
ENDCHAR
STARTCHAR approxequal
ENCODING 8776
SWIDTH 441 0
DWIDTH 8 0
BBX 8 5 0 3
BITMAP
7F
40
00
79
9E
ENDCHAR
STARTCHAR notequal
ENCODING 8800
SWIDTH 500 0
DWIDTH 9 0
BBX 7 9 1 1
BITMAP
08
08
7E
FE
10
10
FE
FC
20
ENDCHAR
STARTCHAR lessequal
ENCODING 8804
SWIDTH 405 0
DWIDTH 7 0
BBX 7 9 0 2
BITMAP
02
06
1C
70
30
1C
04
00
FE
ENDCHAR
STARTCHAR greaterequal
ENCODING 8805
SWIDTH 405 0
DWIDTH 7 0
BBX 7 9 0 2
BITMAP
20
30
1C
06
1C
70
40
00
FE
ENDCHAR
STARTCHAR lozenge
ENCODING 9674
SWIDTH 619 0
DWIDTH 11 0
BBX 9 14 1 0
BITMAP
0600
0E00
0B00
1300
3100
6180
C180
8080
C100
4300
6600
6C00
2800
3000
ENDCHAR
STARTCHAR uni27E8
ENCODING 10216
SWIDTH 456 0
DWIDTH 8 0
BBX 7 19 1 -3
BITMAP
02
02
04
08
08
10
20
40
40
80
80
40
20
20
10
08
08
04
04
ENDCHAR
STARTCHAR uni27E9
ENCODING 10217
SWIDTH 456 0
DWIDTH 8 0
BBX 7 19 0 -3
BITMAP
40
40
20
30
10
08
0C
04
02
02
02
04
08
10
10
20
40
80
80
ENDCHAR
STARTCHAR ff
ENCODING 64256
SWIDTH 508 0
DWIDTH 9 0
BBX 15 17 -4 -4
BITMAP
01DE
03BA
0338
0730
07FC
0770
0670
0E70
0E60
0EE0
0CE0
0CE0
1FC0
7CC0
DDC0
99C0
7780
ENDCHAR
STARTCHAR fi
ENCODING 64257
SWIDTH 534 0
DWIDTH 10 0
BBX 14 17 -4 -4
BITMAP
01F0
0398
0338
0700
07B8
0730
0670
0670
0E70
0E60
0C64
0C7C
1C70
7C00
9C00
9800
7000
ENDCHAR
STARTCHAR fl
ENCODING 64258
SWIDTH 548 0
DWIDTH 10 0
BBX 15 17 -4 -4
BITMAP
01F0
039C
0318
0738
07F8
0738
0630
0E30
0E70
0E70
0C76
0C7C
1C78
7C00
9C00
9800
7000
ENDCHAR
STARTCHAR ffi
ENCODING 64259
SWIDTH 764 0
DWIDTH 14 0
BBX 19 17 -4 -4
BITMAP
01CF00
03B980
033380
077000
07FF80
077300
067300
0E6700
0EE700
0EE720
0CE640
0CC7C0
1FC780
7DC000
DDC000
998000
770000
ENDCHAR
STARTCHAR ffl
ENCODING 64260
SWIDTH 780 0
DWIDTH 14 0
BBX 19 17 -4 -4
BITMAP
01FF00
03B9C0
033180
073180
07FF80
077380
067380
0E6300
0EE300
0EE700
0CE720
0CC7C0
1FC380
7DC000
DDC000
998000
770000
ENDCHAR
STARTCHAR .notdef
ENCODING -1
SWIDTH 810 0
DWIDTH 15 0
BBX 15 23 0 -5
BITMAP
07FE
0804
0804
0804
0804
0804
1008
1188
12C8
12C8
2088
2110
2210
2010
2210
4020
4020
4020
4020
4020
8040
8040
FFC0
ENDCHAR
STARTCHAR A.salt
ENCODING -1
SWIDTH 590 0
DWIDTH 11 0
BBX 11 15 0 -2
BITMAP
00E0
03E0
06E0
04C0
08C0
19C0
1FC0
3180
3180
6380
6380
E380
C300
C000
6000
ENDCHAR
STARTCHAR B.salt
ENCODING -1
SWIDTH 633 0
DWIDTH 11 0
BBX 11 13 0 0
BITMAP
0F80
30C0
6E60
CCC0
CCC0
DFC0
1CE0
18E0
18E0
38C0
39C0
3980
3F00
ENDCHAR
STARTCHAR E.salt
ENCODING -1
SWIDTH 554 0
DWIDTH 10 0
BBX 11 13 0 0
BITMAP
1FE0
6FC0
4C00
CC00
DC00
DC00
1F80
1800
1800
3800
3800
3F80
3F00
ENDCHAR
STARTCHAR N.salt
ENCODING -1
SWIDTH 669 0
DWIDTH 12 0
BBX 13 13 0 0
BITMAP
1FE0
2E60
4C70
DC70
DC60
DCE0
1CE0
18E0
38C0
38C0
39C8
39D0
70E0
ENDCHAR
STARTCHAR i.loclTRK
ENCODING -1
SWIDTH 267 0
DWIDTH 5 0
BBX 6 12 0 0
BITMAP
30
30
30
70
60
60
E0
E0
E4
C8
F8
F0
ENDCHAR
STARTCHAR a.end
ENCODING -1
SWIDTH 467 0
DWIDTH 8 0
BBX 9 9 0 0
BITMAP
1F80
7300
6300
E700
E700
C600
CE00
FF00
7700
ENDCHAR
STARTCHAR aacute.end
ENCODING -1
SWIDTH 461 0
DWIDTH 8 0
BBX 9 13 0 0
BITMAP
0300
0600
0400
0800
3F80
7300
6700
E700
C700
C600
CE00
FF00
7700
ENDCHAR
STARTCHAR c.end
ENCODING -1
SWIDTH 341 0
DWIDTH 6 0
BBX 6 9 0 0
BITMAP
3C
74
64
E0
E0
C0
C0
E4
78
ENDCHAR
STARTCHAR d.end
ENCODING -1
SWIDTH 476 0
DWIDTH 9 0
BBX 9 12 0 0
BITMAP
0180
0380
0380
1F80
7300
6300
E700
E700
C600
CE00
FF80
7700
ENDCHAR
STARTCHAR e.end
ENCODING -1
SWIDTH 366 0
DWIDTH 7 0
BBX 7 9 0 0
BITMAP
1C
76
64
EC
F8
C0
C0
E4
78
ENDCHAR
STARTCHAR eacute.end
ENCODING -1
SWIDTH 367 0
DWIDTH 7 0
BBX 7 13 0 0
BITMAP
06
04
0C
00
1C
76
64
EC
F8
C0
C0
E4
78
ENDCHAR
STARTCHAR uni0292.end
ENCODING -1
SWIDTH 391 0
DWIDTH 7 0
BBX 7 13 0 -4
BITMAP
7E
CC
D8
38
30
70
38
18
1C
7C
98
B8
70
ENDCHAR
STARTCHAR g.end
ENCODING -1
SWIDTH 480 0
DWIDTH 9 0
BBX 9 13 0 -4
BITMAP
1F80
7300
6300
E700
E700
C600
CE00
FE00
7E00
3E00
4C00
5C00
3800
ENDCHAR
STARTCHAR uni01E5.end
ENCODING -1
SWIDTH 507 0
DWIDTH 9 0
BBX 9 13 0 -4
BITMAP
1F80
7300
6300
E700
E700
C600
CE00
FE00
7E00
2E00
FF00
5C00
3800
ENDCHAR
STARTCHAR h.end
ENCODING -1
SWIDTH 453 0
DWIDTH 8 0
BBX 9 12 -1 0
BITMAP
1C00
1800
3800
3F00
3B80
3380
7300
7300
7300
6700
6780
E380
ENDCHAR
STARTCHAR i.end
ENCODING -1
SWIDTH 209 0
DWIDTH 4 0
BBX 4 13 0 0
BITMAP
30
30
30
00
70
60
60
E0
E0
E0
C0
F0
E0
ENDCHAR
STARTCHAR iacute.end
ENCODING -1
SWIDTH 209 0
DWIDTH 4 0
BBX 6 13 0 0
BITMAP
1C
10
30
00
70
60
60
E0
E0
E0
C0
F0
E0
ENDCHAR
STARTCHAR ij.end
ENCODING -1
SWIDTH 480 0
DWIDTH 9 0
BBX 9 17 0 -4
BITMAP
3180
3380
3180
0000
7380
6300
6700
E700
E700
E600
C600
FE00
EE00
3E00
4C00
7C00
3800
ENDCHAR
STARTCHAR j.end
ENCODING -1
SWIDTH 213 0
DWIDTH 4 0
BBX 8 17 -4 -4
BITMAP
03
03
03
00
07
07
06
0E
0E
0E
0C
0C
1C
7C
DC
98
70
ENDCHAR
STARTCHAR k.end
ENCODING -1
SWIDTH 472 0
DWIDTH 9 0
BBX 10 13 -1 0
BITMAP
0400
1800
1800
3800
39C0
3B00
3600
7F00
7300
7300
6300
6780
E380
ENDCHAR
STARTCHAR l.end
ENCODING -1
SWIDTH 207 0
DWIDTH 4 0
BBX 5 13 0 0
BITMAP
08
30
30
70
70
60
60
E0
E0
E0
C0
F0
E0
ENDCHAR
STARTCHAR m.end
ENCODING -1
SWIDTH 701 0
DWIDTH 13 0
BBX 14 9 -1 0
BITMAP
3F78
3B98
3398
7338
7338
7730
6730
673C
E638
ENDCHAR
STARTCHAR n.end
ENCODING -1
SWIDTH 454 0
DWIDTH 8 0
BBX 9 9 -1 0
BITMAP
3F00
3B80
3380
7380
7300
7300
6700
6780
E380
ENDCHAR
STARTCHAR o.end
ENCODING -1
SWIDTH 487 0
DWIDTH 9 0
BBX 9 9 0 0
BITMAP
1C00
7680
6700
E600
E600
C600
C400
EC00
7000
ENDCHAR
STARTCHAR oacute.end
ENCODING -1
SWIDTH 487 0
DWIDTH 9 0
BBX 9 13 0 0
BITMAP
0600
0400
0C00
0000
1C00
7680
6700
E600
E600
E600
C400
EC00
7000
ENDCHAR
STARTCHAR s.end
ENCODING -1
SWIDTH 316 0
DWIDTH 6 0
BBX 7 10 -1 0
BITMAP
04
1C
1C
1C
2C
2E
6E
CE
4C
78
ENDCHAR
STARTCHAR t.end
ENCODING -1
SWIDTH 276 0
DWIDTH 5 0
BBX 5 12 0 0
BITMAP
38
30
70
78
70
60
60
E0
E0
E0
F0
E0
ENDCHAR
STARTCHAR u.end
ENCODING -1
SWIDTH 459 0
DWIDTH 8 0
BBX 8 9 0 0
BITMAP
73
67
67
E7
E6
EE
CE
FF
E7
ENDCHAR
STARTCHAR uacute.end
ENCODING -1
SWIDTH 459 0
DWIDTH 8 0
BBX 8 13 0 0
BITMAP
06
04
0C
00
73
67
67
E7
E6
EE
CE
FF
E7
ENDCHAR
STARTCHAR x.end
ENCODING -1
SWIDTH 500 0
DWIDTH 9 0
BBX 9 10 0 0
BITMAP
0180
1D80
2C80
4D00
8E00
8E00
9E00
1E00
2780
C700
ENDCHAR
STARTCHAR y.end
ENCODING -1
SWIDTH 460 0
DWIDTH 8 0
BBX 8 13 0 -4
BITMAP
73
67
67
E7
E6
EE
CE
FE
EC
3C
5C
5C
78
ENDCHAR
STARTCHAR k.salt
ENCODING -1
SWIDTH 518 0
DWIDTH 9 0
BBX 11 12 -1 0
BITMAP
1C00
1800
3800
3980
3B80
3C00
3F00
7300
7300
6320
67C0
E380
ENDCHAR
STARTCHAR p.salt
ENCODING -1
SWIDTH 482 0
DWIDTH 9 0
BBX 12 14 -2 -4
BITMAP
1C00
1F80
1FC0
18C0
18C0
38F0
3B80
3580
3700
7700
7000
7000
6000
E000
ENDCHAR
STARTCHAR E_x
ENCODING -1
SWIDTH 797 0
DWIDTH 14 0
BBX 15 13 0 0
BITMAP
0F00
1980
1980
390C
180C
1CE4
3868
7068
F070
E070
E0F2
F13C
7E38
ENDCHAR
STARTCHAR F_i
ENCODING -1
SWIDTH 726 0
DWIDTH 13 0
BBX 14 13 0 0
BITMAP
1FF8
6EF0
4E00
CE00
CC70
4FF0
1C70
1C60
1860
18E0
38E4
38F8
3870
ENDCHAR
STARTCHAR T_h
ENCODING -1
SWIDTH 971 0
DWIDTH 17 0
BBX 18 13 0 0
BITMAP
1FF800
673800
C73800
C63000
C63F00
2E7300
0E7300
0E6700
0C6700
0C6700
1CE640
1CE640
1CE780
ENDCHAR
STARTCHAR T_i
ENCODING -1
SWIDTH 744 0
DWIDTH 13 0
BBX 14 13 0 0
BITMAP
1FF8
67F8
4730
C700
C630
4E70
0E70
0E70
0C60
0C60
1CE4
1CF8
1C70
ENDCHAR
STARTCHAR a_x
ENCODING -1
SWIDTH 899 0
DWIDTH 16 0
BBX 17 10 0 0
BITMAP
000200
1FBB00
733900
633A00
E71A00
E71C00
C61800
C63C80
FFDF00
778E00
ENDCHAR
STARTCHAR a_z
ENCODING -1
SWIDTH 906 0
DWIDTH 16 0
BBX 16 9 0 0
BITMAP
1FBF
7326
632E
E70C
E71C
C618
CE3B
FF72
777E
ENDCHAR
STARTCHAR b_s
ENCODING -1
SWIDTH 799 0
DWIDTH 14 0
BBX 15 12 0 0
BITMAP
3800
3000
7008
7E38
7678
66B8
E738
E638
E6DA
CD1C
FCB8
78F0
ENDCHAR
STARTCHAR b_s_x
ENCODING -1
SWIDTH 1144 0
DWIDTH 21 0
BBX 21 13 0 0
BITMAP
080000
300000
300000
700830
7E3BB0
767990
66B990
E739A0
E639C0
E6D9C0
C51EC8
FCB8F0
78F0E0
ENDCHAR
STARTCHAR b_s_z
ENCODING -1
SWIDTH 1158 0
DWIDTH 21 0
BBX 21 12 0 0
BITMAP
380000
300000
700800
7E39F8
767B70
66BB60
E738E0
E638C0
E6D9C0
CD19B0
FCBB90
78F7E0
ENDCHAR
STARTCHAR c_x
ENCODING -1
SWIDTH 755 0
DWIDTH 14 0
BBX 14 10 0 0
BITMAP
0018
3DD8
74C8
64C8
E0D0
E0E0
C0E0
C1E4
E278
7C70
ENDCHAR
STARTCHAR c_z
ENCODING -1
SWIDTH 769 0
DWIDTH 14 0
BBX 14 9 0 0
BITMAP
3CFC
74B8
65B0
E070
E060
C0E0
C0C0
E5D8
7BF0
ENDCHAR
STARTCHAR e_x
ENCODING -1
SWIDTH 762 0
DWIDTH 14 0
BBX 14 10 0 0
BITMAP
0018
1DD8
76C8
64C8
ECF0
F8E0
C0E0
E1E4
E27C
7C30
ENDCHAR
STARTCHAR e_z
ENCODING -1
SWIDTH 788 0
DWIDTH 14 0
BBX 14 9 0 0
BITMAP
3CFC
7598
6438
EC30
F870
C060
C4E8
E9C8
73F8
ENDCHAR
STARTCHAR eacute_x
ENCODING -1
SWIDTH 760 0
DWIDTH 14 0
BBX 14 13 0 0
BITMAP
0700
0600
0C00
0018
1DD8
76C8
64C8
ECF0
F8E0
C0E0
C1E4
E27C
7C70
ENDCHAR
STARTCHAR f_f_t
ENCODING -1
SWIDTH 780 0
DWIDTH 14 0
BBX 19 17 -4 -4
BITMAP
01FF00
03B9C0
033180
073180
07FFC0
077380
067380
0E6300
0EE300
0EE700
0CE720
0CC7C0
1FC380
7DC000
DDC000
998000
770000
ENDCHAR
STARTCHAR f_i_x
ENCODING -1
SWIDTH 898 0
DWIDTH 16 0
BBX 21 17 -4 -4
BITMAP
01F000
039800
033800
070020
07BBB0
073390
0673A0
0671A0
0E71C0
0E6180
0C63C8
0C7DF0
1C78E0
7C0000
9C0000
980000
700000
ENDCHAR
STARTCHAR f_i_z
ENCODING -1
SWIDTH 904 0
DWIDTH 16 0
BBX 20 17 -4 -4
BITMAP
01F000
039800
033800
070000
07BBF0
073260
0672E0
0670C0
0E71C0
0E6180
0C63A0
0C7F30
1C77E0
7C0000
9C0000
980000
700000
ENDCHAR
STARTCHAR f_l_x
ENCODING -1
SWIDTH 912 0
DWIDTH 16 0
BBX 21 17 -4 -4
BITMAP
01F000
039C00
031800
073830
07FBB0
073B90
063190
0E31A0
0E71C0
0E71C0
0C73C8
0C7CF0
1C78E0
7C0000
9C0000
980000
700000
ENDCHAR
STARTCHAR f_l_z
ENCODING -1
SWIDTH 938 0
DWIDTH 17 0
BBX 21 17 -4 -4
BITMAP
01F000
039C00
031800
073800
07F9F8
073B30
063360
0E30E0
0E70C0
0E71C0
0C7190
0C7BB0
1C77E0
7C0000
9C0000
980000
700000
ENDCHAR
STARTCHAR f_t
ENCODING -1
SWIDTH 548 0
DWIDTH 10 0
BBX 15 17 -4 -4
BITMAP
01F0
039C
0318
0738
07FC
0738
0630
0E30
0E70
0E70
0C76
0C7C
1C78
7C00
9C00
9800
7000
ENDCHAR
STARTCHAR f_u
ENCODING -1
SWIDTH 772 0
DWIDTH 14 0
BBX 19 17 -4 -4
BITMAP
01C000
03A000
030000
070000
07FB80
073380
063380
067300
0E7300
0E6700
0C6760
0C7FC0
1C7380
7C0000
9C0000
980000
700000
ENDCHAR
STARTCHAR f_x
ENCODING -1
SWIDTH 663 0
DWIDTH 12 0
BBX 17 17 -4 -4
BITMAP
01C000
03A000
030000
070200
07F700
073100
063A00
063C00
0E3800
0E7880
0C9900
0CDF00
1CCE00
7C0000
9C0000
980000
700000
ENDCHAR
STARTCHAR g_p
ENCODING -1
SWIDTH 975 0
DWIDTH 18 0
BBX 17 14 0 -4
BITMAP
003800
1FBF00
733B80
633180
E73180
E77380
C67380
CE7300
FE6700
7FFE00
1EE000
6CE000
5CC000
39C000
ENDCHAR
STARTCHAR g_x
ENCODING -1
SWIDTH 892 0
DWIDTH 16 0
BBX 17 14 0 -4
BITMAP
000200
1FB300
733900
633A00
E73E00
E71C00
C61800
C63C80
FEDF00
7F0E00
1E0000
6C0000
5C0000
380000
ENDCHAR
STARTCHAR g_z
ENCODING -1
SWIDTH 907 0
DWIDTH 16 0
BBX 16 13 0 -4
BITMAP
1FBF
7326
672E
E70C
E71C
C618
CE3B
FE73
7E7E
3E00
4C00
5C00
3800
ENDCHAR
STARTCHAR i_x
ENCODING -1
SWIDTH 631 0
DWIDTH 11 0
BBX 12 13 0 0
BITMAP
3000
3000
3000
0060
7760
6720
6340
E340
E380
E380
C790
F9E0
F1C0
ENDCHAR
STARTCHAR i_z
ENCODING -1
SWIDTH 637 0
DWIDTH 11 0
BBX 11 13 0 0
BITMAP
3000
3000
3000
0000
77E0
76E0
64C0
E180
E380
E300
C740
F660
EFC0
ENDCHAR
STARTCHAR iacute_x
ENCODING -1
SWIDTH 631 0
DWIDTH 11 0
BBX 12 13 0 0
BITMAP
1C00
1000
3000
0060
7760
6720
6340
E340
E380
E380
C790
F9E0
F1C0
ENDCHAR
STARTCHAR iacute_z
ENCODING -1
SWIDTH 637 0
DWIDTH 11 0
BBX 11 13 0 0
BITMAP
1C00
1000
3000
0000
73E0
76E0
64C0
E180
E380
E300
C740
F660
EFC0
ENDCHAR
STARTCHAR j_x
ENCODING -1
SWIDTH 624 0
DWIDTH 11 0
BBX 16 17 -4 -4
BITMAP
0300
0700
0300
0006
0776
0672
0674
0E34
0E38
0E38
0C79
0DBE
1E1C
3C00
5C00
9800
7000
ENDCHAR
STARTCHAR j_z
ENCODING -1
SWIDTH 618 0
DWIDTH 11 0
BBX 15 17 -4 -4
BITMAP
0300
0300
0300
0000
077E
07CC
065C
0618
0E38
0E70
0C64
0CE4
1DFC
7C00
DC00
9800
7000
ENDCHAR
STARTCHAR l_x
ENCODING -1
SWIDTH 631 0
DWIDTH 11 0
BBX 12 13 0 0
BITMAP
0800
3000
3000
7060
7760
7720
6340
E340
E380
E380
C790
F9E0
F1C0
ENDCHAR
STARTCHAR l_z
ENCODING -1
SWIDTH 635 0
DWIDTH 11 0
BBX 11 13 0 0
BITMAP
0800
3000
3000
7000
77E0
66E0
65C0
E180
E380
E300
C760
F660
EFC0
ENDCHAR
STARTCHAR m_x
ENCODING -1
SWIDTH 1124 0
DWIDTH 20 0
BBX 22 10 -1 0
BITMAP
000018
3F79D8
3B99C8
3399D0
7338F0
7338E0
7730E0
6731E4
673EF8
E63C70
ENDCHAR
STARTCHAR m_z
ENCODING -1
SWIDTH 1125 0
DWIDTH 20 0
BBX 21 9 -1 0
BITMAP
3F79F8
3B9930
339870
733860
7338E0
7738C0
6731D0
673F98
E63BF0
ENDCHAR
STARTCHAR n_z
ENCODING -1
SWIDTH 882 0
DWIDTH 16 0
BBX 17 9 -1 0
BITMAP
3F1F80
3BB300
338600
738E00
730C00
731C00
671900
67BB00
E3FE00
ENDCHAR
STARTCHAR o_ae
ENCODING -1
SWIDTH 1089 0
DWIDTH 20 0
BBX 20 9 0 0
BITMAP
1C3FE0
7647A0
678720
E60660
E67F80
E6E600
C4CE10
ECCE20
70F7C0
ENDCHAR
STARTCHAR o_s
ENCODING -1
SWIDTH 786 0
DWIDTH 14 0
BBX 15 9 0 0
BITMAP
1C38
7678
66B8
E738
E638
C6BA
C53C
ED38
70F0
ENDCHAR
STARTCHAR o_s_x
ENCODING -1
SWIDTH 1132 0
DWIDTH 20 0
BBX 21 10 0 0
BITMAP
000030
1C3BB0
767B90
66B990
E739A0
E639C0
C6F9C0
CD3FC8
FD38F0
70F0E0
ENDCHAR
STARTCHAR o_s_z
ENCODING -1
SWIDTH 1139 0
DWIDTH 21 0
BBX 21 9 0 0
BITMAP
1C39F8
767B70
66BA60
E738E0
E639C0
C6B980
C53BB0
ED3B30
70F7E0
ENDCHAR
STARTCHAR o_x
ENCODING -1
SWIDTH 851 0
DWIDTH 15 0
BBX 16 10 0 0
BITMAP
0006
1C76
7672
66F6
E734
E638
C670
C4F9
EDBB
719C
ENDCHAR
STARTCHAR oacute_s
ENCODING -1
SWIDTH 787 0
DWIDTH 14 0
BBX 15 13 0 0
BITMAP
0600
0400
0C00
0000
1C38
7678
66B8
E738
E638
E6FA
C53C
ED38
70F0
ENDCHAR
STARTCHAR oacute_s_x
ENCODING -1
SWIDTH 1141 0
DWIDTH 21 0
BBX 21 13 0 0
BITMAP
060000
040000
0C0000
000000
1C39F8
767B70
66BA60
E738E0
E639C0
E6F980
C53BB0
ED3B30
70F7E0
ENDCHAR
STARTCHAR oacute_s_z
ENCODING -1
SWIDTH 1140 0
DWIDTH 21 0
BBX 21 13 0 0
BITMAP
060000
040000
0C0000
000000
1C39F8
767B70
66BA60
E738E0
E639C0
E6F980
C53BB0
ED3B30
70F7E0
ENDCHAR
STARTCHAR oacute_x
ENCODING -1
SWIDTH 852 0
DWIDTH 15 0
BBX 16 13 0 0
BITMAP
0600
0400
0C00
0006
1C76
7672
66F2
E734
E638
E678
C4F9
EDB9
719E
ENDCHAR
STARTCHAR r_x
ENCODING -1
SWIDTH 784 0
DWIDTH 14 0
BBX 16 10 -1 0
BITMAP
0006
3F66
3F62
3374
7078
7030
7070
60B9
61BE
E19C
ENDCHAR
STARTCHAR r_z
ENCODING -1
SWIDTH 654 0
DWIDTH 12 0
BBX 13 9 -1 0
BITMAP
3FF8
3F70
3260
70E0
70C0
71C0
61B0
6310
E7E0
ENDCHAR
STARTCHAR s_x
ENCODING -1
SWIDTH 727 0
DWIDTH 13 0
BBX 15 10 -1 0
BITMAP
020C
1CCC
1CE4
1CE8
2CF0
2E70
6E60
CFF2
4E7C
7838
ENDCHAR
STARTCHAR s_z
ENCODING -1
SWIDTH 744 0
DWIDTH 13 0
BBX 14 10 -1 0
BITMAP
0200
1CFC
1C9C
1CB8
2C30
2E70
4E60
EEE8
4CCC
79F8
ENDCHAR
STARTCHAR t_x
ENCODING -1
SWIDTH 631 0
DWIDTH 11 0
BBX 12 12 0 0
BITMAP
0800
3000
7060
7F60
F720
6720
6340
E380
E380
C790
F9E0
F1C0
ENDCHAR
STARTCHAR t_z
ENCODING -1
SWIDTH 704 0
DWIDTH 13 0
BBX 13 12 0 0
BITMAP
3800
3000
7000
79F8
7370
6260
60E0
E0C0
E1C0
E390
F330
E7E0
ENDCHAR
STARTCHAR u_v
ENCODING -1
SWIDTH 923 0
DWIDTH 17 0
BBX 16 9 0 0
BITMAP
733B
673B
6731
E731
E671
EE72
CE72
FE7C
EC38
ENDCHAR
STARTCHAR u_x
ENCODING -1
SWIDTH 878 0
DWIDTH 16 0
BBX 17 10 0 0
BITMAP
000600
733700
673200
673A00
E73C00
E63800
EE1880
CE3900
F7DF00
E78E00
ENDCHAR
STARTCHAR y_p
ENCODING -1
SWIDTH 954 0
DWIDTH 17 0
BBX 17 14 0 -4
BITMAP
003800
733700
673B80
677380
E77380
E67380
EE6300
CE6700
FEEE00
EFFC00
3CE000
5CC000
5DC000
798000
ENDCHAR
STARTCHAR y_x
ENCODING -1
SWIDTH 871 0
DWIDTH 16 0
BBX 16 14 0 -4
BITMAP
0006
7376
6732
6732
E73C
E638
E638
CE79
FEDF
EF1C
3C00
5C00
5C00
7800
ENDCHAR
STARTCHAR y_z
ENCODING -1
SWIDTH 888 0
DWIDTH 16 0
BBX 16 13 0 -4
BITMAP
733F
6766
672E
E71C
E618
EE38
CE36
FE72
FCFC
2C00
5C00
5C00
7800
ENDCHAR
STARTCHAR a_x.end
ENCODING -1
SWIDTH 884 0
DWIDTH 16 0
BBX 16 10 0 0
BITMAP
0002
1FBB
7339
633A
E71A
E71C
C618
C63C
FFDE
778E
ENDCHAR
STARTCHAR b_s.end
ENCODING -1
SWIDTH 731 0
DWIDTH 13 0
BBX 13 12 0 0
BITMAP
3800
3000
7008
7E38
7678
66B8
E738
E638
E6D8
CD18
FCB8
78F0
ENDCHAR
STARTCHAR e_x.end
ENCODING -1
SWIDTH 747 0
DWIDTH 13 0
BBX 13 10 0 0
BITMAP
0018
1DD8
76C8
64C8
ECF0
F8E0
C0E0
E0E0
E378
7C70
ENDCHAR
STARTCHAR f_u.end
ENCODING -1
SWIDTH 724 0
DWIDTH 13 0
BBX 17 17 -4 -4
BITMAP
01C000
03A000
030000
070000
07FB80
073380
063380
067300
0E7300
0E6700
0C6700
0C7F80
1C7300
7C0000
9C0000
980000
700000
ENDCHAR
STARTCHAR fi.end
ENCODING -1
SWIDTH 479 0
DWIDTH 9 0
BBX 13 17 -4 -4
BITMAP
01F0
0398
0338
0700
07B8
0730
0670
0670
0E70
0E60
0C60
0C78
1C70
7C00
9C00
9800
7000
ENDCHAR
STARTCHAR fl.end
ENCODING -1
SWIDTH 490 0
DWIDTH 9 0
BBX 14 17 -4 -4
BITMAP
01F0
039C
0318
0738
07F8
0738
0630
0E30
0E70
0E70
0C70
0C78
1C70
7C00
9C00
9800
7000
ENDCHAR
STARTCHAR i_x.end
ENCODING -1
SWIDTH 616 0
DWIDTH 11 0
BBX 11 13 0 0
BITMAP
3000
3000
3000
0060
7760
6720
6340
E340
E380
E380
C780
F9C0
F1C0
ENDCHAR
STARTCHAR o_s.end
ENCODING -1
SWIDTH 718 0
DWIDTH 13 0
BBX 13 9 0 0
BITMAP
1C38
7678
66B8
E738
E638
C6B8
C538
ED38
70F0
ENDCHAR
STARTCHAR oacute_s.end
ENCODING -1
SWIDTH 719 0
DWIDTH 13 0
BBX 13 13 0 0
BITMAP
0600
0400
0C00
0000
1C38
7678
66B8
E738
E638
E6F8
C538
ED38
70F0
ENDCHAR
STARTCHAR u_x.end
ENCODING -1
SWIDTH 863 0
DWIDTH 16 0
BBX 16 10 0 0
BITMAP
0006
7337
6732
673A
E73C
E638
E618
CE38
FFDE
E78C
ENDCHAR
STARTCHAR uni0424.loclBGR
ENCODING -1
SWIDTH 840 0
DWIDTH 15 0
BBX 15 16 0 -2
BITMAP
07E0
18C0
18C0
09C0
0FF8
39CC
718E
6186
E386
E38E
E30C
631C
7738
3FE0
0700
0600
ENDCHAR
STARTCHAR uni0492.loclBSH
ENCODING -1
SWIDTH 459 0
DWIDTH 8 0
BBX 11 13 0 0
BITMAP
1FE0
6FC0
4C00
CC00
DC00
5F80
1C00
1800
1800
3800
3800
3000
3000
ENDCHAR
STARTCHAR uni04AA.loclCHU
ENCODING -1
SWIDTH 497 0
DWIDTH 9 0
BBX 10 17 0 -4
BITMAP
0F80
1CC0
38C0
3180
7000
7000
7000
E000
E000
E040
7080
7F00
3C00
0C00
1600
1400
3800
ENDCHAR
STARTCHAR uni0418.loclSRB
ENCODING -1
SWIDTH 705 0
DWIDTH 13 0
BBX 13 13 0 0
BITMAP
0E18
3E38
6E38
CE70
CCF0
DDF0
1F70
1E70
1E60
1C60
38E0
38E0
30C0
ENDCHAR
STARTCHAR uni0419.loclSRB
ENCODING -1
SWIDTH 705 0
DWIDTH 13 0
BBX 13 17 0 0
BITMAP
0390
0330
01E0
0000
0E18
3E38
6E38
CE70
CCF0
DDF0
1F70
1E70
1E60
1C60
38E0
38E0
30C0
ENDCHAR
STARTCHAR uni0430.end
ENCODING -1
SWIDTH 467 0
DWIDTH 8 0
BBX 9 9 0 0
BITMAP
1F80
7300
6300
E700
E700
C600
CE00
FF00
7700
ENDCHAR
STARTCHAR uni0432.end
ENCODING -1
SWIDTH 406 0
DWIDTH 7 0
BBX 7 13 0 0
BITMAP
0E
1A
32
32
72
64
EC
EE
E6
C6
C6
EC
78
ENDCHAR
STARTCHAR uni0434.end
ENCODING -1
SWIDTH 480 0
DWIDTH 9 0
BBX 9 13 0 -4
BITMAP
1F80
7300
6300
E700
E700
C600
CE00
FE00
7E00
3E00
4C00
5C00
3800
ENDCHAR
STARTCHAR uni0435.end
ENCODING -1
SWIDTH 366 0
DWIDTH 7 0
BBX 7 9 0 0
BITMAP
1C
76
64
EC
F8
C0
C0
E4
78
ENDCHAR
STARTCHAR uni0451.end
ENCODING -1
SWIDTH 366 0
DWIDTH 7 0
BBX 8 12 0 0
BITMAP
37
32
00
1C
76
64
EC
F8
C0
C0
E4
78
ENDCHAR
STARTCHAR uni0436.end
ENCODING -1
SWIDTH 848 0
DWIDTH 15 0
BBX 17 9 -1 0
BITMAP
3CE700
4CED80
4ECD00
0ED800
0FF800
0DD800
4D9800
D99900
738E00
ENDCHAR
STARTCHAR uni0437.end
ENCODING -1
SWIDTH 426 0
DWIDTH 8 0
BBX 8 13 0 -4
BITMAP
1E
26
47
47
86
8E
38
1C
0C
3C
4C
5C
78
ENDCHAR
STARTCHAR uni0438.end
ENCODING -1
SWIDTH 459 0
DWIDTH 8 0
BBX 8 9 0 0
BITMAP
73
67
67
E7
E6
EE
CE
FF
E7
ENDCHAR
STARTCHAR uni0439.end
ENCODING -1
SWIDTH 459 0
DWIDTH 8 0
BBX 8 13 0 0
BITMAP
11
39
1E
00
73
67
67
E7
E6
EE
CE
FF
E7
ENDCHAR
STARTCHAR uni043A.end
ENCODING -1
SWIDTH 501 0
DWIDTH 9 0
BBX 10 9 -1 0
BITMAP
39C0
32C0
3400
7F00
7700
7700
6700
6780
E380
ENDCHAR
STARTCHAR uni043B.end
ENCODING -1
SWIDTH 511 0
DWIDTH 9 0
BBX 10 9 -1 0
BITMAP
03C0
05C0
05C0
0980
0980
0980
CB80
D3C0
71C0
ENDCHAR
STARTCHAR uni043C.end
ENCODING -1
SWIDTH 780 0
DWIDTH 14 0
BBX 15 9 -1 0
BITMAP
030E
071E
079C
0BBC
0BAC
0BFC
C9DC
D1DE
718C
ENDCHAR
STARTCHAR uni043D.end
ENCODING -1
SWIDTH 460 0
DWIDTH 8 0
BBX 9 9 -1 0
BITMAP
3980
3980
3380
7380
7F00
7300
7300
6700
E380
ENDCHAR
STARTCHAR uni043E.end
ENCODING -1
SWIDTH 439 0
DWIDTH 8 0
BBX 7 9 0 0
BITMAP
1C
76
62
E6
E6
E6
C4
EC
70
ENDCHAR
STARTCHAR uni043F.end
ENCODING -1
SWIDTH 454 0
DWIDTH 8 0
BBX 9 9 -1 0
BITMAP
3F00
3B80
3380
7380
7300
7300
6700
6780
E380
ENDCHAR
STARTCHAR uni0441.end
ENCODING -1
SWIDTH 341 0
DWIDTH 6 0
BBX 6 9 0 0
BITMAP
3C
74
64
E0
E0
C0
C0
E4
78
ENDCHAR
STARTCHAR uni0442.end
ENCODING -1
SWIDTH 701 0
DWIDTH 13 0
BBX 14 9 -1 0
BITMAP
3F78
3B98
3398
7338
7338
7730
6730
673C
E638
ENDCHAR
STARTCHAR uni0443.end
ENCODING -1
SWIDTH 460 0
DWIDTH 8 0
BBX 8 13 0 -4
BITMAP
73
67
67
E7
E6
EE
CE
FE
EC
3C
5C
5C
78
ENDCHAR
STARTCHAR uni0445.end
ENCODING -1
SWIDTH 500 0
DWIDTH 9 0
BBX 9 10 0 0
BITMAP
0180
1D80
2C80
4D00
8E00
8E00
9E00
1E00
2780
C700
ENDCHAR
STARTCHAR uni0447.end
ENCODING -1
SWIDTH 459 0
DWIDTH 8 0
BBX 8 9 0 0
BITMAP
73
67
67
E6
FE
7E
0E
0F
07
ENDCHAR
STARTCHAR uni0448.end
ENCODING -1
SWIDTH 706 0
DWIDTH 13 0
BBX 13 9 0 0
BITMAP
7338
6730
6730
E770
E670
EE70
CE60
FFF8
E770
ENDCHAR
STARTCHAR uni044B.end
ENCODING -1
SWIDTH 608 0
DWIDTH 11 0
BBX 11 9 0 0
BITMAP
7060
60E0
63C0
FCC0
E4C0
E7C0
C5C0
FDE0
78C0
ENDCHAR
STARTCHAR uni0455.end
ENCODING -1
SWIDTH 316 0
DWIDTH 6 0
BBX 7 10 -1 0
BITMAP
04
1C
1C
1C
2C
2E
6E
CE
4C
78
ENDCHAR
STARTCHAR uni0456.end
ENCODING -1
SWIDTH 209 0
DWIDTH 4 0
BBX 4 13 0 0
BITMAP
30
30
30
00
70
60
60
E0
E0
E0
C0
F0
E0
ENDCHAR
STARTCHAR uni0458.end
ENCODING -1
SWIDTH 213 0
DWIDTH 4 0
BBX 8 17 -4 -4
BITMAP
03
03
03
00
07
07
06
0E
0E
0E
0C
0C
1C
7C
DC
98
70
ENDCHAR
STARTCHAR uni044E.end
ENCODING -1
SWIDTH 675 0
DWIDTH 12 0
BBX 12 9 -1 0
BITMAP
38E0
3990
3390
7310
7F10
7730
6720
6760
E3C0
ENDCHAR
STARTCHAR uni044F.end
ENCODING -1
SWIDTH 480 0
DWIDTH 9 0
BBX 10 9 -1 0
BITMAP
0FC0
1980
3180
3B80
1F80
4B00
CB00
D3C0
7380
ENDCHAR
STARTCHAR uni0437.init
ENCODING -1
SWIDTH 455 0
DWIDTH 8 0
BBX 9 13 0 -4
BITMAP
3C00
4E00
8E00
0E00
0C00
1C00
7080
1900
1E00
3C00
5800
B800
7000
ENDCHAR
STARTCHAR uni0445.init
ENCODING -1
SWIDTH 390 0
DWIDTH 7 0
BBX 9 10 -1 0
BITMAP
0200
7300
3100
3A00
3C00
1800
7800
9C80
DF00
CE00
ENDCHAR
STARTCHAR uni0436.loclBGR
ENCODING -1
SWIDTH 882 0
DWIDTH 16 0
BBX 18 13 -1 0
BITMAP
007000
006000
006000
006000
3CE700
4CED80
4ECD00
0ED800
0FF800
0DD800
4D9840
D99980
738E00
ENDCHAR
STARTCHAR uni043A.loclBGR
ENCODING -1
SWIDTH 518 0
DWIDTH 9 0
BBX 11 13 -1 0
BITMAP
0400
1800
1800
3800
39C0
3A00
3600
7F00
7300
7300
6320
67C0
E380
ENDCHAR
STARTCHAR uni044E.loclBGR
ENCODING -1
SWIDTH 675 0
DWIDTH 12 0
BBX 15 13 -1 0
BITMAP
1C00
1800
1800
3800
38E0
3990
33B2
733C
7F10
7730
6720
6760
E3C0
ENDCHAR
STARTCHAR uni0493.loclBSH
ENCODING -1
SWIDTH 398 0
DWIDTH 7 0
BBX 9 9 -1 0
BITMAP
3F80
7F00
7000
7C00
6000
6400
E800
F800
7000
ENDCHAR
STARTCHAR uni04AB.loclCHU
ENCODING -1
SWIDTH 384 0
DWIDTH 7 0
BBX 8 13 0 -4
BITMAP
1C
76
64
E0
E0
E0
C3
E4
78
10
38
08
70
ENDCHAR
STARTCHAR uni0453.loclMKD
ENCODING -1
SWIDTH 267 0
DWIDTH 5 0
BBX 6 17 0 0
BITMAP
0C
08
18
10
00
F8
00
00
70
60
60
E0
E0
E4
C8
F8
F0
ENDCHAR
STARTCHAR uni0433.loclSRB
ENCODING -1
SWIDTH 267 0
DWIDTH 5 0
BBX 6 12 0 0
BITMAP
F8
00
00
70
60
60
E0
E0
E4
C8
F8
F0
ENDCHAR
STARTCHAR uni043F.loclSRB
ENCODING -1
SWIDTH 505 0
DWIDTH 9 0
BBX 10 12 0 0
BITMAP
3F00
0000
0000
7300
6700
6700
E700
E600
EE00
CE40
FF80
E700
ENDCHAR
STARTCHAR uni0442.loclSRB
ENCODING -1
SWIDTH 752 0
DWIDTH 14 0
BBX 14 12 0 0
BITMAP
3FF0
0000
0000
7338
6730
6730
E770
E670
EE70
CE64
FFF8
E770
ENDCHAR
STARTCHAR uni04150437
ENCODING -1
SWIDTH 940 0
DWIDTH 17 0
BBX 18 17 0 -4
BITMAP
0F0000
198000
398000
390000
181E00
1C2600
704700
708700
E08600
E08C40
F13880
7E1C80
7C0F00
003C00
004C00
005C00
007800
ENDCHAR
STARTCHAR uni04150445
ENCODING -1
SWIDTH 797 0
DWIDTH 14 0
BBX 15 13 0 0
BITMAP
0F00
1980
1980
390C
180C
1CE4
3868
7068
F070
E070
E0F2
F13C
7E38
ENDCHAR
STARTCHAR uni04010437
ENCODING -1
SWIDTH 940 0
DWIDTH 17 0
BBX 18 21 0 -4
BITMAP
0CC000
0CC000
000000
000000
0F0000
198000
398000
390000
181E00
1C2600
704700
708700
E08600
E08C40
F13880
7E1C80
7C0F00
003C00
004C00
005C00
007800
ENDCHAR
STARTCHAR uni04010445
ENCODING -1
SWIDTH 797 0
DWIDTH 14 0
BBX 15 17 0 0
BITMAP
0CC0
0CC0
0000
0000
0F00
1980
1980
390C
180C
1CE4
3868
7068
F070
E070
E0F2
F13C
7E38
ENDCHAR
STARTCHAR uni04210437
ENCODING -1
SWIDTH 973 0
DWIDTH 18 0
BBX 18 17 0 -4
BITMAP
0F8000
1CC000
38C000
398000
701E00
702700
702700
E04700
E04700
E08600
609C40
710C80
3E0F00
001E00
002E00
002C00
003800
ENDCHAR
STARTCHAR uni04210445
ENCODING -1
SWIDTH 814 0
DWIDTH 15 0
BBX 15 13 0 0
BITMAP
0F80
1CC0
38C0
398C
708C
7064
7064
E078
E070
E070
70F2
7FBE
3E38
ENDCHAR
STARTCHAR uni04040437
ENCODING -1
SWIDTH 973 0
DWIDTH 18 0
BBX 18 17 0 -4
BITMAP
0F8000
1CC000
38C000
318000
701E00
7E2700
702700
E04700
E04700
E08600
709C40
710C80
3E0F00
001E00
002E00
002C00
003800
ENDCHAR
STARTCHAR uni04040445
ENCODING -1
SWIDTH 814 0
DWIDTH 15 0
BBX 15 13 0 0
BITMAP
0F80
1CC0
38C0
318C
708C
7E64
7064
E078
E070
E070
70F2
7FBE
3E38
ENDCHAR
STARTCHAR uni04300445
ENCODING -1
SWIDTH 899 0
DWIDTH 16 0
BBX 17 10 0 0
BITMAP
000200
1FBB00
733900
633A00
E71A00
E71C00
C61800
C63C80
FFDF00
778E00
ENDCHAR
STARTCHAR uni04300447
ENCODING -1
SWIDTH 993 0
DWIDTH 18 0
BBX 19 9 0 0
BITMAP
1FBB80
733380
637380
E77300
E77F00
C63F20
CE0740
FF07C0
770380
ENDCHAR
STARTCHAR uni04310433
ENCODING -1
SWIDTH 816 0
DWIDTH 15 0
BBX 15 13 0 0
BITMAP
1FC0
1F80
1800
0C00
1C78
769C
671C
E73C
E678
C6E0
C4E2
E8E4
70F8
ENDCHAR
STARTCHAR uni04310453
ENCODING -1
SWIDTH 816 0
DWIDTH 15 0
BBX 15 13 0 0
BITMAP
1FCC
1F98
1810
0C00
1C78
769C
671C
E73C
E678
C6E0
C4E2
E8E4
70F8
ENDCHAR
STARTCHAR uni04310451
ENCODING -1
SWIDTH 814 0
DWIDTH 15 0
BBX 15 13 0 0
BITMAP
00C0
1FB6
1F36
1800
0C3C
1E74
76E4
E6EC
E6F0
C6C0
C5C2
ECEC
70F0
ENDCHAR
STARTCHAR uni04310436
ENCODING -1
SWIDTH 1261 0
DWIDTH 23 0
BBX 23 13 0 0
BITMAP
1FC000
1F8000
180000
0C0000
04718E
1EBB9A
771BB6
E61BB0
E61FE0
E63B60
C4B762
ED3772
71E63C
ENDCHAR
STARTCHAR uni04310439
ENCODING -1
SWIDTH 935 0
DWIDTH 17 0
BBX 18 13 0 0
BITMAP
1FF100
1FB200
181C00
0C0000
047700
1E6700
76E700
E6E600
E6E600
E6CE00
C4CE40
E8CE80
70FF00
ENDCHAR
STARTCHAR uni0431045E
ENCODING -1
SWIDTH 916 0
DWIDTH 16 0
BBX 17 17 0 -4
BITMAP
1FF100
1FB200
181C00
0C0000
1C7700
766700
66E600
E6E600
E6E600
C6CE00
C4CE80
E8CC80
70FF00
003C00
005C00
007800
007000
ENDCHAR
STARTCHAR uni0431044D
ENCODING -1
SWIDTH 860 0
DWIDTH 15 0
BBX 15 13 0 0
BITMAP
1FC0
1F80
1800
0C00
043C
1ECE
768E
E70E
E63E
E60C
C59C
ED98
70F0
ENDCHAR
STARTCHAR uni04310456
ENCODING -1
SWIDTH 697 0
DWIDTH 13 0
BBX 13 13 0 0
BITMAP
1FB0
1FF0
1830
0C00
0470
1E60
76E0
E6E0
E6E0
E6C0
C4C8
E8C8
70F0
ENDCHAR
STARTCHAR uni04310457
ENCODING -1
SWIDTH 697 0
DWIDTH 13 0
BBX 14 13 0 0
BITMAP
0080
1F6C
1F7C
1800
0C70
1E60
76E0
E6E0
E6E0
E6C0
C4C8
ECC8
70F0
ENDCHAR
STARTCHAR uni04310458
ENCODING -1
SWIDTH 669 0
DWIDTH 12 0
BBX 13 17 0 -4
BITMAP
1FF0
1F70
1830
0C00
1C70
7660
66E0
E6E0
E6E0
C6C0
C4C8
E9D0
71E0
07C0
0D80
0B80
0700
ENDCHAR
STARTCHAR uni04320433
ENCODING -1
SWIDTH 837 0
DWIDTH 15 0
BBX 16 13 0 0
BITMAP
0E00
1A00
3200
3200
7238
64DC
ED1C
EE1C
E678
C6F0
C6E3
ECE4
7878
ENDCHAR
STARTCHAR uni04320453
ENCODING -1
SWIDTH 837 0
DWIDTH 15 0
BBX 16 13 0 0
BITMAP
0E0C
1A08
3218
3200
7238
64DC
ED1C
EE1C
E678
C6F0
C6E3
ECE4
7878
ENDCHAR
STARTCHAR uni04320436
ENCODING -1
SWIDTH 1279 0
DWIDTH 23 0
BBX 24 13 0 0
BITMAP
0E0000
1A0000
320000
320000
7271CE
64999A
ED19B2
EE1BB0
E61FF0
C61B70
C63B71
E5B332
78E73C
ENDCHAR
STARTCHAR uni04320437
ENCODING -1
SWIDTH 824 0
DWIDTH 15 0
BBX 16 17 0 -4
BITMAP
0E00
1A00
3200
3200
7278
6598
EE1C
EE18
E638
C631
C6E2
EC72
783C
00F0
0130
0170
01E0
ENDCHAR
STARTCHAR uni04320445
ENCODING -1
SWIDTH 851 0
DWIDTH 15 0
BBX 16 13 0 0
BITMAP
0E00
1A00
3200
3206
7276
65F2
EE34
EE3C
E638
C638
C679
EC9A
7B1C
ENDCHAR
STARTCHAR uni04330437
ENCODING -1
SWIDTH 840 0
DWIDTH 15 0
BBX 16 13 0 -4
BITMAP
3878
5C9C
9D1C
3D1C
7A18
E238
C4E1
E432
F83C
0078
01B0
0170
00E0
ENDCHAR
STARTCHAR uni04330445
ENCODING -1
SWIDTH 740 0
DWIDTH 13 0
BBX 14 10 0 0
BITMAP
0018
3998
5DC8
9DD0
3CE0
78C0
E1E0
C3E4
E478
F870
ENDCHAR
STARTCHAR uni04330447
ENCODING -1
SWIDTH 880 0
DWIDTH 16 0
BBX 17 9 0 0
BITMAP
38EE00
5CCE00
9DCC00
3DCC00
79FC00
E2FC80
C21D00
C41D00
F80E00
ENDCHAR
STARTCHAR uni04530437
ENCODING -1
SWIDTH 840 0
DWIDTH 15 0
BBX 16 17 0 -4
BITMAP
0600
0400
0800
0000
3878
5C9C
9D1C
3D1C
7A18
E238
C4E1
E432
F83C
0078
01B0
0170
00E0
ENDCHAR
STARTCHAR uni04530445
ENCODING -1
SWIDTH 740 0
DWIDTH 13 0
BBX 14 13 0 0
BITMAP
0600
0C00
0800
0018
3998
5DC8
9DD0
3CE0
78C0
E1E0
C3E4
E478
F870
ENDCHAR
STARTCHAR uni04530447
ENCODING -1
SWIDTH 880 0
DWIDTH 16 0
BBX 17 13 0 0
BITMAP
060000
040000
080000
000000
38EE00
5CCE00
9DCC00
3DCC00
79FC00
E2FC80
C21D00
C41D00
F80E00
ENDCHAR
STARTCHAR uni04340447
ENCODING -1
SWIDTH 1010 0
DWIDTH 18 0
BBX 19 13 0 -4
BITMAP
1FB980
733B80
633380
E73380
E77F00
C67B20
CE4720
FE87C0
7F0380
1E0000
6C0000
5C0000
380000
ENDCHAR
STARTCHAR uni04340458
ENCODING -1
SWIDTH 746 0
DWIDTH 13 0
BBX 14 17 0 -4
BITMAP
0018
0018
0018
0000
1FB8
7338
6330
E730
E770
C670
CE74
FE68
7F70
3EE0
4CE0
7FC0
3B80
ENDCHAR
STARTCHAR uni04350437
ENCODING -1
SWIDTH 876 0
DWIDTH 16 0
BBX 17 13 0 -4
BITMAP
1C3800
765C00
648C00
ED0C00
F91C00
C11880
C27100
E43900
781E00
007800
00B800
00B800
00F000
ENDCHAR
STARTCHAR uni04350445
ENCODING -1
SWIDTH 762 0
DWIDTH 14 0
BBX 14 10 0 0
BITMAP
0018
1DD8
76C8
64C8
ECF0
F8E0
C0E0
E1E4
E27C
7C30
ENDCHAR
STARTCHAR uni04350447
ENCODING -1
SWIDTH 889 0
DWIDTH 16 0
BBX 17 9 0 0
BITMAP
1CEE00
76CE00
64CE00
EDCC00
F9FC00
C2FC00
C21C80
E41D00
780E00
ENDCHAR
STARTCHAR uni04510437
ENCODING -1
SWIDTH 876 0
DWIDTH 16 0
BBX 17 17 0 -4
BITMAP
320000
370000
000000
000000
1C3800
765C00
648C00
ED0C00
F91C00
C11880
C27100
E43900
781E00
007800
00B800
00B800
00F000
ENDCHAR
STARTCHAR uni04510445
ENCODING -1
SWIDTH 762 0
DWIDTH 14 0
BBX 14 12 0 0
BITMAP
3700
3200
0018
1DD8
76C8
64C8
ECF0
F8E0
C0E0
E1E4
E27C
7C30
ENDCHAR
STARTCHAR uni04510447
ENCODING -1
SWIDTH 889 0
DWIDTH 16 0
BBX 17 12 0 0
BITMAP
370000
320000
000000
1CEE00
76CE00
64CE00
EDCC00
F9FC00
C2FC00
C21C80
E41D00
780E00
ENDCHAR
STARTCHAR uni04360447
ENCODING -1
SWIDTH 1392 0
DWIDTH 25 0
BBX 27 9 -1 0
BITMAP
3CE73B80
4CEDB380
4ECD3380
0ED87300
0FF87700
0DD87F00
CD988720
D99907C0
738E0380
ENDCHAR
STARTCHAR uni04370437
ENCODING -1
SWIDTH 921 0
DWIDTH 17 0
BBX 17 13 0 -4
BITMAP
1E3C00
264E00
474600
478600
868E00
8E8C00
393880
1D1C80
0E1F00
1C3C00
6C5C00
5C5800
787000
ENDCHAR
STARTCHAR uni04380447
ENCODING -1
SWIDTH 1010 0
DWIDTH 18 0
BBX 19 9 0 0
BITMAP
733980
673B80
673380
E73380
E67F00
EE7B20
CE4720
FF87C0
E70380
ENDCHAR
STARTCHAR uni04390447
ENCODING -1
SWIDTH 1010 0
DWIDTH 18 0
BBX 19 13 0 0
BITMAP
108000
390000
1E0000
000000
733980
673B80
673380
E73380
E67F00
EE7B20
CE4720
FF87C0
E70380
ENDCHAR
STARTCHAR uni043A0447
ENCODING -1
SWIDTH 1016 0
DWIDTH 18 0
BBX 20 9 -1 0
BITMAP
39DCE0
32DCC0
341DC0
7F19C0
771FC0
773D90
672190
67C1E0
E381C0
ENDCHAR
STARTCHAR uni045C0447
ENCODING -1
SWIDTH 1016 0
DWIDTH 18 0
BBX 20 13 -1 0
BITMAP
018000
030000
060000
000000
39DCE0
32DCC0
341DC0
7F19C0
771FC0
773D90
672190
67C1E0
E381C0
ENDCHAR
STARTCHAR uni043B0447
ENCODING -1
SWIDTH 1061 0
DWIDTH 19 0
BBX 21 9 -1 0
BITMAP
03CE60
05CCE0
05CCE0
099CE0
099FC0
499FC8
CBA1C8
D3E1F0
71C0E0
ENDCHAR
STARTCHAR uni043C0447
ENCODING -1
SWIDTH 1276 0
DWIDTH 23 0
BBX 25 9 -1 0
BITMAP
071CEE00
071CCE00
073CCE00
0F39CC00
0F59FC00
4F79FC80
CBBA1D00
D3BE1F00
731C0E00
ENDCHAR
STARTCHAR uni043D0447
ENCODING -1
SWIDTH 1011 0
DWIDTH 18 0
BBX 20 9 -1 0
BITMAP
399CC0
399DC0
3399C0
7399C0
7F3980
733F80
732390
6743A0
E381C0
ENDCHAR
STARTCHAR uni043E0433
ENCODING -1
SWIDTH 804 0
DWIDTH 14 0
BBX 15 9 0 0
BITMAP
1C38
76DC
671C
E63C
E678
E6E0
C4C2
E8C4
70F8
ENDCHAR
STARTCHAR uni043E0453
ENCODING -1
SWIDTH 804 0
DWIDTH 14 0
BBX 15 13 0 0
BITMAP
0006
000C
0008
0010
1C38
76DC
671C
E63C
E678
E6E0
C4C2
E8C4
70F8
ENDCHAR
STARTCHAR uni043E0436
ENCODING -1
SWIDTH 1271 0
DWIDTH 23 0
BBX 24 9 0 0
BITMAP
1C718E
76999A
671BB2
E61BB0
E61FF0
E61B60
C5B361
ED3772
71E73C
ENDCHAR
STARTCHAR uni043E0437
ENCODING -1
SWIDTH 837 0
DWIDTH 15 0
BBX 16 13 0 -4
BITMAP
1C78
769C
671C
E61C
E618
E638
C4E1
E872
7034
0078
01B0
0170
00E0
ENDCHAR
STARTCHAR uni043E043B
ENCODING -1
SWIDTH 992 0
DWIDTH 18 0
BBX 19 9 0 0
BITMAP
1C0780
760B80
621B80
E61300
E61300
E61700
C5B720
EFA740
7CE380
ENDCHAR
STARTCHAR uni043E043C
ENCODING -1
SWIDTH 1207 0
DWIDTH 22 0
BBX 22 9 0 0
BITMAP
1C0E38
760E78
621E70
E61E70
E61EF0
C61EF0
CD9F74
FF2F7C
78EE38
ENDCHAR
STARTCHAR uni043E0445
ENCODING -1
SWIDTH 850 0
DWIDTH 15 0
BBX 16 10 0 0
BITMAP
0006
1C76
7672
66F6
E734
E638
C670
C4F9
EDBB
719C
ENDCHAR
STARTCHAR uni043E0459
ENCODING -1
SWIDTH 1179 0
DWIDTH 21 0
BBX 21 9 0 0
BITMAP
1C0780
760B80
621B00
E613F0
E61338
E61730
C5B730
EFA760
7CE3C0
ENDCHAR
STARTCHAR uni043E044D
ENCODING -1
SWIDTH 867 0
DWIDTH 16 0
BBX 15 9 0 0
BITMAP
1C3C
76CE
670E
E60E
E63E
E60C
C48C
ED98
70F0
ENDCHAR
STARTCHAR uni043F0447
ENCODING -1
SWIDTH 1010 0
DWIDTH 18 0
BBX 20 9 -1 0
BITMAP
3F1CC0
3B9DC0
3399C0
7399C0
733F80
733D90
672390
6743A0
E381C0
ENDCHAR
STARTCHAR uni04400437
ENCODING -1
SWIDTH 890 0
DWIDTH 16 0
BBX 19 14 -2 -4
BITMAP
1C0000
1F8F00
1DD300
18E380
39C380
39C300
39C700
319C20
3F8E40
7E0780
700E00
703600
602E00
E01C00
ENDCHAR
STARTCHAR uni04410437
ENCODING -1
SWIDTH 876 0
DWIDTH 16 0
BBX 17 13 0 -4
BITMAP
1C3800
765C00
648C00
E10C00
E11C00
C11880
C27100
E43900
781E00
007800
00B800
00B800
00F000
ENDCHAR
STARTCHAR uni04410445
ENCODING -1
SWIDTH 755 0
DWIDTH 14 0
BBX 14 10 0 0
BITMAP
0018
3DD8
74C8
64C8
E0D0
E0E0
C0E0
C1E4
E278
7C70
ENDCHAR
STARTCHAR uni04410447
ENCODING -1
SWIDTH 889 0
DWIDTH 16 0
BBX 17 9 0 0
BITMAP
1CEE00
76CE00
64CE00
E1CC00
E1FC00
C2FC80
C21C80
E41D00
780E00
ENDCHAR
STARTCHAR uni0441044A
ENCODING -1
SWIDTH 841 0
DWIDTH 15 0
BBX 15 9 0 0
BITMAP
1CF8
77B0
67E0
E07C
E0EE
C1CE
C3CE
E4CC
78F0
ENDCHAR
STARTCHAR uni04420447
ENCODING -1
SWIDTH 1257 0
DWIDTH 23 0
BBX 24 9 -1 0
BITMAP
3F78CE
3B99CE
3399CC
7339DC
7339FC
773AFD
67321D
673219
E63C1E
ENDCHAR
STARTCHAR uni04430447
ENCODING -1
SWIDTH 989 0
DWIDTH 18 0
BBX 19 13 0 -4
BITMAP
733B80
673380
677300
E77300
E67F00
EE7F20
CE8740
FF87C0
EE0380
3C0000
5C0000
5C0000
780000
ENDCHAR
STARTCHAR uni04430458
ENCODING -1
SWIDTH 725 0
DWIDTH 13 0
BBX 14 17 0 -4
BITMAP
0018
0038
0018
0000
7338
6730
6770
E770
E670
EE60
CE64
FEE8
ECF0
3FC0
5CC0
5DC0
7F80
ENDCHAR
STARTCHAR uni045E0447
ENCODING -1
SWIDTH 989 0
DWIDTH 18 0
BBX 19 17 0 -4
BITMAP
190000
390000
1E0000
000000
733B80
673380
677300
E77300
E67F00
EE7F20
CE8740
FF87C0
EE0380
3C0000
5C0000
5C0000
780000
ENDCHAR
STARTCHAR uni045E0458
ENCODING -1
SWIDTH 725 0
DWIDTH 13 0
BBX 14 17 0 -4
BITMAP
1118
3938
1E18
0000
7338
6730
6770
E770
E670
EE60
CE64
FEE8
EFF0
3CC0
5CC0
7FC0
7B80
ENDCHAR
STARTCHAR uni04440437
ENCODING -1
SWIDTH 1148 0
DWIDTH 21 0
BBX 21 16 0 -4
BITMAP
018000
038000
038000
1FF1C0
7336E0
673860
E73860
E630E0
C630C0
CE7388
FFE1C8
7FC1F0
0C03C0
0C05C0
1C05C0
180780
ENDCHAR
STARTCHAR uni04450447
ENCODING -1
SWIDTH 1027 0
DWIDTH 18 0
BBX 19 10 0 0
BITMAP
018000
1D99C0
2CB980
4D3980
8E3380
8E3F80
1E3BA0
1E4320
268320
C703C0
ENDCHAR
STARTCHAR uni0445044A
ENCODING -1
SWIDTH 1006 0
DWIDTH 18 0
BBX 17 10 0 0
BITMAP
018000
1DBE00
2CB400
4D2C00
4D1F80
8E1980
8E3980
1E3980
267B00
C79E00
ENDCHAR
STARTCHAR uni04470447
ENCODING -1
SWIDTH 1010 0
DWIDTH 18 0
BBX 19 9 0 0
BITMAP
733980
673B80
673380
E73380
FE7F00
7E7B20
0E4720
0F87C0
070380
ENDCHAR
STARTCHAR uni04480447
ENCODING -1
SWIDTH 1257 0
DWIDTH 23 0
BBX 23 9 0 0
BITMAP
73399C
673398
673398
E773B8
E673F8
EE75FA
CE6432
FFF83C
E77038
ENDCHAR
STARTCHAR uni045F0447
ENCODING -1
SWIDTH 1010 0
DWIDTH 18 0
BBX 19 13 0 -4
BITMAP
733980
673B80
673380
E73380
E67F00
EE7B20
CE4720
FF87C0
E70380
180000
180000
180000
180000
ENDCHAR
STARTCHAR uni044B0447
ENCODING -1
SWIDTH 1157 0
DWIDTH 21 0
BBX 22 9 0 0
BITMAP
706770
60E670
63CE60
FCCE60
E4CEE0
E7CFE4
C5D0E8
FDF0F8
78E070
ENDCHAR
STARTCHAR uni04550437
ENCODING -1
SWIDTH 840 0
DWIDTH 15 0
BBX 17 13 -1 -4
BITMAP
1C3C00
1C4E00
2C8E00
2C8E00
2F0C00
6F1C00
CE7080
4E1900
781E00
003C00
00D800
00B800
007000
ENDCHAR
STARTCHAR uni04550445
ENCODING -1
SWIDTH 727 0
DWIDTH 13 0
BBX 15 10 -1 0
BITMAP
020C
1CCC
1CE4
1CE8
2CF0
2E70
6E60
CFF2
4E7C
7838
ENDCHAR
STARTCHAR uni04550447
ENCODING -1
SWIDTH 909 0
DWIDTH 16 0
BBX 18 10 -1 0
BITMAP
020000
1C7380
1C7300
2C7700
2C6700
2EFF00
6EF640
8F0640
4E0780
780700
ENDCHAR
STARTCHAR uni04540437
ENCODING -1
SWIDTH 876 0
DWIDTH 16 0
BBX 17 13 0 -4
BITMAP
1C3800
765C00
608C00
F90C00
E11C00
C11880
C27100
E43900
781E00
007800
00B800
00B800
00F000
ENDCHAR
STARTCHAR uni04540445
ENCODING -1
SWIDTH 755 0
DWIDTH 14 0
BBX 14 10 0 0
BITMAP
0018
3DD8
74C8
64C8
E0D0
F8E0
C0E0
C0E4
E37C
7C70
ENDCHAR
STARTCHAR uni04540447
ENCODING -1
SWIDTH 889 0
DWIDTH 16 0
BBX 17 9 0 0
BITMAP
1CEE00
76CE00
66CE00
E1CC00
F9DC00
E1FC00
C21C80
E41D00
780E00
ENDCHAR
STARTCHAR uni044D0437
ENCODING -1
SWIDTH 837 0
DWIDTH 15 0
BBX 17 13 -1 -4
BITMAP
1E3C00
674E00
078E00
1F0E00
070C00
461C80
C67080
CC1900
781E00
003C00
00D800
00B800
007000
ENDCHAR
STARTCHAR uni04560447
ENCODING -1
SWIDTH 763 0
DWIDTH 14 0
BBX 14 13 0 0
BITMAP
3000
3000
3000
0000
7338
6338
6730
E770
E7F0
E7F4
C874
F07C
E030
ENDCHAR
STARTCHAR uni04570447
ENCODING -1
SWIDTH 763 0
DWIDTH 14 0
BBX 14 12 0 0
BITMAP
CC00
CC00
0000
7338
6338
6730
E770
E7F0
E7F4
C874
F07C
E030
ENDCHAR
STARTCHAR uni04570457
ENCODING -1
SWIDTH 543 0
DWIDTH 10 0
BBX 11 12 0 0
BITMAP
DBE0
DBC0
0000
7380
6300
6700
E700
E700
E600
CE40
FF80
F700
ENDCHAR
STARTCHAR uni04580447
ENCODING -1
SWIDTH 743 0
DWIDTH 13 0
BBX 18 17 -4 -4
BITMAP
030000
070000
030000
000000
077380
077300
067700
0E6700
0E7F00
0EF640
0C8640
0D0780
1E0700
3C0000
5C0000
980000
700000
ENDCHAR
STARTCHAR uni04580458
ENCODING -1
SWIDTH 480 0
DWIDTH 9 0
BBX 13 17 -4 -4
BITMAP
0330
0738
0330
0000
0770
0770
0670
0E60
0E60
0EE8
0CE8
0CD0
1FE0
3DC0
DDC0
FF80
7700
ENDCHAR
STARTCHAR uni045B0447
ENCODING -1
SWIDTH 990 0
DWIDTH 18 0
BBX 19 17 -1 -4
BITMAP
040000
180000
180000
7E0000
3819C0
3719C0
3B3980
733B80
733F80
735FA0
6743A0
6783C0
E70180
1E0000
260000
2C0000
3C0000
ENDCHAR
STARTCHAR uni045B0458
ENCODING -1
SWIDTH 722 0
DWIDTH 13 0
BBX 15 17 -1 -4
BITMAP
0C1C
181C
1808
7E00
381C
3718
3B38
7338
7338
7732
6734
6774
E6F8
1F60
2E60
3FE0
3DC0
ENDCHAR
STARTCHAR uni044E0433
ENCODING -1
SWIDTH 1050 0
DWIDTH 19 0
BBX 21 9 -1 0
BITMAP
38E1E0
399260
33BC60
7330E0
7F13C0
773780
672718
676720
E3C3C0
ENDCHAR
STARTCHAR uni044E0453
ENCODING -1
SWIDTH 1050 0
DWIDTH 19 0
BBX 21 13 -1 0
BITMAP
000030
000060
000040
000000
38E1E0
399260
33BC60
7330E0
7F13C0
773780
672718
676720
E3C3C0
ENDCHAR
STARTCHAR uni044E0436
ENCODING -1
SWIDTH 1507 0
DWIDTH 27 0
BBX 29 9 -1 0
BITMAP
38E38E70
3994CCD0
33B8CD90
7330CD80
7F10FF80
7730DD80
672CDB88
676D9990
E3C739E0
ENDCHAR
STARTCHAR uni044E0437
ENCODING -1
SWIDTH 1073 0
DWIDTH 19 0
BBX 21 13 -1 -4
BITMAP
38F3C0
3394E0
33B8E0
7F10E0
7730E0
7731C0
672788
676190
E3C1E0
0003C0
0005C0
000980
000700
ENDCHAR
STARTCHAR uni044E043B
ENCODING -1
SWIDTH 1228 0
DWIDTH 22 0
BBX 24 9 -1 0
BITMAP
38E03C
39905C
33905C
7310DC
7F1098
773098
6734B9
676DBA
E3F71C
ENDCHAR
STARTCHAR uni044E043C
ENCODING -1
SWIDTH 1443 0
DWIDTH 26 0
BBX 28 9 -1 0
BITMAP
38E071C0
399071C0
339073C0
7310F380
7F10F780
7730B580
6734B790
676D3BA0
E3F739C0
ENDCHAR
STARTCHAR uni044E0445
ENCODING -1
SWIDTH 1088 0
DWIDTH 20 0
BBX 21 10 -1 0
BITMAP
000030
38F3B0
339390
33BDA0
7F11C0
7731C0
7733C0
6724C8
676CC8
E3C6F0
ENDCHAR
STARTCHAR uni044E0459
ENCODING -1
SWIDTH 1415 0
DWIDTH 25 0
BBX 26 9 -1 0
BITMAP
38E03C00
39905C00
33905C00
7310DF80
7F109DC0
773099C0
6734B980
676D9980
E3F71E00
ENDCHAR
STARTCHAR uni044E044D
ENCODING -1
SWIDTH 1103 0
DWIDTH 20 0
BBX 20 9 -1 0
BITMAP
38E1E0
399270
33BC70
733070
7F11F0
773070
672460
676CC0
E3C780
ENDCHAR
STARTCHAR uni044F0447
ENCODING -1
SWIDTH 1030 0
DWIDTH 19 0
BBX 20 9 -1 0
BITMAP
0FCCE0
199CC0
319CC0
3B9DC0
1F9FC0
4B3FD0
CB2190
D3C1E0
7381C0
ENDCHAR
STARTCHAR uni04300445.liga
ENCODING -1
SWIDTH 884 0
DWIDTH 16 0
BBX 16 10 0 0
BITMAP
0002
1FBB
7339
633A
E71A
E71C
C618
C63C
FFDE
778E
ENDCHAR
STARTCHAR uni04300447.liga
ENCODING -1
SWIDTH 947 0
DWIDTH 17 0
BBX 17 9 0 0
BITMAP
1FBB80
733380
637380
E77300
E77F00
C63F00
CE0700
FF0780
770300
ENDCHAR
STARTCHAR uni04310451.liga
ENCODING -1
SWIDTH 746 0
DWIDTH 13 0
BBX 15 13 0 0
BITMAP
00C0
1FB6
1F36
1800
0C3C
1E74
76E4
E6EC
E6F8
C6C0
C4C4
FCF8
70F0
ENDCHAR
STARTCHAR uni04310436.liga
ENCODING -1
SWIDTH 1258 0
DWIDTH 23 0
BBX 23 13 0 0
BITMAP
1FC000
1F8000
180000
0C0000
04718E
1EBB9A
771BB6
E61BB0
E61FE0
E63B60
C4B760
ED3772
71E63C
ENDCHAR
STARTCHAR uni04310439.liga
ENCODING -1
SWIDTH 901 0
DWIDTH 16 0
BBX 16 13 0 0
BITMAP
1FF1
1FB2
181C
0C00
0477
1E67
76E7
E6E6
E6E6
E6CE
C4CE
E8CE
70FF
ENDCHAR
STARTCHAR uni0431045E.liga
ENCODING -1
SWIDTH 890 0
DWIDTH 16 0
BBX 16 17 0 -4
BITMAP
1FF1
1FB2
181C
0C00
1C77
7667
66E6
E6E6
E6EE
C6CE
CCCE
F8FC
70EC
007C
005C
0098
0070
ENDCHAR
STARTCHAR uni04310456.liga
ENCODING -1
SWIDTH 639 0
DWIDTH 12 0
BBX 12 13 0 0
BITMAP
1FB0
1FF0
1830
0C00
0470
1E60
76E0
E6E0
E6E0
E6C0
C4C0
E8D0
70E0
ENDCHAR
STARTCHAR uni04310457.liga
ENCODING -1
SWIDTH 638 0
DWIDTH 11 0
BBX 14 13 0 0
BITMAP
0080
1F6C
1F7C
1800
0C70
1E60
76E0
E6E0
E6E0
E6C0
C4C0
ECC0
70E0
ENDCHAR
STARTCHAR uni04310458.liga
ENCODING -1
SWIDTH 638 0
DWIDTH 11 0
BBX 12 17 0 -4
BITMAP
1FF0
1F70
1830
0C00
1C70
7660
66E0
E6E0
E6E0
C6C0
C4C0
E9C0
71C0
0780
0980
0B80
0700
ENDCHAR
STARTCHAR uni04320436.liga
ENCODING -1
SWIDTH 1275 0
DWIDTH 23 0
BBX 23 13 0 0
BITMAP
0E0000
1A0000
320000
320000
7271CE
64999A
ED19B2
EE1BB0
E61FF0
C61B70
C63B70
E5B332
78E73C
ENDCHAR
STARTCHAR uni04320437.liga
ENCODING -1
SWIDTH 752 0
DWIDTH 14 0
BBX 14 17 0 -4
BITMAP
0E00
1A00
3200
3200
7278
6598
EE1C
EE18
E638
C630
C6E0
EC70
7830
00F0
0130
0170
01E0
ENDCHAR
STARTCHAR uni04320445.liga
ENCODING -1
SWIDTH 842 0
DWIDTH 15 0
BBX 15 13 0 0
BITMAP
0E00
1A00
3200
3206
7276
65F2
EE36
EE3C
E638
C638
C678
EC98
7B1C
ENDCHAR
STARTCHAR uni04330437.liga
ENCODING -1
SWIDTH 768 0
DWIDTH 14 0
BBX 14 13 0 -4
BITMAP
3878
5C9C
9D1C
3D1C
7A18
E238
C4E0
E430
F838
00F8
0130
0170
00E0
ENDCHAR
STARTCHAR uni04330445.liga
ENCODING -1
SWIDTH 725 0
DWIDTH 13 0
BBX 13 10 0 0
BITMAP
0018
3998
5DC8
9DD0
3CF0
78E0
E0E0
C1E0
E660
F870
ENDCHAR
STARTCHAR uni04330447.liga
ENCODING -1
SWIDTH 834 0
DWIDTH 15 0
BBX 15 9 0 0
BITMAP
38EE
5CCE
9DCC
3DCC
79FC
E2FC
C21C
C41E
F80C
ENDCHAR
STARTCHAR uni04530437.liga
ENCODING -1
SWIDTH 768 0
DWIDTH 14 0
BBX 14 17 0 -4
BITMAP
0600
0400
0800
0000
3878
5C9C
9D1C
3D1C
7A18
E238
C4E0
E430
F838
00F8
0130
0170
00E0
ENDCHAR
STARTCHAR uni04530445.liga
ENCODING -1
SWIDTH 725 0
DWIDTH 13 0
BBX 13 13 0 0
BITMAP
0600
0C00
0800
0018
3998
5DC8
9DD0
3CF0
78E0
E0E0
C1E0
E660
F870
ENDCHAR
STARTCHAR uni04530447.liga
ENCODING -1
SWIDTH 834 0
DWIDTH 15 0
BBX 15 13 0 0
BITMAP
0600
0400
0800
0000
38EE
5CCE
9DCC
3DCC
79FC
E2FC
C21C
C41E
F80C
ENDCHAR
STARTCHAR uni04340447.liga
ENCODING -1
SWIDTH 965 0
DWIDTH 17 0
BBX 17 13 0 -4
BITMAP
1FB980
733B80
633380
E73380
E77F00
C67B00
CE4700
FE8780
7F0380
1E0000
6C0000
5C0000
380000
ENDCHAR
STARTCHAR uni04340458.liga
ENCODING -1
SWIDTH 715 0
DWIDTH 13 0
BBX 13 17 0 -4
BITMAP
0018
0018
0018
0000
1FB8
7338
6330
E730
E770
C670
CE70
FE60
7F60
3EE0
4CE0
7FC0
3B80
ENDCHAR
STARTCHAR uni04350437.liga
ENCODING -1
SWIDTH 804 0
DWIDTH 14 0
BBX 14 13 0 -4
BITMAP
1C38
765C
648C
ED0C
F91C
C118
C270
E438
7818
0078
00B8
00B8
00F0
ENDCHAR
STARTCHAR uni04350445.liga
ENCODING -1
SWIDTH 747 0
DWIDTH 13 0
BBX 13 10 0 0
BITMAP
0018
1DD8
76C8
64C8
ECF0
F8E0
C0E0
E0E0
E378
7C70
ENDCHAR
STARTCHAR uni04350447.liga
ENCODING -1
SWIDTH 844 0
DWIDTH 15 0
BBX 15 9 0 0
BITMAP
1CEE
76CE
64CE
EDCC
F9FC
C2FC
C21C
E41E
780E
ENDCHAR
STARTCHAR uni04510437.liga
ENCODING -1
SWIDTH 804 0
DWIDTH 14 0
BBX 14 17 0 -4
BITMAP
3200
3700
0000
0000
1C38
765C
648C
ED0C
F91C
C118
C270
E438
7818
0078
00B8
00B8
00F0
ENDCHAR
STARTCHAR uni04510445.liga
ENCODING -1
SWIDTH 747 0
DWIDTH 13 0
BBX 13 12 0 0
BITMAP
3700
3200
0018
1DD8
76C8
64C8
ECF0
F8E0
C0E0
E0E0
E378
7C70
ENDCHAR
STARTCHAR uni04510447.liga
ENCODING -1
SWIDTH 844 0
DWIDTH 15 0
BBX 15 12 0 0
BITMAP
3700
3200
0000
1CEE
76CE
64CE
EDCC
F9FC
C2FC
C21C
E41E
780E
ENDCHAR
STARTCHAR uni04360447.liga
ENCODING -1
SWIDTH 1341 0
DWIDTH 24 0
BBX 25 9 -1 0
BITMAP
3CE73B80
4CEDB380
4ECD3380
0ED87300
0FF87700
0DD87F00
CD988700
D9990780
738E0300
ENDCHAR
STARTCHAR uni04370437.liga
ENCODING -1
SWIDTH 849 0
DWIDTH 15 0
BBX 15 13 0 -4
BITMAP
1E3C
264E
4746
4786
868E
8E8C
3938
1D1C
0E1C
1C3C
6C5C
5C58
7870
ENDCHAR
STARTCHAR uni04380447.liga
ENCODING -1
SWIDTH 964 0
DWIDTH 17 0
BBX 17 9 0 0
BITMAP
733980
673B80
673380
E73380
E67F00
EE7B00
CE4700
FF8780
E70380
ENDCHAR
STARTCHAR uni04390447.liga
ENCODING -1
SWIDTH 964 0
DWIDTH 17 0
BBX 17 13 0 0
BITMAP
108000
390000
1E0000
000000
733980
673B80
673380
E73380
E67F00
EE7B00
CE4700
FF8780
E70380
ENDCHAR
STARTCHAR uni043A0447.liga
ENCODING -1
SWIDTH 978 0
DWIDTH 18 0
BBX 19 9 -1 0
BITMAP
39DCE0
32DCC0
341DC0
7F19C0
771FC0
773D80
672180
67C1E0
E381C0
ENDCHAR
STARTCHAR uni045C0447.liga
ENCODING -1
SWIDTH 978 0
DWIDTH 18 0
BBX 19 13 -1 0
BITMAP
018000
030000
060000
000000
39DCE0
32DCC0
341DC0
7F19C0
771FC0
773D80
672180
67C1E0
E381C0
ENDCHAR
STARTCHAR uni043B0447.liga
ENCODING -1
SWIDTH 1015 0
DWIDTH 18 0
BBX 19 9 -1 0
BITMAP
03CE60
05CCE0
05CCE0
099CC0
099FC0
499FC0
CBA1C0
D3E1E0
71C0E0
ENDCHAR
STARTCHAR uni043C0447.liga
ENCODING -1
SWIDTH 1231 0
DWIDTH 22 0
BBX 23 9 -1 0
BITMAP
071CEE
071CCE
073CCE
0F39CC
0F59FC
4F79FC
CBBA1C
D3BE1E
731C0C
ENDCHAR
STARTCHAR uni043D0447.liga
ENCODING -1
SWIDTH 965 0
DWIDTH 17 0
BBX 18 9 -1 0
BITMAP
399CC0
399DC0
3399C0
7399C0
7F3980
733F80
732380
674380
E381C0
ENDCHAR
STARTCHAR uni043E0436.liga
ENCODING -1
SWIDTH 1268 0
DWIDTH 23 0
BBX 23 9 0 0
BITMAP
1C718E
76999A
671BB2
E61BB0
E61FF0
E61B60
C5B360
ED3772
71E73C
ENDCHAR
STARTCHAR uni043E0437.liga
ENCODING -1
SWIDTH 765 0
DWIDTH 14 0
BBX 14 13 0 -4
BITMAP
1C78
769C
671C
E61C
E618
E638
C4E0
E830
7030
00F8
0130
0170
00E0
ENDCHAR
STARTCHAR uni043E043B.liga
ENCODING -1
SWIDTH 945 0
DWIDTH 17 0
BBX 17 9 0 0
BITMAP
1C0780
760B80
621B80
E61300
E61300
E61700
C5B700
EFA700
7CE380
ENDCHAR
STARTCHAR uni043E043C.liga
ENCODING -1
SWIDTH 1161 0
DWIDTH 21 0
BBX 21 9 0 0
BITMAP
1C0E38
760E38
621E70
E61E70
E61EB0
E61EF0
C59F70
EDAF70
7EEE38
ENDCHAR
STARTCHAR uni043E0445.liga
ENCODING -1
SWIDTH 835 0
DWIDTH 15 0
BBX 15 10 0 0
BITMAP
0006
1C76
7672
66F6
E734
E638
C678
C4B8
EDB8
719C
ENDCHAR
STARTCHAR uni043F0447.liga
ENCODING -1
SWIDTH 965 0
DWIDTH 17 0
BBX 18 9 -1 0
BITMAP
3F1CC0
3B9DC0
3399C0
7399C0
733F80
733D80
672380
674380
E381C0
ENDCHAR
STARTCHAR uni04400437.liga
ENCODING -1
SWIDTH 818 0
DWIDTH 15 0
BBX 17 14 -2 -4
BITMAP
1C0000
1F8F00
1DD300
18E380
39C380
39C300
39C700
319C00
3F8E00
7E0600
701E00
702600
602E00
E01C00
ENDCHAR
STARTCHAR uni04410437.liga
ENCODING -1
SWIDTH 804 0
DWIDTH 14 0
BBX 14 13 0 -4
BITMAP
1C38
765C
648C
E10C
E11C
C118
C270
E438
7818
0078
00B8
00B8
00F0
ENDCHAR
STARTCHAR uni04410445.liga
ENCODING -1
SWIDTH 740 0
DWIDTH 13 0
BBX 13 10 0 0
BITMAP
0018
3DD8
74C8
64C8
E0D0
E0E0
C0E0
C0E0
E368
7C70
ENDCHAR
STARTCHAR uni04410447.liga
ENCODING -1
SWIDTH 843 0
DWIDTH 15 0
BBX 15 9 0 0
BITMAP
1CEE
76CE
64CE
E1CC
E1FC
C2FC
C21C
E41E
780E
ENDCHAR
STARTCHAR uni04420447.liga
ENCODING -1
SWIDTH 1211 0
DWIDTH 22 0
BBX 23 9 -1 0
BITMAP
3F78CE
3B99CC
3399CC
7339DC
7339FC
773AFC
673218
673218
E63C1E
ENDCHAR
STARTCHAR uni04430447.liga
ENCODING -1
SWIDTH 943 0
DWIDTH 17 0
BBX 17 13 0 -4
BITMAP
733B80
673380
677300
E77300
E67F00
EE7F00
CE8700
FF8780
EE0300
3C0000
5C0000
5C0000
780000
ENDCHAR
STARTCHAR uni04430458.liga
ENCODING -1
SWIDTH 694 0
DWIDTH 12 0
BBX 13 17 0 -4
BITMAP
0018
0038
0018
0000
7338
6730
6770
E770
E670
EE60
CE60
FEE0
ECE0
3FC0
5CC0
5DC0
7F80
ENDCHAR
STARTCHAR uni045E0447.liga
ENCODING -1
SWIDTH 943 0
DWIDTH 17 0
BBX 17 17 0 -4
BITMAP
190000
390000
1E0000
000000
733B80
673380
677300
E77300
E67F00
EE7F00
CE8700
FF8780
EE0300
3C0000
5C0000
5C0000
780000
ENDCHAR
STARTCHAR uni045E0458.liga
ENCODING -1
SWIDTH 694 0
DWIDTH 12 0
BBX 13 17 0 -4
BITMAP
1118
3938
1E18
0000
7338
6730
6770
E770
E670
EE60
CE60
FEE0
EFE0
3CC0
5CC0
7FC0
7B80
ENDCHAR
STARTCHAR uni04440437.liga
ENCODING -1
SWIDTH 1076 0
DWIDTH 19 0
BBX 19 16 0 -4
BITMAP
018000
038000
038000
1FF1C0
7336E0
673860
E73860
E630E0
C630C0
CE7380
FFE1C0
7FC1C0
0C03C0
0C05C0
1C0580
180780
ENDCHAR
STARTCHAR uni04450447.liga
ENCODING -1
SWIDTH 981 0
DWIDTH 18 0
BBX 18 10 0 0
BITMAP
018000
1D99C0
2CB980
4D3980
8E3380
8E3F80
1E3B80
1E4300
268340
C70380
ENDCHAR
STARTCHAR uni04470447.liga
ENCODING -1
SWIDTH 964 0
DWIDTH 17 0
BBX 17 9 0 0
BITMAP
733980
673B80
673380
E73380
FE7F00
7E7B00
0E4700
0F8780
070380
ENDCHAR
STARTCHAR uni04480447.liga
ENCODING -1
SWIDTH 1211 0
DWIDTH 22 0
BBX 22 9 0 0
BITMAP
73399C
673398
673398
E773B8
E673F8
EE75F8
CE6430
FFF83C
E77038
ENDCHAR
STARTCHAR uni045F0447.liga
ENCODING -1
SWIDTH 964 0
DWIDTH 17 0
BBX 17 13 0 -4
BITMAP
733980
673B80
673380
E73380
E67F00
EE7B00
CE4700
FF8780
E70380
180000
180000
180000
180000
ENDCHAR
STARTCHAR uni044B0447.liga
ENCODING -1
SWIDTH 1112 0
DWIDTH 20 0
BBX 20 9 0 0
BITMAP
706770
60E670
63CE60
FCCE60
E4CEE0
E7CFE0
C5D0E0
FDF0F0
78E060
ENDCHAR
STARTCHAR uni04550437.liga
ENCODING -1
SWIDTH 768 0
DWIDTH 14 0
BBX 15 13 -1 -4
BITMAP
1C3C
1C4E
2C8E
2C8E
2F0C
6F1C
CE70
4E18
781C
007C
0098
00B8
0070
ENDCHAR
STARTCHAR uni04550445.liga
ENCODING -1
SWIDTH 712 0
DWIDTH 13 0
BBX 14 10 -1 0
BITMAP
020C
1CCC
1CE4
1CE8
2CF8
2E70
4E60
EFF0
4E74
7838
ENDCHAR
STARTCHAR uni04550447.liga
ENCODING -1
SWIDTH 864 0
DWIDTH 16 0
BBX 17 10 -1 0
BITMAP
020000
1C7380
1C7300
1C7700
2C6700
2EFF00
6EF600
8F0600
4E0780
780700
ENDCHAR
STARTCHAR uni04540437.liga
ENCODING -1
SWIDTH 804 0
DWIDTH 14 0
BBX 14 13 0 -4
BITMAP
1C38
765C
608C
F90C
E11C
C118
C270
E438
7818
0078
00B8
00B8
00F0
ENDCHAR
STARTCHAR uni04540445.liga
ENCODING -1
SWIDTH 740 0
DWIDTH 13 0
BBX 13 10 0 0
BITMAP
0018
3DD8
74C8
64C8
E0D0
F8E0
C0E0
C0E0
E368
7C70
ENDCHAR
STARTCHAR uni04540447.liga
ENCODING -1
SWIDTH 844 0
DWIDTH 15 0
BBX 15 9 0 0
BITMAP
1CEE
76CE
66CE
E1CC
F9DC
E1FC
C21C
E41E
780E
ENDCHAR
STARTCHAR uni044D0437.liga
ENCODING -1
SWIDTH 765 0
DWIDTH 14 0
BBX 15 13 -1 -4
BITMAP
1E3C
674E
078E
1F0E
070C
461C
C670
CC18
781C
007C
0098
00B8
0070
ENDCHAR
STARTCHAR uni04560447.liga
ENCODING -1
SWIDTH 717 0
DWIDTH 13 0
BBX 13 13 0 0
BITMAP
3000
3000
3000
0000
7338
6338
6730
E770
E7F0
E7F0
C870
F078
E030
ENDCHAR
STARTCHAR uni04570447.liga
ENCODING -1
SWIDTH 718 0
DWIDTH 13 0
BBX 13 12 0 0
BITMAP
CC00
CC00
0000
7338
6338
6730
E770
E7F0
E7F0
C870
F078
E030
ENDCHAR
STARTCHAR uni04570457.liga
ENCODING -1
SWIDTH 476 0
DWIDTH 9 0
BBX 11 12 0 0
BITMAP
DBE0
DBC0
0000
7380
6300
6700
E700
E700
E600
CE00
FF80
F700
ENDCHAR
STARTCHAR uni04580447.liga
ENCODING -1
SWIDTH 697 0
DWIDTH 13 0
BBX 17 17 -4 -4
BITMAP
030000
070000
030000
000000
077380
077300
067700
0E6700
0E7F00
0EF600
0C8600
0D0780
1E0700
3C0000
5C0000
980000
700000
ENDCHAR
STARTCHAR uni04580458.liga
ENCODING -1
SWIDTH 449 0
DWIDTH 8 0
BBX 13 17 -4 -4
BITMAP
0330
0738
0330
0000
0770
0770
0670
0E60
0E60
0EE0
0CE0
0CE0
1FC0
3DC0
DDC0
FF80
7700
ENDCHAR
STARTCHAR uni045B0447.liga
ENCODING -1
SWIDTH 937 0
DWIDTH 17 0
BBX 18 17 -1 -4
BITMAP
040000
180000
180000
7E0000
3819C0
3719C0
3B3980
733B80
733F80
735F80
674380
6783C0
E70180
1E0000
260000
2C0000
3C0000
ENDCHAR
STARTCHAR uni045B0458.liga
ENCODING -1
SWIDTH 691 0
DWIDTH 12 0
BBX 14 17 -1 -4
BITMAP
0C1C
181C
1808
7E00
381C
3718
3B38
7338
7338
7730
6730
6770
E6F0
1F60
2E60
3FE0
3DC0
ENDCHAR
STARTCHAR uni044E0436.liga
ENCODING -1
SWIDTH 1503 0
DWIDTH 27 0
BBX 28 9 -1 0
BITMAP
38E38E70
3994CCD0
33B8CD90
7330CD80
7F10FF80
7730DD80
672CDB80
676D9990
E3C739E0
ENDCHAR
STARTCHAR uni044E0437.liga
ENCODING -1
SWIDTH 1001 0
DWIDTH 18 0
BBX 19 13 -1 -4
BITMAP
38F3C0
3394E0
33B8E0
7F10E0
7730E0
7731C0
672780
676180
E3C1C0
0007C0
0009C0
000980
000700
ENDCHAR
STARTCHAR uni044E043B.liga
ENCODING -1
SWIDTH 1181 0
DWIDTH 21 0
BBX 22 9 -1 0
BITMAP
38E03C
39905C
33905C
7310DC
7F1098
773098
6734B8
676DB8
E3F71C
ENDCHAR
STARTCHAR uni044E043C.liga
ENCODING -1
SWIDTH 1396 0
DWIDTH 25 0
BBX 26 9 -1 0
BITMAP
38E071C0
399071C0
339073C0
7310F380
7F10F780
7730B580
6734B780
676D3B80
E3F739C0
ENDCHAR
STARTCHAR uni044E0445.liga
ENCODING -1
SWIDTH 1072 0
DWIDTH 19 0
BBX 20 10 -1 0
BITMAP
000030
38F3B0
339390
33BDA0
7F11C0
7731C0
7733C0
6724C0
676CF0
E3C6E0
ENDCHAR
STARTCHAR uni044F0447.liga
ENCODING -1
SWIDTH 984 0
DWIDTH 18 0
BBX 19 9 -1 0
BITMAP
0FCCE0
199CC0
319CC0
3B9DC0
1F9FC0
4B3FC0
CB2180
D3C1E0
7381C0
ENDCHAR
STARTCHAR brevecombcy
ENCODING -1
SWIDTH 0 0
DWIDTH 0 0
BBX 6 3 -5 10
BITMAP
C4
C8
F0
ENDCHAR
STARTCHAR brevecombcy.case
ENCODING -1
SWIDTH 0 0
DWIDTH 0 0
BBX 6 3 -4 14
BITMAP
C4
C8
F0
ENDCHAR
ENDFONT
